<!-- Generator: Adobe Illustrator 18.0.0, SVG Export Plug-In  -->
<svg version="1.1"
	 xmlns="http://www.w3.org/2000/svg" xmlns:xlink="http://www.w3.org/1999/xlink" xmlns:a="http://ns.adobe.com/AdobeSVGViewerExtensions/3.0/"
	 x="0px" y="0px" width="751px" height="702.1px" viewBox="0 0 751 702.1" enable-background="new 0 0 751 702.1"
	 xml:space="preserve">
<defs>
</defs>
<g id="background_2_">
	<rect x="0.5" y="656.2" opacity="0.3" fill="#BCBEC0" stroke="#939598" stroke-miterlimit="10" width="750" height="45.3"/>
	<rect x="257.2" y="656.2" opacity="0.1" fill="#939598" width="203.6" height="45.3"/>
	<rect x="460.8" y="656.2" opacity="0.2" fill="#939598" width="111.6" height="45.3"/>
	<rect x="572.7" y="656.2" opacity="0.25" fill="#939598" width="177.8" height="45.3"/>
</g>
<linearGradient id="sky_2_" gradientUnits="userSpaceOnUse" x1="374.8961" y1="71.1608" x2="374.8961" y2="555.6549">
	<stop  offset="0" style="stop-color:#A7BEE2"/>
	<stop  offset="1.578446e-002" style="stop-color:#ADC2E4"/>
	<stop  offset="9.410440e-002" style="stop-color:#C4D4EC"/>
	<stop  offset="0.1833" style="stop-color:#D7E2F3"/>
	<stop  offset="0.2883" style="stop-color:#E4EDF7"/>
	<stop  offset="0.4244" style="stop-color:#ECF4FA"/>
	<stop  offset="0.7043" style="stop-color:#EEF7FC"/>
</linearGradient>
<rect id="sky_1_" x="0.8" y="71.2" fill="url(#sky_2_)" width="748.2" height="484.5"/>
<g id="treeline_1_">
	<linearGradient id="SVGID_1_" gradientUnits="userSpaceOnUse" x1="578.0576" y1="444.2451" x2="578.0576" y2="442.6111">
		<stop  offset="0" style="stop-color:#D2E5D4"/>
		<stop  offset="1" style="stop-color:#94BBA9"/>
	</linearGradient>
	<path fill="url(#SVGID_1_)" d="M578.2,444.2c0-0.6-0.1-1.2-0.3-1.6C578,443.1,578.1,443.7,578.2,444.2z"/>
	<linearGradient id="SVGID_2_" gradientUnits="userSpaceOnUse" x1="572.3532" y1="462.6497" x2="572.3532" y2="462.342">
		<stop  offset="0" style="stop-color:#D2E5D4"/>
		<stop  offset="1" style="stop-color:#94BBA9"/>
	</linearGradient>
	<path fill="url(#SVGID_2_)" d="M573.1,462.6c-0.4-0.1-0.9-0.3-1.5-0.3C572.2,462.6,572.7,462.7,573.1,462.6z"/>
	<linearGradient id="SVGID_3_" gradientUnits="userSpaceOnUse" x1="518.6102" y1="490.937" x2="518.6102" y2="490.8347">
		<stop  offset="0" style="stop-color:#D2E5D4"/>
		<stop  offset="1" style="stop-color:#94BBA9"/>
	</linearGradient>
	<path fill="url(#SVGID_3_)" d="M519.1,490.9c-0.3-0.1-0.6-0.1-0.9,0C518.4,490.9,518.7,491,519.1,490.9z"/>
	<linearGradient id="SVGID_4_" gradientUnits="userSpaceOnUse" x1="393.4374" y1="607.1553" x2="393.4374" y2="429.2997">
		<stop  offset="0" style="stop-color:#D2E5D4"/>
		<stop  offset="1" style="stop-color:#94BBA9"/>
	</linearGradient>
	<path fill="url(#SVGID_4_)" d="M748.9,512c0-0.3-0.1-0.6-0.1-0.9c-0.8-0.6-2-1.2-3.1-1.1c-0.2-1.2-0.6-2.3-0.5-3.6
		c0.5,0,1.4-0.5,1.8-0.5c-2.2-1.2-5-6.4-0.1-5.6c-0.9-1.3-2.4-2.6-2.8-4.1c0.4,0.1,1.2,0,1.7,0.1c-0.5-1.5-1.5-2.6-2-4.1
		c-0.6-1.8,0.3-4-0.7-5.7c0.4,2.2-1.2,4.7-2.6,6c0.5-0.2,1.3-0.2,1.7-0.3c0.2,2.4-1.4,4.7-1.6,6.9c0.5-0.1,1.2,0.2,1.7,0.1
		c0.4,2.3-2.4,5-1.2,6.7c0.6-0.3,1.3-0.3,1.8-1c0.8,1.9,0.2,6.3-2.8,4c-2.5-1.9,0.3-3.5-0.3-5.7c-1.9-0.1-2.5-2.3-2.2-3.8
		c0.4,0,0.9-0.1,1.2-0.1c0.8-2.6-2.6-2.8-2.6-5.1c0.3,0,0.9-0.1,1.2-0.1c-0.8-1.2-1.2-4.5-3.1-4.2c-0.4,1.1-1.2,2.1-1.6,3.2
		c0.3-0.3,1.2-0.8,1.5-1.2c1.1,3.5-1,3.6-2.3,5.7c0.7,0.3,1.7,0.4,2.6,0.3c-0.4,0.6-2.7,2.6-2.6,3.4c0.3,1.9,1.4,0,2.4,0.3
		c2.4,0.8,0.4,0.8-0.5,2.3c-0.8,1.4-0.5,3.2-2.1,4.2c-1-2.1,0.8-4-1.1-5.2c-0.9-0.6-3.8-0.2-3.3-2.7c0.8,0.1,1.5-0.3,2.2-0.3
		c0.3-2.6-1.2-3-2.6-4.5c-1.1-1.2-2-3.1,0.3-2.8c-1.2-0.5-0.9-2.7-0.8-3.9c0.6,0.2,1.2,0,1.8,0.2c-0.7-1.5-1.7-2.9-2.6-4.5
		c-0.9-1.7-1-3.7-1.6-5.5c-0.8,1.5-0.2,4.1-1.5,5.3c0,0,0.7-0.7,1-1c0.3,2-0.3,3.8-1.5,4.9c0.3,0,0.7,0,1,0.1c0,1.2-0.3,2.7-1.5,3.4
		c0.4-0.1,1.3-0.1,1.7-0.2c0.4,1.8-2.9,4.4,0.6,5c-0.2,1.5-0.8,4.5-1.5,5.9c-0.5-0.4-1.8-2.5-1.9-3.2c0-1.3,1.8-2.3-0.2-2.8
		c1.5-2.2-0.5-5.3-1.4-8c-0.2,1.1-1,2.5-1.8,3.5c0,0.5,0.2,1.3,0.5,1.7c0.2-0.2,0.3-0.2,0.5-0.4c-0.9,0.8-1.4,2.1-2.6,2.8
		c0.8,1.2,1.9,1,2.9,0.2c-1,1.1-0.8,2.3-0.8,3.7c-3.5-0.6-2.1-2.3-2.6-4.5c-0.2-0.9-3-3.5,0-3.5c-0.7-1.4-1.8-2.4-2.3-4
		c-0.5-1.4-0.7-3-1.3-4.4c0,1.9,0.3,3.9,0.3,5.7c0,0.9,0,1-0.2,2c-0.2,0.9-1.1,1.3-0.3,2.5c0.3-0.3,1.1-0.8,1.1-0.8
		c0.4,3.1-2.6,3.5-1.9,0.6c-0.4,0-1.1-0.2-1.5-0.1c1.2-3,0.2-3.4-1.4-6.4c0.6,0.1,1.4-0.2,2.1-0.1c-1-2.1-1.6-6.7-3-8.4
		c-0.3,1.6,0.3,3.7-1.1,4.9c0.4-0.1,0.8-0.1,1.2-0.2c0.6,2-1.1,3.7-2.8,4.4c0.8-0.3,1.5-0.1,2.4-0.1c-1.2,0.7-1.9,1.7-1.8,3.1
		c1.1,0.2,2.1-0.4,3.1-0.7c-1.5,6.3-8.4-0.2-4.2-1.7c-2.2,0.3-8.2-5.6-1.1-4.3c0-0.1,0-0.6,0-0.7c-1-0.5-6.4-3-2.9-3.8
		c0,0,0-0.7,0-0.7c-1.6-0.3-2.3-3.7-0.5-3.8c-1.5-1.2-1.9-4.3-3.3-5.2c-0.2,1.3,0,3.1-1.6,3.5c1.4,1.6-1.5,1.5-1.6,2.9
		c4.9-0.3,1.4,2.8-0.4,4.3c0.8,0.3,1.7,0.1,2.4-0.4c0.7,3-2.9,3.1-2.8,5.4c0.9-0.3,2.1-0.3,3.1-0.2c0.3,1.8-4.1,6-5.9,5.7
		c-0.1-1.6-0.3-5.6,1.6-5.1c-1.4-0.6-3.3-2-2.9-3.6c1.1-0.2,0.8-0.4,1.2-1.2c-2.3-0.2-4.8-3.6-1.3-3.1c-0.6-1.2-5-6.9-0.8-6.3
		c-1.5-2.7-3-5.6-2.8-8.9c-0.7,1.1-1.3,2.3-1.5,3.7c-0.2,1.3,0.6,3.6-1.4,3.1c0.1,1.1-0.2,2.1-1.2,2.4c0.6-0.2,1.4,0,2,0
		c0.2,2-1.7,2.1-2,3.2c-0.4,1.3,0.2,2.5,2.1,1.3c0.1,2.3-2.8,3-2.8,4.7c0.7-0.1,1.6,0.2,2.3,0.1c-0.3,1.7-2.1,2.5-3.7,2.9
		c-0.3-0.1-0.5-0.2-0.7-0.4c-1.2-1.4-2.4-3.2-2.8-5c1.4-0.1,2.7-0.5,4.1-0.5c-1.9-0.9-4.2-2.3-3.8-4.7c0.8,0,1.1-0.5,1.8-0.6
		c-0.7-1.9-2.2-3.7-3.4-5.4c0.9,0.2,1.9,0.3,2.8,0.2c-1-1.1-2.7-2.8-3.1-4.2c-0.7-2.3-0.1-5.5-0.5-7.9c0,4.8-0.9,6.2-4.9,9.4
		c0.8-0.1,1.6,0.1,2.4,0.1c-0.1,1.3-0.9,3.6,1.4,3.3c-0.3,1.2-1.2,2.7-2.8,2.7c-0.1,1.5,1.5,1.8,2.8,1.8c-0.4,1.5-1.9,1.8-2.8,2.9
		c0.8-0.3,1.5-0.1,2.3-0.2c-0.1,1.4-0.3,2.8-0.2,4.2c0.3-0.4,1-0.7,1.3-1.1c-0.2,2.4-4.2,3-4.3,4.7c-0.1,1.5,2.6,1.8,3.7,0.7
		c-0.2,0.8-0.8,8.3-3.6,5.7c-1.2-1.1,0.9-2.1,1-3.1c0.3-2.6-0.5-1.2-1.5-2.4c-0.6-0.6-1.8-0.3-1.6-1.5c0.3-1.6,1.7-0.1,2.6-0.7
		c1.4-1,0.7-3.2,0.4-4.7c-1.7,0.7-1.9-0.2-3-1c-0.6-0.4-1.3-0.2-1.7-1c-0.1-0.2-0.1-1.4-0.1-1.5c0.7,0.6,1.6,0.8,2.5,0.7
		c-1.7-2.8-3-6.8-3.6-9.9c0.4,2.8-5.3,7.6-1.7,9.1c-0.4,0.9-2.7,2-2.8,2.8c-0.2,1.7,1.8,0.9,2.8,0.3c0.2,1.8-1.8,3.4-1,5
		c0.7-0.4,1.5-0.8,1.9-1.5c-0.9,2-1,4.3-1.8,6.4c-1.5,0.2-3.5-0.3-3.6-1.8c0.9-0.2,1.8-0.4,2.7-0.7c-0.4-2-6.6-3.3-5.2-5.4
		c1,0.2,2,1,3,1.2c-3.7-2.8-3-6.8-3-2.8c-1.8-0.6-2.5-2.1-2.3-3.9c-0.7-0.1-1.1-0.7-1.8-0.8c-0.1-1.5,0-3.1-0.1-4.7
		c-0.6,1.7-0.9,5-2.3,6c0.5-0.1,1,0.1,1.5,0c-0.4,1.3-1.2,2.4-2.1,3.4c1,0.1,2-0.1,2.7,0c-0.4,1.5-1.1,2.9-2.6,3.7
		c0.9,0,1.9,0,2.8,0.1c0.2,4.7-3.5,2.1-5.8,2.3c-0.7-2.3,2.3-2.7,1.9-4.7c-0.9-0.4-1.8-0.6-2.8-0.6c0.2-0.2,0.4-0.9,0.8-1.2
		c-1.2-1-3-4.3,0.1-4.1c-1.1-1-3.1-1.9-3.1-3.2c-0.2,1.2-0.9,2.2-2.1,2.6c0.5,0.8,1.5,0.7,2.6,0.5c-0.5,1.3-1.6,2.2-3.1,2.5
		c0.6,0.6,1.4,1,2.3,1.2c0.2,1.5-0.9,2.9-2.2,3.7c1.2-0.1,1.9-0.5,3-0.7c0.3,1.4-1.4,4.3-3.1,4.4c-2,0.2-2.1-2.1-4.4-1.7
		c0.3-0.4,0.3-1.1,0.9-1.6c-1-0.7-2.7-2.8-2.7-3.9c1.1,0.9,2.3,0.7,3.8,0.7c-3-0.7-3.3-6.3,0.5-5.8c-3-2.4-2.5-4.8-3.5-7.9
		c0.1,1.7-0.9,6-3.2,5.8c0.7,0.4,1.7,0.6,2.6,0.5c0.2,1.7-0.7,4.3-2.8,4.5c0.5-0.1,1.2,0.1,1.7,0c0.4,1.7-0.6,2.6-1.1,3.8
		c-0.4,1-1.5,0.2-0.9,1.6c0.3,0.5,1.6,0,1.9-0.2c-0.2,1.4-0.3,4.4-2.5,3.9c-1.3-0.3-3.1-3.3-1.1-3.8c0.5-2.1-1.5-1.4-2.3-2.8
		c-1.4-2.4,0.8-0.9,1.4-2c1.7-2.8-4-3.2-3.2-6.3c1,0,2,0,3,0c-1.4-0.7-6.3-5.9-2.1-5.3c-1.4-2.9-3.5-5.7-3.1-9.4
		c-0.7,1.8,0.8,7.9-2.9,7.2c0.3,0.6,0.2,1.5,0.5,2.2c-0.3,0.1-0.7,0-1,0.1c0,1.2,1.3,1.2,2.5,1c-0.5,1.3-2.2,1.9-2.4,3.2
		c1,0.1,2.1,0,3.1,0.1c-0.4,1-0.5,2-1,2.8c-0.5-0.5-1.5-0.7-2-1.1c-0.4,0.4-0.4,0.4-0.4,1c5.2-0.3-1.7,4.1-2.1,5
		c2,0.1,3.6-0.8,5.4-0.7c0.1,1.9-2.5,2.8-3.6,3.9c0.9,0.3,1.9,0.4,2.8,0.3c-1.3,1.1-3.6,1.9-3.5,3.7c0.5-0.2,1.2,0,1.7-0.2
		c1.1,5.2-6-0.8-5.6-4c1.4-0.1,2.8,0.2,4.1-0.3c-1.8-2.8-5.1-5.9,0.7-4.8c-0.7-1.6-3.3-1.5-4.1-3.3c-0.9-2,1.5-3.2,3.3-4.4
		c-2,0-4.6,0.6-5.9-1c1.1-0.9,3.1-0.4,3.6-2c-1.4-0.1-5.1-3.9-5.7-5.4c0.5,0.1,1.2-0.1,1.7-0.1c-1-2-2.5-2.6-2.3-5.1
		c-0.6,2.6-0.6,4-3.3,5.3c0.8-0.3,1.8-0.4,2.5-0.2c-0.6,1.5-0.6,2-1.9,2.8c-0.1,0.1-0.3,0.1-0.4,0.1c-0.8-0.9-1.7-1.7-1.3-3.1
		c0.7,0.2,1.3,0,1.8,0c-2.2-2.7-2.7-5.1-2.7-8.6c0,0.8,0.1,2.5-0.5,3.5c-0.7,1.2-2.3,1.6-2.1,3.2c0.6-0.2,1.4-0.1,2-0.4
		c-0.8,1.7-3.3,2.6-3.6,3.9c1.3,0.1,2.6,0,3.9,0.1c-0.2,0.9-1,1.5-2,1.5c-0.6,1.1-1.3,2.1-1.3,3.4c1-0.4,1.7-0.7,2.6-0.4
		c-0.3,2.4-2.6,2.3-3.2,4.2c1.1,0.3,2.3,0.4,3.5,0.3c0.8,2.7-2.4,3.3-4.3,4.1c-0.1-0.7,0.6-2,0.5-2.6c-0.2-0.8-0.9-0.8-1.3-1.5
		c-0.7-1.3-1.4-2.7-2-4c1.3,0,2.7-0.1,3.9-0.5c-0.6-2.6-4.9-2.8-4.4-6.4c0.9,1,2.7,0.3,4,0.1c-0.6-1.1-3.2-3.1-3.1-4.5
		c0.1-1.5,2.4-1.9,4.1-2.4c-0.9-1.5-2.5-2.6-3.4-4.5c0.7,0,1.7-0.3,2.5-0.1c-2.3-2.3-2.9-5.6-2.7-8.7c0.2-2.6,1.7-4.5,2.1-7
		c-1.7,1.6-3.6,4.4-4.3,6.8c-0.4,1.2-0.1,4.6-1.9,4.3c0.4,0.2,0.4,0.5,1,0.7c-0.3,2.9-4,1.9-4.7,4.2c1.9,0.3,2.7-1.9,4.6-0.4
		c0.1,1.6,0.6,3.9-1.8,3.5c-0.1,0.2-0.1,0.4,0,0.6c0.4,0,1,0.1,1.4,0.1c-1.5,2.9-4.2,2.7-6.1,0.3c0,1.1-0.3,0.9,0.2,1.9
		c-0.4,0.1-1.2,0.5-1.6,0.6c1.8,0.9,3.7,0.9,5.8,1c0,0-1,1.5-1,1.4c0,0.2,0.1,1.4,0,1.6c-0.6,0.9-1,1.4-1.8,2.2
		c1.2-0.2,2.4-0.7,3.6-0.7c-0.4,1.6-0.5,3.7-3,2.7c-0.4,0.5-0.8,1.3-0.9,1.9c0.8-0.3,1.7-0.5,2.5-0.4c0.8,4.3-3.3,3-4.6,5.7
		c2.1,0.4,3.4-0.6,5.4-0.7c-0.4,1-0.2,2.5-0.8,3.4c-0.2,0.3-1.5-0.3-1.5,0.1c-0.2,0.7,0.4,0.7,0.4,1.1c-0.1,0.7,1.5,1.8,0.5,2.9
		c-1,1-1.9,0-2-1c-0.6,0.9-1.7,1.3-2.8,1.1c-0.4-1.7,0.3-2.3-0.3-3.5c-0.2-0.4-1.4,0.3-1.6-0.7c-0.1-0.4,1.7-1.2,2.1-1.3
		c-2.3-0.1-4.4,0-3.3-2.3c0.8-1.7,3.3-1.7,4.4-3.1c-1.1-0.1-3.9,0.4-4.7-0.3c-1.7-1.6,1.6-2,1.8-3.2c-2-0.4-4-0.9-2.5-3.2
		c0.4,0,1-0.2,1.2-0.2c-1.2-0.9-1.8-2.1-1.5-3.5c0.8,0.1,1.8-0.1,2.5-0.1c-1.1-2-2.2-2.8-2.7-5c-0.3-1.1-0.6-2.3-0.8-3.5
		c0,1.7-0.9,3.5-2.2,4c0.1,0,0.7,0.3,1.1,0.3c0.3,2.3-1.6,3.7-3.2,4.7c0.1,0,0.9,0.3,1.2,0.3c0,1-0.4,2-0.7,2.9
		c-1.3,0.1-2.8,0.7-2.8,2c1.2,0.1,2.4,0,3.6,0.1c-0.3,1.7-0.4,4-2.1,4.1c0.7,0.3,1.3,0.5,2.4,0.2c-0.3,1.4-2.3,3.2-3.8,3.7
		c0.9,0,1.9,0,2.8,0.1c0.1,2.9-2.8,1.9-3.4,3.9c1.4,0.2,3,0.1,4.4,0.1c-0.7,0.7-1.7,1.3-1.8,2.4c0.8-0.4,1.2-0.3,2-0.4
		c-0.8,1-2.3,1.6-2.6,2.9c1.5,0.1,1.9,1.2,1.5,2.6c-1,0-2,0-3,0c0.1-0.3-0.2-1-0.1-1.4c-0.8,0.3-1.7,0.2-2.6,0.1
		c-0.1-0.4-0.1-1,0-1.4c0.7-0.3,0.7-0.7,1-1c-1.3,0-2.7-1-2.5-2.3c1.2-0.3,2.5-0.4,3.4-1c-1.1-1.1-2.1-2.2-2.9-3.5
		c1.1-1.6,2.5-2.1,4.4-2.6c-0.8-0.2-3.1-1.8-3.3-2.7c-0.6-2.1,1-1.6,2.5-2.4c-1.5-0.4-3.1-1.8-3.3-3.3c1-0.3,2.3-0.4,3.1-0.7
		c-1.8,0.1-3.1-1.7-2.8-3.3c0.4,0,0.9-0.1,1.2-0.1c-1.2-2.3-1.8-3.9-1.9-6.7c-1.8,1.5-0.5,6.4-4.4,5.5c0,0.3,0,0.6,0,1
		c0.9-0.1,1.7-0.3,2.5-0.4c0.8,2.8-1.2,2.3-2.6,3.7c1.1,0.9,2.8,0,3.7,1.2c-1.2,0.3-2.1,0.9-2,2c0.5-0.2,1-0.1,1.5-0.2
		c0.2,0.9,0.1,1.9-0.5,2.4c-1.4-2.2-2.7,0.5-2.3,2c0.4-0.3,1.4-0.4,1.8-0.7c-0.9,0.6-2.6,3.5,0,3.5c-0.3,1.2-0.5,2.3-1.3,3.3
		c-1-0.4-1.1-2.2-1.2-3.1c-0.1-0.7-0.9-0.3-0.8-1.3c0.1-0.5,1-0.6,1-0.7c0.3-1.8,1-0.8-0.7-2.5c-0.7-0.7-1.7-0.8-2.1-1.9
		c0.9-0.3,1.8-0.4,2.8-0.3c-0.4-1.2-1.7-1.8-2.1-3.1c0.7,0.4,1.1,0.2,1.8,0.3c0-1.5-0.8-2.6-1.3-3.9c-0.4-1.1-0.3-2.7-0.9-3.7
		c0.4,2.6-2.2,4.7-3.7,6.4c0.3,0.1,0.6,0.3,1,0.3c0.2,1.8-2.1,2-1.5,3.9c0.4-0.1,1.4,0,1.7-0.1c-0.9,0.9-2.7,1-2.3,2.6
		c0.6-0.2,1.4-0.1,2-0.4c-1,1-2.9,1.9-1.5,3.4c0.6-0.2,1.4,0,2-0.2c-0.2,0.6-0.9,1.1-1,1.6c0-0.1-0.6,2-0.6,1.9
		c-0.1,0.3,0,0.9-0.2,1.3c-0.1,0.3-0.9,0.3-1.1,0.7c-0.3,0.8-0.8,1-0.7,1.9c0.6-0.1,1.4,0.2,1.9,0.1c0.2,1.9-2.5,4.5-4.3,4.7
		c-0.4-2.2,2-0.5,1.7-2.6c-1.7,0.1-2.8,0.5-3.6-1.4c0.6,0.5,1.2,0.4,1.8,0.6c0.1-0.5,0.1-1.4,0-1.9c-2.3,0.1-2.7-1.7-4.1-3.1
		c1.2,0.9,2.7,0.7,3.5-0.7c-3-2.9-5.9-2.8-6.7-7.6c-0.5,1.7,0.8,3.5,0.5,4.9c-0.3,1.3-2.2,2.3-3.4,3.3c1.1,0,2-0.2,3.1-0.3
		c0,2.3-1.9,4.3-3.7,4.9c2.1,0.2,4.3,0.4,5.2-1.9c-0.1,3.2-3.2,4.9-4.7,6.9c1.5,0.1,3.8,0.5,5-0.6c-0.1,1.6-1.5,2.2-1.8,3.6
		c-0.9,0-1.9,0.2-2.4,0.7c0.7-0.2,0.9-0.1,1.4-0.4c-0.1,0.2,0.1,0.7,0,0.9c-2.6,0.4,0.9,3.3,1.9,3.8c-1.9,0.1-3.1-0.5-4.2-1.7
		c0.4,0.1,0.9,0.1,1.3-0.2c0-0.3,0-0.6,0-0.9c-1.3-0.4-3-0.9-3.7-2.2c1,0.2,1.8,0,2.3-0.8c-2.5-1.6-3.4-1.8-3.9-3.8
		c0.4,0.6,1.2,0.9,2.1,0.7c-2.1-1.4-2.7-3.2-3.7-5.5c-1.4,3.2,0.6,4.4-3.1,6.7c1.3,0.1,2.8,0.3,3.9-0.4c-1,2.7-3,2.6-4.8,4.2
		c1.2,0.4,3.1,0.5,4.3-0.2c-0.8,2.1-2.7,3-3.9,4.7c0.8,0.1,1.6,0,2.4-0.2c-0.2,0.2-0.4,0.3-0.7,0.4c1.4,1.6-1.5,1.5-1.6,2.9
		c0.7-0.1,1.2,0,1.6,0.1c-1.2,0.8-2.9,0-4.4-0.4c1,1.5,2.5,2.4,4,3.1c-0.1,0.1-0.2,0.2-0.4,0.4c-2.4-0.2-4.7-0.9-4.5-3.9
		c1.3,0.1,2.2,1,3.2-0.1c-1.3-0.3-4.5,0.5-4.2-1.9c0.9,0,1.8,0.1,2.7,0.2c-1.5-1.2-3.3-2-4.3-3.4c1.1,0.3,2,0.7,3.1,0.7
		c-0.5-1.9-2.9-2.3-3.5-4.5c-0.5-1.9-0.1-4.3-1.2-6c-0.9,2.1,0.3,4.1,0.2,6.2c0,0.4-0.1,0.6-0.2,0.9c-0.6-1.5-0.9-3-0.8-4.7
		c-0.7,1.1-1.3,2.3-1.5,3.7c-0.2,1.3,0.6,3.6-1.4,3.1c0.1,1.1-0.2,2.1-1.2,2.4c0.6-0.2,1.4,0,2,0c0.2,2-1.7,2.1-2,3.2
		c-0.4,1.3,0.2,2.5,2.1,1.3c0.1,2.2-2.5,2.9-2.8,4.4c-1.3-0.4-2.3-1-2.4-2.5c0.5-0.1,1-0.1,1.5-0.1c-0.5-0.2-1-0.5-1.5-0.8
		c0-0.2,0-0.4,0.1-0.6c0.3,0,0.7-0.1,1.1-0.1c-1.2-0.4-1.5-2.4-2.1-3.8c0.1,0,0.2-0.1,0.3-0.1c-0.7-1.9-2.2-3.7-3.4-5.4
		c0.9,0.2,1.9,0.3,2.8,0.2c-1-1.1-2.7-2.8-3.1-4.2c-0.7-2.3-0.1-5.5-0.5-7.9c0,4.8-0.9,6.2-4.9,9.4c0.8-0.1,1.6,0.1,2.4,0.1
		c-0.1,1.3-0.9,3.6,1.4,3.3c-0.3,1.2-1.2,2.7-2.8,2.7c-0.1,1.5,1.5,1.8,2.8,1.8c-0.4,1.5-1.9,1.8-2.8,2.9c0.8-0.3,1.5-0.1,2.3-0.2
		c-0.1,1.4-0.3,2.8-0.2,4.2c0.3-0.4,1-0.7,1.3-1.1c-0.2,2.4-4.2,3-4.3,4.7c-0.1,1.5,2.6,1.8,3.7,0.7c-0.2,0.8-0.8,8.3-3.6,5.7
		c-1.2-1.1,0.9-2.1,1-3.1c0.3-2.6-0.5-1.2-1.5-2.4c-0.6-0.6-1.8-0.3-1.6-1.5c0.3-1.6,1.7-0.1,2.6-0.7c1.4-1,0.7-3.2,0.4-4.7
		c-1.7,0.7-1.9-0.2-3-1c-0.6-0.4-1.3-0.2-1.7-1c-0.1-0.2-0.1-1.4-0.1-1.5c0.7,0.6,1.6,0.8,2.5,0.7c-1.7-2.8-3-6.8-3.6-9.9
		c0.4,2.8-5.3,7.6-1.7,9.1c-0.4,0.9-2.7,2-2.8,2.8c-0.2,1.7,1.8,0.9,2.8,0.3c0.2,1.8-1.8,3.4-1,5c0.7-0.4,1.5-0.8,1.9-1.5
		c-0.9,2-1,4.3-1.8,6.4c-1.5,0.2-3.5-0.3-3.6-1.8c0.9-0.2,1.8-0.4,2.7-0.7c-0.4-2-6.6-3.3-5.2-5.4c1,0.2,2,1,3,1.2
		c-3.7-2.8-3-6.8-3-2.8c-1.8-0.6-2.5-2.1-2.3-3.9c-0.7-0.1-1.1-0.7-1.8-0.8c-0.1-1.5,0-3.1-0.1-4.7c-0.6,1.7-0.9,5-2.3,6
		c0.5-0.1,1,0.1,1.5,0c-0.4,1.3-1.2,2.4-2.1,3.4c1,0.1,2-0.1,2.7,0c-0.4,1.5-1.1,2.9-2.6,3.7c0.9,0,1.9,0,2.8,0.1
		c0.2,4.7-3.5,2.1-5.8,2.3c-0.7-2.3,2.3-2.7,1.9-4.7c-0.9-0.4-1.8-0.6-2.8-0.6c0.2-0.2,0.4-0.9,0.8-1.2c-1.2-1-3-4.3,0.1-4.1
		c-1.1-1-3.1-1.9-3.1-3.2c-0.2,1.2-0.9,2.2-2.1,2.6c0.5,0.8,1.5,0.7,2.6,0.5c-0.5,1.3-1.6,2.2-3.1,2.5c0.6,0.6,1.4,1,2.3,1.2
		c0.2,1.5-0.9,2.9-2.2,3.7c1.2-0.1,1.9-0.5,3-0.7c0.3,1.4-1.4,4.3-3.1,4.4c-2,0.2-2.1-2.1-4.4-1.7c0.3-0.4,0.3-1.1,0.9-1.6
		c-1-0.7-2.7-2.8-2.7-3.9c1.1,0.9,2.3,0.7,3.8,0.7c-3-0.7-3.3-6.3,0.5-5.8c-3-2.4-2.5-4.8-3.5-7.9c0.1,1.7-0.9,6-3.2,5.8
		c0.7,0.4,1.7,0.6,2.6,0.5c0.2,1.7-0.7,4.3-2.8,4.5c0.5-0.1,1.2,0.1,1.7,0c0.4,1.7-0.6,2.6-1.1,3.8c-0.4,1-1.5,0.2-0.9,1.6
		c0.3,0.5,1.6,0,1.9-0.2c-0.2,1.4-0.3,4.4-2.5,3.9c-1.3-0.3-3.1-3.3-1.1-3.8c0.5-2.1-1.5-1.4-2.3-2.8c-1.4-2.4,0.8-0.9,1.4-2
		c1.7-2.8-4-3.2-3.2-6.3c1,0,2,0,3,0c-1.4-0.7-6.3-5.9-2.1-5.3c-1.4-2.9-3.5-5.7-3.1-9.4c-0.7,1.8,0.8,7.9-2.9,7.2
		c0.3,0.6,0.2,1.5,0.5,2.2c-0.3,0.1-0.7,0-1,0.1c0,1.2,1.3,1.2,2.5,1c-0.5,1.3-2.2,1.9-2.4,3.2c1,0.1,2.1,0,3.1,0.1
		c-0.4,1-0.5,2-1,2.8c-0.5-0.5-1.5-0.7-2-1.1c-0.4,0.4-0.4,0.4-0.4,1c5.2-0.3-1.7,4.1-2.1,5c2,0.1,3.6-0.8,5.4-0.7
		c0.1,1.9-2.5,2.8-3.6,3.9c0.9,0.3,1.9,0.4,2.8,0.3c-1.3,1.1-3.6,1.9-3.5,3.7c0.5-0.2,1.2,0,1.7-0.2c1.1,5.2-6-0.8-5.6-4
		c1.4-0.1,2.8,0.2,4.1-0.3c-1.8-2.8-5.1-5.9,0.7-4.8c-0.7-1.6-3.3-1.5-4.1-3.3c-0.9-2,1.5-3.2,3.3-4.4c-2,0-4.6,0.6-5.9-1
		c1.1-0.9,3.1-0.4,3.6-2c-1.4-0.1-5.1-3.9-5.7-5.4c0.5,0.1,1.2-0.1,1.7-0.1c-1-2-2.5-2.6-2.3-5.1c-0.6,2.6-0.6,4-3.3,5.3
		c0.8-0.3,1.8-0.4,2.5-0.2c-0.6,1.5-0.6,2-1.9,2.8c-0.1,0.1-0.3,0.1-0.4,0.1c-0.8-0.9-1.7-1.7-1.3-3.1c0.7,0.2,1.3,0,1.8,0
		c-2.2-2.7-2.7-5.1-2.7-8.6c0,0.8,0.1,2.5-0.5,3.5c-0.7,1.2-2.3,1.6-2.1,3.2c0.6-0.2,1.4-0.1,2-0.4c-0.8,1.7-3.3,2.6-3.6,3.9
		c1.3,0.1,2.6,0,3.9,0.1c-0.2,0.9-1,1.5-2,1.5c-0.6,1.1-1.3,2.1-1.3,3.4c1-0.4,1.7-0.7,2.6-0.4c-0.3,2.4-2.6,2.3-3.2,4.2
		c1.1,0.3,2.3,0.4,3.5,0.3c0.8,2.7-2.4,3.3-4.3,4.1c-0.1-0.7,0.6-2,0.5-2.6c-0.2-0.8-0.9-0.8-1.3-1.5c-0.7-1.3-1.4-2.7-2-4
		c1.3,0,2.7-0.1,3.9-0.5c-0.6-2.6-4.9-2.8-4.4-6.4c0.9,1,2.7,0.3,4,0.1c-0.6-1.1-3.2-3.1-3.1-4.5c0.1-1.5,2.4-1.9,4.1-2.4
		c-0.9-1.5-2.5-2.6-3.4-4.5c0.7,0,1.7-0.3,2.5-0.1c-2.3-2.3-2.9-5.6-2.7-8.7c0.2-2.6,1.7-4.5,2.1-7c-1.7,1.6-3.6,4.4-4.3,6.8
		c-0.4,1.2-0.1,4.6-1.9,4.3c0.4,0.2,0.4,0.5,1,0.7c-0.3,2.9-4,1.9-4.7,4.2c1.9,0.3,2.7-1.9,4.6-0.4c0.1,1.6,0.6,3.9-1.8,3.5
		c-0.1,0.2-0.1,0.4,0,0.6c0.4,0,1,0.1,1.4,0.1c-1.5,2.9-4.2,2.7-6.1,0.3c0,1.1-0.3,0.9,0.2,1.9c-0.4,0.1-1.2,0.5-1.6,0.6
		c1.8,0.9,3.7,0.9,5.8,1c0,0-1,1.5-1,1.4c0,0.2,0.1,1.4,0,1.6c-0.6,0.9-1,1.4-1.8,2.2c1.2-0.2,2.4-0.7,3.6-0.7
		c-0.4,1.6-0.5,3.7-3,2.7c-0.4,0.5-0.8,1.3-0.9,1.9c0.8-0.3,1.7-0.5,2.5-0.4c0.8,4.3-3.3,3-4.6,5.7c2.1,0.4,3.4-0.6,5.4-0.7
		c-0.4,1-0.2,2.5-0.8,3.4c-0.2,0.3-1.5-0.3-1.5,0.1c-0.2,0.7,0.4,0.7,0.4,1.1c-0.1,0.7,1.5,1.8,0.5,2.9c-1,1-1.9,0-2-1
		c-0.6,0.9-1.7,1.3-2.8,1.1c-0.4-1.7,0.3-2.3-0.3-3.5c-0.2-0.4-1.4,0.3-1.6-0.7c-0.1-0.4,1.7-1.2,2.1-1.3c-2.3-0.1-4.4,0-3.3-2.3
		c0.8-1.7,3.3-1.7,4.4-3.1c-1.1-0.1-3.9,0.4-4.7-0.3c-1.7-1.6,1.6-2,1.8-3.2c-2-0.4-4-0.9-2.5-3.2c0.4,0,1-0.2,1.2-0.2
		c-1.2-0.9-1.8-2.1-1.5-3.5c0.8,0.1,1.8-0.1,2.5-0.1c-1.1-2-2.2-2.8-2.7-5c-0.3-1.1-0.6-2.3-0.8-3.5c0,1.7-0.9,3.5-2.2,4
		c0.1,0,0.7,0.3,1.1,0.3c0.3,2.3-1.6,3.7-3.2,4.7c0.1,0,0.9,0.3,1.2,0.3c0,1-0.4,2-0.7,2.9c-1.3,0.1-2.8,0.7-2.8,2
		c1.2,0.1,2.4,0,3.6,0.1c-0.3,1.7-0.4,4-2.1,4.1c0.7,0.3,1.3,0.5,2.4,0.2c-0.3,1.4-2.3,3.2-3.8,3.7c0.9,0,1.9,0,2.8,0.1
		c0.1,2.9-2.8,1.9-3.4,3.9c1.4,0.2,3,0.1,4.4,0.1c-0.7,0.7-1.7,1.3-1.8,2.4c0.8-0.4,1.2-0.3,2-0.4c-0.8,1-2.3,1.6-2.6,2.9
		c1.5,0.1,1.9,1.2,1.5,2.6c-1,0-2,0-3,0c0.1-0.3-0.2-1-0.1-1.4c-0.8,0.3-1.7,0.2-2.6,0.1c-0.1-0.4-0.1-1,0-1.4c0.7-0.3,0.7-0.7,1-1
		c-1.3,0-2.7-1-2.5-2.3c1.2-0.3,2.5-0.4,3.4-1c-1.1-1.1-2.1-2.2-2.9-3.5c1.1-1.6,2.5-2.1,4.4-2.6c-0.8-0.2-3.1-1.8-3.3-2.7
		c-0.6-2.1,1-1.6,2.5-2.4c-1.5-0.4-3.1-1.8-3.3-3.3c1-0.3,2.3-0.4,3.1-0.7c-1.8,0.1-3.1-1.7-2.8-3.3c0.4,0,0.9-0.1,1.2-0.1
		c-1.2-2.3-1.8-3.9-1.9-6.7c-1.8,1.5-0.5,6.4-4.4,5.5c0,0.3,0,0.6,0,1c0.9-0.1,1.7-0.3,2.5-0.4c0.8,2.8-1.2,2.3-2.6,3.7
		c1.1,0.9,2.8,0,3.7,1.2c-1.2,0.3-2.1,0.9-2,2c0.5-0.2,1-0.1,1.5-0.2c0.2,0.9,0.1,1.9-0.5,2.4c-1.4-2.2-2.7,0.5-2.3,2
		c0.4-0.3,1.4-0.4,1.8-0.7c-0.9,0.6-2.6,3.5,0,3.5c-0.3,1.2-0.5,2.3-1.3,3.3c-1-0.4-1.1-2.2-1.2-3.1c-0.1-0.7-0.9-0.3-0.8-1.3
		c0.1-0.5,1-0.6,1-0.7c0.3-1.8,1-0.8-0.7-2.5c-0.7-0.7-1.7-0.8-2.1-1.9c0.9-0.3,1.8-0.4,2.8-0.3c-0.4-1.2-1.7-1.8-2.1-3.1
		c0.7,0.4,1.1,0.2,1.8,0.3c0-1.5-0.8-2.6-1.3-3.9c-0.4-1.1-0.3-2.7-0.9-3.7c0.4,2.6-2.2,4.7-3.7,6.4c0.3,0.1,0.6,0.3,1,0.3
		c0.2,1.8-2.1,2-1.5,3.9c0.4-0.1,1.4,0,1.7-0.1c-0.9,0.9-2.7,1-2.3,2.6c0.6-0.2,1.4-0.1,2-0.4c-1,1-2.9,1.9-1.5,3.4
		c0.6-0.2,1.4,0,2-0.2c-0.2,0.6-0.9,1.1-1,1.6c0-0.1-0.6,2-0.6,1.9c-0.1,0.3,0,0.9-0.2,1.3c-0.1,0.3-0.9,0.3-1.1,0.7
		c-0.3,0.8-0.8,1-0.7,1.9c0.6-0.1,1.4,0.2,1.9,0.1c0.2,1.9-2.5,4.5-4.3,4.7c-0.4-2.2,2-0.5,1.7-2.6c-1.7,0.1-2.8,0.5-3.6-1.4
		c0.6,0.5,1.2,0.4,1.8,0.6c0.1-0.5,0.1-1.4,0-1.9c-2.3,0.1-2.7-1.7-4.1-3.1c1.2,0.9,2.7,0.7,3.5-0.7c-3-2.9-5.9-2.8-6.7-7.6
		c-0.5,1.7,0.8,3.5,0.5,4.9c-0.3,1.3-2.2,2.3-3.4,3.3c1.1,0,2-0.2,3.1-0.3c0,2.3-1.9,4.3-3.7,4.9c2.1,0.2,4.3,0.4,5.2-1.9
		c-0.1,3.2-3.2,4.9-4.7,6.9c1.5,0.1,3.8,0.5,5-0.6c-0.1,1.6-1.5,2.2-1.8,3.6c-0.9,0-1.9,0.2-2.4,0.7c0.7-0.2,0.9-0.1,1.4-0.4
		c-0.1,0.2,0.1,0.7,0,0.9c-2.6,0.4,0.9,3.3,1.9,3.8c-1.9,0.1-3.1-0.5-4.2-1.7c0.4,0.1,0.9,0.1,1.3-0.2c0-0.3,0-0.6,0-0.9
		c-1.3-0.4-3-0.9-3.7-2.2c1,0.2,1.8,0,2.3-0.8c-2.5-1.6-3.4-1.8-3.9-3.8c0.4,0.6,1.2,0.9,2.1,0.7c-2.1-1.4-2.7-3.2-3.7-5.5
		c-1.4,3.2,0.6,4.4-3.1,6.7c1.3,0.1,2.8,0.3,3.9-0.4c-1,2.7-3,2.6-4.8,4.2c1.2,0.4,3.1,0.5,4.3-0.2c-0.8,2.1-2.7,3-3.9,4.7
		c1.6,0.2,3.3-0.4,4.6-1.3c0,1.4-1.8,3.2-3.1,3.8c0.3,0,0.6,0,0.9,0c-1.2,1.7-3.2,0.7-5,0.2c1.2,1.9,3.1,2.7,5,3.5
		c-2.9,0-6-0.4-5.9-4c1.3,0.1,2.2,1,3.2-0.1c-1.3-0.3-4.5,0.5-4.2-1.9c0.9,0,1.8,0.1,2.7,0.2c-1.5-1.2-3.3-2-4.3-3.4
		c1.1,0.3,2,0.7,3.1,0.7c-0.5-1.9-2.9-2.3-3.5-4.5c-0.5-1.9-0.1-4.3-1.2-6c-0.9,2.1,0.3,4.1,0.2,6.2c-0.1,2.6-2.4,2.4-2.7,4.7
		c1.1,0.1,1.9-0.4,3-0.4c-1,1.3-2.4,2.5-3.9,3c0.2,0.2,0.5,0.4,0.8,0.5c-0.5,1.5-0.1,3.8-1.4,5c0,0,0.7-0.7,1-1
		c0.3,2-0.3,3.8-1.5,4.9c0.3,0,0.7,0,1,0.1c0,0.4,0,0.7-0.1,1.1c-1.2-0.7-2.3-2-3.2-3.1c0.9,0,1.9,0,2.8,0c-2.4-0.7-4.6-1-3.9-4.5
		c0.3,0,0.7-0.1,1.1-0.1c-1.5-0.6-1.6-3.8-2.8-4.9c-0.9,1.2,0.4,2.2-0.1,3.4c-0.5,1.4-2.1,1.5-2.5,3c1.3,0,2.6-0.5,3.7-0.9
		c-0.1,3.3-2.8,3.1-3.7,5.4c1.1,0.3,2.3,0.5,3.3-0.1c-0.6,1.6-2,2.7-2.4,4.1c0.3,0,0.6,0.1,0.9,0.1c0.1,0.9-0.1,1.8-0.5,2.6
		c-0.4,0-0.7,0-1.1,0.1c-0.7-1.1-1.6-2.5,0.5-2.5c-0.7-1.4-1.8-2.4-2.3-4c-0.5-1.4-0.7-3-1.3-4.4c0,1.9,0.3,3.9,0.3,5.7
		c0,0.9,0,1-0.2,2c-0.2,0.9-1.1,1.3-0.3,2.5c0.3-0.3,1.1-0.8,1.1-0.8c0.4,3.1-2.6,3.5-1.9,0.6c-0.4,0-1.1-0.2-1.5-0.1
		c1.2-3,0.2-3.4-1.4-6.4c0.6,0.1,1.4-0.2,2.1-0.1c-1-2.1-1.6-6.7-3-8.4c-0.3,1.6,0.3,3.7-1.1,4.9c0.4-0.1,0.8-0.1,1.2-0.2
		c0.6,2-1.1,3.7-2.8,4.4c0.8-0.3,1.5-0.1,2.4-0.1c-1.2,0.7-1.9,1.7-1.8,3.1c1.1,0.2,2.1-0.4,3.1-0.7c-1.5,6.3-8.4-0.2-4.2-1.7
		c-2.2,0.3-8.2-5.6-1.1-4.3c0-0.1,0-0.6,0-0.7c-1-0.5-6.4-3-2.9-3.8c0,0,0-0.7,0-0.7c-1.6-0.3-2.3-3.7-0.5-3.8
		c-1.5-1.2-1.9-4.3-3.3-5.2c-0.2,1.3,0,3.1-1.6,3.5c1.4,1.6-1.5,1.5-1.6,2.9c4.9-0.3,1.4,2.8-0.4,4.3c0.8,0.3,1.7,0.1,2.4-0.4
		c0.7,3-2.9,3.1-2.8,5.4c0.9-0.3,2.1-0.3,3.1-0.2c0.3,1.8-4.1,6-5.9,5.7c-0.1-1.6-0.3-5.6,1.6-5.1c-1.4-0.6-3.3-2-2.9-3.6
		c1.1-0.2,0.8-0.4,1.2-1.2c-2.3-0.2-4.8-3.6-1.3-3.1c-0.6-1.2-5-6.9-0.8-6.3c-1.5-2.7-3-5.6-2.8-8.9c-0.7,1.1-1.3,2.3-1.5,3.7
		c-0.2,1.3,0.6,3.6-1.4,3.1c0.1,1.1-0.2,2.1-1.2,2.4c0.6-0.2,1.4,0,2,0c0.2,2-1.7,2.1-2,3.2c-0.4,1.3,0.2,2.5,2.1,1.3
		c0.1,2.3-2.8,3-2.8,4.7c0.7-0.1,1.6,0.2,2.3,0.1c-0.3,1.7-2.1,2.5-3.7,2.9c-0.3-0.1-0.5-0.2-0.7-0.4c-1.2-1.4-2.4-3.2-2.8-5
		c1.4-0.1,2.7-0.5,4.1-0.5c-1.9-0.9-4.2-2.3-3.8-4.7c0.8,0,1.1-0.5,1.8-0.6c-0.7-1.9-2.2-3.7-3.4-5.4c0.9,0.2,1.9,0.3,2.8,0.2
		c-1-1.1-2.7-2.8-3.1-4.2c-0.7-2.3-0.1-5.5-0.5-7.9c0,4.8-0.9,6.2-4.9,9.4c0.8-0.1,1.6,0.1,2.4,0.1c-0.1,1.3-0.9,3.6,1.4,3.3
		c-0.3,1.2-1.2,2.7-2.8,2.7c-0.1,1.5,1.5,1.8,2.8,1.8c-0.4,1.5-1.9,1.8-2.8,2.9c0.8-0.3,1.5-0.1,2.3-0.2c-0.1,1.4-0.3,2.8-0.2,4.2
		c0.3-0.4,1-0.7,1.3-1.1c-0.2,2.4-4.2,3-4.3,4.7c-0.1,1.5,2.6,1.8,3.7,0.7c-0.2,0.8-0.8,8.3-3.6,5.7c-1.2-1.1,0.9-2.1,1-3.1
		c0.3-2.6-0.5-1.2-1.5-2.4c-0.6-0.6-1.8-0.3-1.6-1.5c0.3-1.6,1.7-0.1,2.6-0.7c1.4-1,0.7-3.2,0.4-4.7c-1.7,0.7-1.9-0.2-3-1
		c-0.6-0.4-1.3-0.2-1.7-1c-0.1-0.2-0.1-1.4-0.1-1.5c0.7,0.6,1.6,0.8,2.5,0.7c-1.7-2.8-3-6.8-3.6-9.9c0.4,2.8-5.3,7.6-1.7,9.1
		c-0.4,0.9-2.7,2-2.8,2.8c-0.2,1.7,1.8,0.9,2.8,0.3c0.2,1.8-1.8,3.4-1,5c0.7-0.4,1.5-0.8,1.9-1.5c-0.9,2-1,4.3-1.8,6.4
		c-1.5,0.2-3.5-0.3-3.6-1.8c0.9-0.2,1.8-0.4,2.7-0.7c-0.4-2-6.6-3.3-5.2-5.4c1,0.2,2,1,3,1.2c-3.7-2.8-3-6.8-3-2.8
		c-1.8-0.6-2.5-2.1-2.3-3.9c-0.7-0.1-1.1-0.7-1.8-0.8c-0.1-1.5,0-3.1-0.1-4.7c-0.6,1.7-0.9,5-2.3,6c0.5-0.1,1,0.1,1.5,0
		c-0.4,1.3-1.2,2.4-2.1,3.4c1,0.1,2-0.1,2.7,0c-0.4,1.5-1.1,2.9-2.6,3.7c0.9,0,1.9,0,2.8,0.1c0.2,4.7-3.5,2.1-5.8,2.3
		c-0.7-2.3,2.3-2.7,1.9-4.7c-0.9-0.4-1.8-0.6-2.8-0.6c0.2-0.2,0.4-0.9,0.8-1.2c-1.2-1-3-4.3,0.1-4.1c-1.1-1-3.1-1.9-3.1-3.2
		c-0.2,1.2-0.9,2.2-2.1,2.6c0.5,0.8,1.5,0.7,2.6,0.5c-0.5,1.3-1.6,2.2-3.1,2.5c0.6,0.6,1.4,1,2.3,1.2c0.2,1.5-0.9,2.9-2.2,3.7
		c1.2-0.1,1.9-0.5,3-0.7c0.3,1.4-1.4,4.3-3.1,4.4c-2,0.2-2.1-2.1-4.4-1.7c0.3-0.4,0.3-1.1,0.9-1.6c-1-0.7-2.7-2.8-2.7-3.9
		c1.1,0.9,2.3,0.7,3.8,0.7c-3-0.7-3.3-6.3,0.5-5.8c-3-2.4-2.5-4.8-3.5-7.9c0.1,1.7-0.9,6-3.2,5.8c0.7,0.4,1.7,0.6,2.6,0.5
		c0.2,1.7-0.7,4.3-2.8,4.5c0.5-0.1,1.2,0.1,1.7,0c0.4,1.7-0.6,2.6-1.1,3.8c-0.4,1-1.5,0.2-0.9,1.6c0.3,0.5,1.6,0,1.9-0.2
		c-0.2,1.4-0.3,4.4-2.5,3.9c-1.3-0.3-3.1-3.3-1.1-3.8c0.5-2.1-1.5-1.4-2.3-2.8c-1.4-2.4,0.8-0.9,1.4-2c1.7-2.8-4-3.2-3.2-6.3
		c1,0,2,0,3,0c-1.4-0.7-6.3-5.9-2.1-5.3c-1.4-2.9-3.5-5.7-3.1-9.4c-0.7,1.8,0.8,7.9-2.9,7.2c0.3,0.6,0.2,1.5,0.5,2.2
		c-0.3,0.1-0.7,0-1,0.1c0,1.2,1.3,1.2,2.5,1c-0.5,1.3-2.2,1.9-2.4,3.2c1,0.1,2.1,0,3.1,0.1c-0.4,1-0.5,2-1,2.8
		c-0.5-0.5-1.5-0.7-2-1.1c-0.4,0.4-0.4,0.4-0.4,1c5.2-0.3-1.7,4.1-2.1,5c2,0.1,3.6-0.8,5.4-0.7c0.1,1.9-2.5,2.8-3.6,3.9
		c0.9,0.3,1.9,0.4,2.8,0.3c-1.3,1.1-3.6,1.9-3.5,3.7c0.5-0.2,1.2,0,1.7-0.2c1.1,5.2-6-0.8-5.6-4c1.4-0.1,2.8,0.2,4.1-0.3
		c-1.8-2.8-5.1-5.9,0.7-4.8c-0.7-1.6-3.3-1.5-4.1-3.3c-0.9-2,1.5-3.2,3.3-4.4c-2,0-4.6,0.6-5.9-1c1.1-0.9,3.1-0.4,3.6-2
		c-1.4-0.1-5.1-3.9-5.7-5.4c0.5,0.1,1.2-0.1,1.7-0.1c-1-2-2.5-2.6-2.3-5.1c-0.6,2.6-0.6,4-3.3,5.3c0.8-0.3,1.8-0.4,2.5-0.2
		c-0.6,1.5-0.6,2-1.9,2.8c-0.1,0.1-0.3,0.1-0.4,0.1c-0.8-0.9-1.7-1.7-1.3-3.1c0.7,0.2,1.3,0,1.8,0c-2.2-2.7-2.7-5.1-2.7-8.6
		c0,0.8,0.1,2.5-0.5,3.5c-0.7,1.2-2.3,1.6-2.1,3.2c0.6-0.2,1.4-0.1,2-0.4c-0.8,1.7-3.3,2.6-3.6,3.9c1.3,0.1,2.6,0,3.9,0.1
		c-0.2,0.9-1,1.5-2,1.5c-0.6,1.1-1.3,2.1-1.3,3.4c1-0.4,1.7-0.7,2.6-0.4c-0.3,2.4-2.6,2.3-3.2,4.2c1.1,0.3,2.3,0.4,3.5,0.3
		c0.8,2.7-2.4,3.3-4.3,4.1c-0.1-0.7,0.6-2,0.5-2.6c-0.2-0.8-0.9-0.8-1.3-1.5c-0.7-1.3-1.4-2.7-2-4c1.3,0,2.7-0.1,3.9-0.5
		c-0.6-2.6-4.9-2.8-4.4-6.4c0.9,1,2.7,0.3,4,0.1c-0.6-1.1-3.2-3.1-3.1-4.5c0.1-1.5,2.4-1.9,4.1-2.4c-0.9-1.5-2.5-2.6-3.4-4.5
		c0.7,0,1.7-0.3,2.5-0.1c-2.3-2.3-2.9-5.6-2.7-8.7c0.2-2.6,1.7-4.5,2.1-7c-1.7,1.6-3.6,4.4-4.3,6.8c-0.4,1.2-0.1,4.6-1.9,4.3
		c0.4,0.2,0.4,0.5,1,0.7c-0.3,2.9-4,1.9-4.7,4.2c1.9,0.3,2.7-1.9,4.6-0.4c0.1,1.6,0.6,3.9-1.8,3.5c-0.1,0.2-0.1,0.4,0,0.6
		c0.4,0,1,0.1,1.4,0.1c-1.5,2.9-4.2,2.7-6.1,0.3c0,1.1-0.3,0.9,0.2,1.9c-0.4,0.1-1.2,0.5-1.6,0.6c1.8,0.9,3.7,0.9,5.8,1
		c0,0-1,1.5-1,1.4c0,0.2,0.1,1.4,0,1.6c-0.6,0.9-1,1.4-1.8,2.2c1.2-0.2,2.4-0.7,3.6-0.7c-0.4,1.6-0.5,3.7-3,2.7
		c-0.4,0.5-0.8,1.3-0.9,1.9c0.8-0.3,1.7-0.5,2.5-0.4c0.8,4.3-3.3,3-4.6,5.7c2.1,0.4,3.4-0.6,5.4-0.7c-0.4,1-0.2,2.5-0.8,3.4
		c-0.2,0.3-1.5-0.3-1.5,0.1c-0.2,0.7,0.4,0.7,0.4,1.1c-0.1,0.7,1.5,1.8,0.5,2.9c-1,1-1.9,0-2-1c-0.6,0.9-1.7,1.3-2.8,1.1
		c-0.4-1.7,0.3-2.3-0.3-3.5c-0.2-0.4-1.4,0.3-1.6-0.7c-0.1-0.4,1.7-1.2,2.1-1.3c-2.3-0.1-4.4,0-3.3-2.3c0.8-1.7,3.3-1.7,4.4-3.1
		c-1.1-0.1-3.9,0.4-4.7-0.3c-1.7-1.6,1.6-2,1.8-3.2c-2-0.4-4-0.9-2.5-3.2c0.4,0,1-0.2,1.2-0.2c-1.2-0.9-1.8-2.1-1.5-3.5
		c0.8,0.1,1.8-0.1,2.5-0.1c-1.1-2-2.2-2.8-2.7-5c-0.3-1.1-0.6-2.3-0.8-3.5c0,1.7-0.9,3.5-2.2,4c0.1,0,0.7,0.3,1.1,0.3
		c0.3,2.3-1.6,3.7-3.2,4.7c0.1,0,0.9,0.3,1.2,0.3c0,1-0.4,2-0.7,2.9c-1.3,0.1-2.8,0.7-2.8,2c1.2,0.1,2.4,0,3.6,0.1
		c-0.3,1.7-0.4,4-2.1,4.1c0.7,0.3,1.3,0.5,2.4,0.2c-0.3,1.4-2.3,3.2-3.8,3.7c0.9,0,1.9,0,2.8,0.1c0.1,2.9-2.8,1.9-3.4,3.9
		c1.4,0.2,3,0.1,4.4,0.1c-0.7,0.7-1.7,1.3-1.8,2.4c0.8-0.4,1.2-0.3,2-0.4c-0.8,1-2.3,1.6-2.6,2.9c1.5,0.1,1.9,1.2,1.5,2.6
		c-1,0-2,0-3,0c0.1-0.3-0.2-1-0.1-1.4c-0.8,0.3-1.7,0.2-2.6,0.1c-0.1-0.4-0.1-1,0-1.4c0.7-0.3,0.7-0.7,1-1c-1.3,0-2.7-1-2.5-2.3
		c1.2-0.3,2.5-0.4,3.4-1c-1.1-1.1-2.1-2.2-2.9-3.5c1.1-1.6,2.5-2.1,4.4-2.6c-0.8-0.2-3.1-1.8-3.3-2.7c-0.6-2.1,1-1.6,2.5-2.4
		c-1.5-0.4-3.1-1.8-3.3-3.3c1-0.3,2.3-0.4,3.1-0.7c-1.8,0.1-3.1-1.7-2.8-3.3c0.4,0,0.9-0.1,1.2-0.1c-1.2-2.3-1.8-3.9-1.9-6.7
		c-1.8,1.5-0.5,6.4-4.4,5.5c0,0.3,0,0.6,0,1c0.9-0.1,1.7-0.3,2.5-0.4c0.8,2.8-1.2,2.3-2.6,3.7c1.1,0.9,2.8,0,3.7,1.2
		c-1.2,0.3-2.1,0.9-2,2c0.5-0.2,1-0.1,1.5-0.2c0.2,0.9,0.1,1.9-0.5,2.4c-1.4-2.2-2.7,0.5-2.3,2c0.4-0.3,1.4-0.4,1.8-0.7
		c-0.9,0.6-2.6,3.5,0,3.5c-0.3,1.2-0.5,2.3-1.3,3.3c-1-0.4-1.1-2.2-1.2-3.1c-0.1-0.7-0.9-0.3-0.8-1.3c0.1-0.5,1-0.6,1-0.7
		c0.3-1.8,1-0.8-0.7-2.5c-0.7-0.7-1.7-0.8-2.1-1.9c0.9-0.3,1.8-0.4,2.8-0.3c-0.4-1.2-1.7-1.8-2.1-3.1c0.7,0.4,1.1,0.2,1.8,0.3
		c0-1.5-0.8-2.6-1.3-3.9c-0.4-1.1-0.3-2.7-0.9-3.7c0.4,2.6-2.2,4.7-3.7,6.4c0.3,0.1,0.6,0.3,1,0.3c0.2,1.8-2.1,2-1.5,3.9
		c0.4-0.1,1.4,0,1.7-0.1c-0.9,0.9-2.7,1-2.3,2.6c0.6-0.2,1.4-0.1,2-0.4c-1,1-2.9,1.9-1.5,3.4c0.6-0.2,1.4,0,2-0.2
		c-0.2,0.6-0.9,1.1-1,1.6c0-0.1-0.6,2-0.6,1.9c-0.1,0.3,0,0.9-0.2,1.3c-0.1,0.3-0.9,0.3-1.1,0.7c-0.3,0.8-0.8,1-0.7,1.9
		c0.6-0.1,1.4,0.2,1.9,0.1c0.2,1.9-2.5,4.5-4.3,4.7c-0.4-2.2,2-0.5,1.7-2.6c-1.7,0.1-2.8,0.5-3.6-1.4c0.6,0.5,1.2,0.4,1.8,0.6
		c0.1-0.5,0.1-1.4,0-1.9c-2.3,0.1-2.7-1.7-4.1-3.1c1.2,0.9,2.7,0.7,3.5-0.7c-3-2.9-5.9-2.8-6.7-7.6c-0.5,1.7,0.8,3.5,0.5,4.9
		c-0.3,1.3-2.2,2.3-3.4,3.3c1.1,0,2-0.2,3.1-0.3c0,2.3-1.9,4.3-3.7,4.9c2.1,0.2,4.3,0.4,5.2-1.9c-0.1,3.2-3.2,4.9-4.7,6.9
		c1.5,0.1,3.8,0.5,5-0.6c-0.1,1.6-1.5,2.2-1.8,3.6c-0.9,0-1.9,0.2-2.4,0.7c0.7-0.2,0.9-0.1,1.4-0.4c-0.1,0.2,0.1,0.7,0,0.9
		c-2.6,0.4,0.9,3.3,1.9,3.8c-1.9,0.1-3.1-0.5-4.2-1.7c0.4,0.1,0.9,0.1,1.3-0.2c0-0.3,0-0.6,0-0.9c-1.3-0.4-3-0.9-3.7-2.2
		c1,0.2,1.8,0,2.3-0.8c-2.5-1.6-3.4-1.8-3.9-3.8c0.4,0.6,1.2,0.9,2.1,0.7c-2.1-1.4-2.7-3.2-3.7-5.5c-1.4,3.2,0.6,4.4-3.1,6.7
		c1.3,0.1,2.8,0.3,3.9-0.4c-1,2.7-3,2.6-4.8,4.2c1.2,0.4,3.1,0.5,4.3-0.2c-0.8,2.1-2.7,3-3.9,4.7c1.6,0.2,3.3-0.4,4.6-1.3
		c0,1.4-1.8,3.2-3.1,3.8c0.3,0,0.6,0,0.9,0c-1.2,1.7-3.2,0.7-5,0.2c1.2,1.9,3.1,2.7,5,3.5c-0.7,0-1.3,0-2-0.1
		c-1.1-0.9-2.7-1.7-2.7-2.9c-0.1,0.5-0.3,1-0.6,1.4c-0.4-0.6-0.7-1.3-0.6-2.4c1.3,0.1,2.2,1,3.2-0.1c-1.3-0.3-4.5,0.5-4.2-1.9
		c0.9,0,1.8,0.1,2.7,0.2c-1.5-1.2-3.3-2-4.3-3.4c1.1,0.3,2,0.7,3.1,0.7c-0.5-1.9-2.9-2.3-3.5-4.5c-0.5-1.9-0.1-4.3-1.2-6
		c-0.9,2.1,0.3,4.1,0.2,6.2c-0.1,2.4-2.1,2.4-2.6,4.3c-0.1-0.2-0.1-0.4-0.2-0.5c0,0.8-0.2,2.2-0.6,3.5c-0.1,0-0.1,0.1-0.2,0.1
		c0,0,0.1,0.1,0.1,0.1c-0.5,1.2-1.3,2.2-2.5,2.1c0.7,0.4,1.7,0.6,2.6,0.5c0.2,1.6-0.5,3.8-2.3,4.3c-1.8-0.6-3.1-1.3-2.5-4.1
		c0.3,0,0.7-0.1,1.1-0.1c-1.5-0.6-1.6-3.8-2.8-4.9c-0.8,1,0.1,1.9,0,3c-1.8-1.4-5.1-5.4-1.4-4.9c-1.4-2.9-3.5-5.7-3.1-9.4
		c-0.7,1.8,0.8,7.9-2.9,7.2c0.3,0.6,0.2,1.5,0.5,2.2c-0.3,0.1-0.7,0-1,0.1c0,1.2,1.3,1.2,2.5,1c-0.5,1.3-2.2,1.9-2.4,3.2
		c1,0.1,2.1,0,3.1,0.1c-0.4,1-0.5,2-1,2.8c-0.5-0.5-1.5-0.7-2-1.1c-0.4,0.4-0.4,0.4-0.4,1c5.2-0.3-1.7,4.1-2.1,5
		c2,0.1,3.6-0.8,5.4-0.7c0.1,1.9-2.5,2.8-3.6,3.9c0.9,0.3,1.9,0.4,2.8,0.3c-1.3,1.1-3.6,1.9-3.5,3.7c0.5-0.2,1.2,0,1.7-0.2
		c1.1,5.2-6-0.8-5.6-4c1.4-0.1,2.8,0.2,4.1-0.3c-1.8-2.8-5.1-5.9,0.7-4.8c-0.7-1.6-3.3-1.5-4.1-3.3c-0.9-2,1.5-3.2,3.3-4.4
		c-2,0-4.6,0.6-5.9-1c1.1-0.9,3.1-0.4,3.6-2c-1.4-0.1-5.1-3.9-5.7-5.4c0.5,0.1,1.2-0.1,1.7-0.1c-1-2-2.5-2.6-2.3-5.1
		c-0.6,2.6-0.6,4-3.3,5.3c0.8-0.3,1.8-0.4,2.5-0.2c-0.6,1.5-0.6,2-1.9,2.8c-0.1,0.1-0.3,0.1-0.4,0.1c-0.8-0.9-1.7-1.7-1.3-3.1
		c0.7,0.2,1.3,0,1.8,0c-2.2-2.7-2.7-5.1-2.7-8.6c0,0.8,0.1,2.5-0.5,3.5c-0.7,1.2-2.3,1.6-2.1,3.2c0.6-0.2,1.4-0.1,2-0.4
		c-0.8,1.7-3.3,2.6-3.6,3.9c1.3,0.1,2.6,0,3.9,0.1c-0.2,0.9-1,1.5-2,1.5c-0.6,1.1-1.3,2.1-1.3,3.4c1-0.4,1.7-0.7,2.6-0.4
		c-0.3,2.4-2.6,2.3-3.2,4.2c1.1,0.3,2.3,0.4,3.5,0.3c0.8,2.7-2.4,3.3-4.3,4.1c-0.1-0.7,0.6-2,0.5-2.6c-0.2-0.8-0.9-0.8-1.3-1.5
		c-0.7-1.3-1.4-2.7-2-4c1.3,0,2.7-0.1,3.9-0.5c-0.6-2.6-4.9-2.8-4.4-6.4c0.9,1,2.7,0.3,4,0.1c-0.6-1.1-3.2-3.1-3.1-4.5
		c0.1-1.5,2.4-1.9,4.1-2.4c-0.9-1.5-2.5-2.6-3.4-4.5c0.7,0,1.7-0.3,2.5-0.1c-2.3-2.3-2.9-5.6-2.7-8.7c0.2-2.6,1.7-4.5,2.1-7
		c-1.7,1.6-3.6,4.4-4.3,6.8c-0.4,1.2-0.1,4.6-1.9,4.3c0.4,0.2,0.4,0.5,1,0.7c-0.3,2.9-4,1.9-4.7,4.2c1.9,0.3,2.7-1.9,4.6-0.4
		c0.1,1.6,0.6,3.9-1.8,3.5c-0.1,0.2-0.1,0.4,0,0.6c0.4,0,1,0.1,1.4,0.1c-1.5,2.9-4.2,2.7-6.1,0.3c0,1.1-0.3,0.9,0.2,1.9
		c-0.4,0.1-1.2,0.5-1.6,0.6c1.8,0.9,3.7,0.9,5.8,1c0,0-1,1.5-1,1.4c0,0.2,0.1,1.4,0,1.6c-0.6,0.9-1,1.4-1.8,2.2
		c1.2-0.2,2.4-0.7,3.6-0.7c-0.4,1.6-0.5,3.7-3,2.7c-0.4,0.5-0.8,1.3-0.9,1.9c0.8-0.3,1.7-0.5,2.5-0.4c0.8,4.3-3.3,3-4.6,5.7
		c2.1,0.4,3.4-0.6,5.4-0.7c-0.4,1-0.2,2.5-0.8,3.4c-0.2,0.3-1.5-0.3-1.5,0.1c-0.2,0.7,0.4,0.7,0.4,1.1c-0.1,0.7,1.5,1.8,0.5,2.9
		c-1,1-1.9,0-2-1c-0.6,0.9-1.7,1.3-2.8,1.1c-0.4-1.7,0.3-2.3-0.3-3.5c-0.2-0.4-1.4,0.3-1.6-0.7c-0.1-0.4,1.7-1.2,2.1-1.3
		c-2.3-0.1-4.4,0-3.3-2.3c0.8-1.7,3.3-1.7,4.4-3.1c-1.1-0.1-3.9,0.4-4.7-0.3c-1.7-1.6,1.6-2,1.8-3.2c-2-0.4-4-0.9-2.5-3.2
		c0.4,0,1-0.2,1.2-0.2c-1.2-0.9-1.8-2.1-1.5-3.5c0.8,0.1,1.8-0.1,2.5-0.1c-1.1-2-2.2-2.8-2.7-5c-0.3-1.1-0.6-2.3-0.8-3.5
		c0,1.7-0.9,3.5-2.2,4c0.1,0,0.7,0.3,1.1,0.3c0.3,2.3-1.6,3.7-3.2,4.7c0.1,0,0.9,0.3,1.2,0.3c0,1-0.4,2-0.7,2.9
		c-1.3,0.1-2.8,0.7-2.8,2c1.2,0.1,2.4,0,3.6,0.1c-0.3,1.7-0.4,4-2.1,4.1c0.7,0.3,1.3,0.5,2.4,0.2c-0.3,1.4-2.3,3.2-3.8,3.7
		c0.9,0,1.9,0,2.8,0.1c0.1,2.9-2.8,1.9-3.4,3.9c1.4,0.2,3,0.1,4.4,0.1c-0.7,0.7-1.7,1.3-1.8,2.4c0.8-0.4,1.2-0.3,2-0.4
		c-0.8,1-2.3,1.6-2.6,2.9c1.5,0.1,1.9,1.2,1.5,2.6c-1,0-2,0-3,0c0.1-0.3-0.2-1-0.1-1.4c-0.8,0.3-1.7,0.2-2.6,0.1
		c-0.1-0.4-0.1-1,0-1.4c0.7-0.3,0.7-0.7,1-1c-1.3,0-2.7-1-2.5-2.3c1.2-0.3,2.5-0.4,3.4-1c-1.1-1.1-2.1-2.2-2.9-3.5
		c1.1-1.6,2.5-2.1,4.4-2.6c-0.8-0.2-3.1-1.8-3.3-2.7c-0.6-2.1,1-1.6,2.5-2.4c-1.5-0.4-3.1-1.8-3.3-3.3c1-0.3,2.3-0.4,3.1-0.7
		c-1.8,0.1-3.1-1.7-2.8-3.3c0.4,0,0.9-0.1,1.2-0.1c-1.2-2.3-1.8-3.9-1.9-6.7c-1.8,1.5-0.5,6.4-4.4,5.5c0,0.3,0,0.6,0,1
		c0.9-0.1,1.7-0.3,2.5-0.4c0.8,2.8-1.2,2.3-2.6,3.7c1.1,0.9,2.8,0,3.7,1.2c-1.2,0.3-2.1,0.9-2,2c0.5-0.2,1-0.1,1.5-0.2
		c0.2,0.9,0.1,1.9-0.5,2.4c-1.4-2.2-2.7,0.5-2.3,2c0.4-0.3,1.4-0.4,1.8-0.7c-0.9,0.6-2.6,3.5,0,3.5c-0.3,1.2-0.5,2.3-1.3,3.3
		c-1-0.4-1.1-2.2-1.2-3.1c-0.1-0.7-0.9-0.3-0.8-1.3c0.1-0.5,1-0.6,1-0.7c0.3-1.8,1-0.8-0.7-2.5c-0.7-0.7-1.7-0.8-2.1-1.9
		c0.9-0.3,1.8-0.4,2.8-0.3c-0.4-1.2-1.7-1.8-2.1-3.1c0.7,0.4,1.1,0.2,1.8,0.3c0-1.5-0.8-2.6-1.3-3.9c-0.4-1.1-0.3-2.7-0.9-3.7
		c0.4,2.6-2.2,4.7-3.7,6.4c0.3,0.1,0.6,0.3,1,0.3c0.2,1.8-2.1,2-1.5,3.9c0.4-0.1,1.4,0,1.7-0.1c-0.9,0.9-2.7,1-2.3,2.6
		c0.6-0.2,1.4-0.1,2-0.4c-1,1-2.9,1.9-1.5,3.4c0.6-0.2,1.4,0,2-0.2c-0.2,0.6-0.9,1.1-1,1.6c0-0.1-0.6,2-0.6,1.9
		c-0.1,0.3,0,0.9-0.2,1.3c-0.1,0.3-0.9,0.3-1.1,0.7c-0.3,0.8-0.8,1-0.7,1.9c0.6-0.1,1.4,0.2,1.9,0.1c0.2,1.9-2.5,4.5-4.3,4.7
		c-0.4-2.2,2-0.5,1.7-2.6c-1.7,0.1-2.8,0.5-3.6-1.4c0.6,0.5,1.2,0.4,1.8,0.6c0.1-0.5,0.1-1.4,0-1.9c-2.3,0.1-2.7-1.7-4.1-3.1
		c1.2,0.9,2.7,0.7,3.5-0.7c-3-2.9-5.9-2.8-6.7-7.6c-0.5,1.7,0.8,3.5,0.5,4.9c-0.3,1.3-2.2,2.3-3.4,3.3c1.1,0,2-0.2,3.1-0.3
		c0,2.3-1.9,4.3-3.7,4.9c2.1,0.2,4.3,0.4,5.2-1.9c-0.1,3.2-3.2,4.9-4.7,6.9c1.5,0.1,3.8,0.5,5-0.6c-0.1,1.6-1.5,2.2-1.8,3.6
		c-0.9,0-1.9,0.2-2.4,0.7c0.7-0.2,0.9-0.1,1.4-0.4c-0.1,0.2,0.1,0.7,0,0.9c-2.6,0.4,0.9,3.3,1.9,3.8c-1.9,0.1-3.1-0.5-4.2-1.7
		c0.4,0.1,0.9,0.1,1.3-0.2c0-0.3,0-0.6,0-0.9c-1.3-0.4-3-0.9-3.7-2.2c1,0.2,1.8,0,2.3-0.8c-2.5-1.6-3.4-1.8-3.9-3.8
		c0.4,0.6,1.2,0.9,2.1,0.7c-2.1-1.4-2.7-3.2-3.7-5.5c-1.4,3.2,0.6,4.4-3.1,6.7c1.3,0.1,2.8,0.3,3.9-0.4c-1,2.7-3,2.6-4.8,4.2
		c1.2,0.4,3.1,0.5,4.3-0.2c-0.8,2.1-2.7,3-3.9,4.7c1.6,0.2,3.3-0.4,4.6-1.3c0,1.4-1.8,3.2-3.1,3.8c0.3,0,0.6,0,0.9,0
		c-1.2,1.7-3.2,0.7-5,0.2c1.2,1.9,3.1,2.7,5,3.5c-2.9,0-6-0.4-5.9-4c1.3,0.1,2.2,1,3.2-0.1c-1.3-0.3-4.5,0.5-4.2-1.9
		c0.9,0,1.8,0.1,2.7,0.2c-1.5-1.2-3.3-2-4.3-3.4c1.1,0.3,2,0.7,3.1,0.7c-0.5-1.9-2.9-2.3-3.5-4.5c-0.5-1.9-0.1-4.3-1.2-6
		c-0.9,2.1,0.3,4.1,0.2,6.2c-0.1,2.6-2.4,2.4-2.7,4.7c1.1,0.1,1.9-0.4,3-0.4c-1,1.3-2.4,2.5-3.9,3c1.2,1.2,3.3,0.8,4.6-0.2
		c0.3,1.6-2.8,3.9-3.9,5c1.1,0.5,2.2,0.7,3.4,0.7c-0.5,0.8-1.3,1.6-1.8,2.4c-0.5-0.1-1.1,0.2-1.4,0.3c0,0.3,0.3,1,0.5,1.2
		c0.9,0.1,1.9-0.6,2.7-0.9c-0.7,2-5,4-7.5,4.2c-0.2-0.4-0.4-0.7-0.7-1c1.4-1.2,2.8-0.9,4.6-0.7c-1.6-0.6-2.9-2.2-4-3.5
		c0.9,0,1.9,0,2.8,0c-2.4-0.7-4.6-1-3.9-4.5c0.3,0,0.7-0.1,1.1-0.1c-1.5-0.6-1.6-3.8-2.8-4.9c-0.9,1.2,0.4,2.2-0.1,3.4
		c-0.5,1.4-2.1,1.5-2.5,3c1.3,0,2.6-0.5,3.7-0.9c-0.1,3.3-2.8,3.1-3.7,5.4c1.1,0.3,2.3,0.5,3.3-0.1c-0.6,1.6-2,2.7-2.4,4.1
		c0.3,0,0.6,0.1,0.9,0.1c0.1,0.9-0.1,1.8-0.5,2.6c-0.9,0-2.1,0-2.9,0.6c0,0,0.4,0.2,0.6,0.3c-3.7,2.8-2.6,5.5-2.4,9.7
		c0.3,5.7-1.3,10.9-2,16.5c-0.9,7.7-1.2,16.4-0.4,24.2c10.7,0.6,21.4,1.4,32.2,1.5c4.5,0,9.1,0.1,13.5-0.5c3-0.4,4.8-0.9,5.8-2.4
		c1,0,2-0.1,2.6,0c3.4,0.5,6.7,0.5,10.2,0.5c9.4,0,18.5,1.3,27.8,0c2.4-0.3,4.9-0.5,7.3-0.5c4.6,0,9.8-0.9,14.3-0.2
		c7.4,1.1,14.8,0.9,22.3,1.8c12.8,1.5,25.7,4.2,38.6,5.2c5.3,0.4,10.7-0.3,16-0.3c4.9,0,9.1,1,13.8,1.8c6.4,1.1,13.3,0.7,19.8,0.1
		c6.3-0.6,12.7-1.8,19-1.9c0.2,0,0.4,0,0.6,0v-26.2c0.6,0.1,1.2,0.1,1.8,0.2c12.8,1.5,25.7,4.2,38.6,5.2c5.3,0.4,10.7-0.3,16-0.3
		c4.9,0,9.1,1,13.8,1.8c6.4,1.1,13.3,0.7,19.8,0.1c6.3-0.6,12.7-1.8,19-1.9c0.2,0,0.4,0,0.6,0v-13.1c1.1-0.1,2.3-0.2,3.4-0.3
		c3-0.4,4.8-0.9,5.8-2.4c1,0,2-0.1,2.6,0c3.4,0.5,6.7,0.5,10.2,0.5c9.4,0,18.5,1.3,27.8,0c2.4-0.3,4.9-0.5,7.3-0.5
		c4.6,0,9.8-0.9,14.3-0.2c7.4,1.1,14.8,0.9,22.3,1.8c12.8,1.5,25.7,4.2,38.6,5.2c5.3,0.4,10.7-0.3,16-0.3c4.9,0,9.1,1,13.8,1.8
		c6.4,1.1,13.3,0.7,19.8,0.1c6.3-0.6,12.7-1.8,19-1.9c0.2,0,0.4,0,0.6,0v-19.7c2.5-0.1,4.9-0.2,7.4-0.6c2.4-0.3,4.9-0.5,7.3-0.5
		c4.6,0,9.8-0.9,14.3-0.2c7.4,1.1,14.8,0.9,22.3,1.8c12.8,1.5,25.7,4.2,38.6,5.2c5.3,0.4,10.7-0.3,16-0.3c4.9,0,9.1,1,13.8,1.8
		c6.4,1.1,13.3,0.7,19.8,0.1c6.3-0.6,12.7-1.8,19-1.9c0.2,0,0.4,0,0.6,0v-48.1C750,512,749.5,512,748.9,512z M48.4,545.5
		c1.3,0.4,2.7,1,3.2,2.2C50.1,548.1,49.2,546.8,48.4,545.5z M137.4,510.9c-0.5,1-1.9,1.4-2.7,2.1c-0.4-0.6-0.7-1.3-0.9-1.9
		C135.1,510.8,136.4,510.2,137.4,510.9z M136,505.5c0.4,1.5-0.3,2.3-1.3,2.9c-1-0.6-2.1-1.3-2.4-2.2
		C133.6,506.2,134.5,505.2,136,505.5z M136,521.4c-0.6,0.4-1.2,0.4-1.8,0.5c0.7-0.9,1.3-2,1.3-2.7c-2.1,0-3.7-3-3.3-4.7
		c0.6,0,1.2,0,1.7,0c0,0.1,0,0.3,0.1,0.5c0.9-0.1,1.9-0.3,2.8-0.2c-0.5,1.8-1.3,2.4-2.8,3.5c1.2,0,2.4,0,3.6,0
		C137,519.8,137.2,520.6,136,521.4z M152.6,513c0.8,0,1.5,0,2.3,0c-0.4,1-1.2,1.3-1.9,1.9C152.6,514.4,152.3,513.8,152.6,513z
		 M154.8,521.8c-0.2-0.1-0.3-0.3-0.4-0.5c-0.1-0.2-0.2-0.4-0.3-0.5c0.5,0,1.1-0.1,1.6-0.4C155.4,520.8,155.1,521.3,154.8,521.8z
		 M155.4,517c-0.4-0.5-1.1-0.9-1.6-1.3c0.8-0.2,1.5-0.5,2.2-0.7C156,515.9,155.8,516.5,155.4,517z M165.1,508.5
		c-0.7,0.8-1.5,1.6-2.4,2.2c-0.1-0.6-0.2-1.2-0.4-1.8C163.3,508.9,164.1,508.5,165.1,508.5z M160.3,518.7c0,0.1,0,0.1,0,0.2
		c-0.3-0.1-0.6-0.2-0.9-0.3C159.8,518.7,160.1,518.7,160.3,518.7z M157.1,523.2c0.8-0.6,1.5-0.8,2.3-0.9c0,0.1-0.1,0.2-0.1,0.3
		c-0.4,1-1.4,0.3-0.9,1.5c-0.2,0-0.4,0.1-0.6,0.1C157.5,523.8,157.3,523.5,157.1,523.2z M159.9,526.5c-0.8-0.4-1.4-1.2-1.9-2.1
		c0.8,0.2,1.6,0.6,2.2,1C160.1,525.8,160,526.2,159.9,526.5z M159.9,521.3c-0.8-0.7-1.5-1.6-2.2-2.3c0.9,0,1.8,0,2.7,0
		C160.5,519.9,160.2,520.6,159.9,521.3z M162,522.8c-0.5-0.7-0.8-1.4-0.8-1.9c0.8,0.7,1.6,0.7,2.6,0.7
		C163.3,522.1,162.7,522.5,162,522.8z M164.2,521.4c-0.3-0.2-0.5-0.4-0.7-0.6c0.6-0.2,1.2-0.6,1.7-0.8
		C165.1,520.5,164.7,520.9,164.2,521.4z M163.5,519.4c-0.2,0-0.4,0-0.6,0.1c-0.3-1-0.2-2,0.3-2.8c0.7,0.2,1.3,0.2,2.1,0.3
		C164.8,517.8,164,518.6,163.5,519.4z M164,514.3c-0.5-0.7-0.8-1.4-1-2.1c1,0,2-0.4,2.7-1C165.9,512.2,165,513.3,164,514.3z
		 M246.9,489.8c-0.5,1-1.9,1.4-2.7,2.1c-0.4-0.6-0.7-1.3-0.9-1.9C244.6,489.7,245.9,489.1,246.9,489.8z M245.5,484.4
		c0.4,1.5-0.3,2.3-1.3,2.9c-1-0.6-2.1-1.3-2.4-2.2C243.1,485.1,244,484.1,245.5,484.4z M245.5,500.3c-0.6,0.4-1.2,0.4-1.8,0.5
		c0.7-0.9,1.3-2,1.3-2.7c-2.1,0-3.7-3-3.3-4.7c0.6,0,1.2,0,1.7,0c0,0.1,0,0.3,0.1,0.5c0.9-0.1,1.9-0.3,2.8-0.2
		c-0.5,1.8-1.3,2.4-2.8,3.5c1.2,0,2.4,0,3.6,0C246.5,498.7,246.8,499.5,245.5,500.3z M318.1,512.3c-1.4,0-2.3-1.1-3.4-1.7
		c0.5-0.8,2.4-0.9,2.6-1.5c0,0,0,0,0,0c0.7,0.2,1.7-0.1,2.4-0.7C319.2,509.7,318.3,510.8,318.1,512.3z M361.9,517.4
		c-0.9-0.1-1.6-0.8-2.2-1.6c-0.1-0.2-0.1-0.4-0.2-0.6c1,0.3,2,0.8,2.7,1.6C362.1,517,362,517.2,361.9,517.4z M361.8,514.2
		c-0.8,0.3-1.6,0.5-2.3,0.6c-0.2-0.4-0.3-0.8-0.5-1.3c1.1-0.7,2.1-0.6,3.3-0.5C362.1,513.5,362,513.9,361.8,514.2z M365.8,508.9
		c-0.2-0.4-0.4-0.7-0.6-1.1c-0.1-0.1-0.1-0.3-0.2-0.4c0.6,0.1,1.2,0.2,1.8,0.2C366.5,508.1,366.1,508.5,365.8,508.9z M364.4,506
		c-0.3-1-0.5-2.1-0.8-3.1c1.2,0.3,2.6-0.1,3.5-0.9C367.4,503.1,365.7,504.8,364.4,506z M448.3,480.4c-0.5,1-1.9,1.4-2.7,2.1
		c-0.4-0.6-0.7-1.3-0.9-1.9C446,480.4,447.3,479.8,448.3,480.4z M446.9,475.1c0.4,1.5-0.3,2.3-1.3,2.9c-1-0.6-2.1-1.3-2.4-2.2
		C444.5,475.7,445.4,474.8,446.9,475.1z M446.9,491c-0.6,0.4-1.2,0.4-1.8,0.5c0.7-0.9,1.3-2,1.3-2.7c-2.1,0-3.7-3-3.3-4.7
		c0.6,0,1.2,0,1.7,0c0,0.1,0,0.3,0.1,0.5c0.9-0.1,1.9-0.3,2.8-0.2c-0.5,1.8-1.3,2.4-2.8,3.5c1.2,0,2.4,0,3.6,0
		C448,489.3,448.2,490.1,446.9,491z M514.6,487.6c0.2,0,0.4,0,0.5-0.1c0.1,0.6,0.4,1.2,0.1,1.9c-0.1,0.1-0.1,0.3-0.2,0.4
		C514.7,489.1,514.5,488.4,514.6,487.6z M515,494.5c-0.3-0.6-0.5-1.1-0.6-1.7c0.7-0.1,1.3-0.2,2-0.3
		C516.1,493.4,515.5,494,515,494.5z M519.6,502.5c-0.5-0.4-0.9-1-1.2-1.6c0.5,0.2,1.1,0.4,1.6,0.6
		C519.8,501.8,519.7,502.1,519.6,502.5z M520.6,500c-0.9,0.3-1.7,0.5-2.4,0.6c-0.1-0.1-0.2-0.2-0.2-0.4c0.4-0.1,0.7-0.3,0.8-0.5
		c0,0,0,0,0,0c0.7,0.2,1.7-0.1,2.4-0.7C521,499.4,520.8,499.7,520.6,500z M519.9,497.4c-0.7-0.6-1.3-1.4-1.8-2c0.9,0,1.9,0,2.8,0
		c-0.2,0-0.3-0.1-0.5-0.1c0.4,0,0.8,0.1,1.2,0C521.4,496.3,520.8,497,519.9,497.4z M526,488.8c-0.1-0.2-0.2-0.5-0.3-0.7
		c0.2-0.1,0.4-0.2,0.5-0.4C526.3,488,526.2,488.4,526,488.8z M607.3,466.2c-0.5,1-1.9,1.4-2.7,2.1c-0.4-0.6-0.7-1.3-0.9-1.9
		C605.1,466.1,606.4,465.6,607.3,466.2z M605.9,460.8c0.4,1.5-0.3,2.3-1.3,2.9c-1-0.6-2.1-1.3-2.4-2.2
		C603.5,461.5,604.5,460.5,605.9,460.8z M606,476.8c-0.6,0.4-1.2,0.4-1.8,0.5c0.7-0.9,1.3-2,1.3-2.7c-2.1,0-3.7-3-3.3-4.7
		c0.6,0,1.2,0,1.7,0c0,0.1,0,0.3,0.1,0.5c0.9-0.1,1.9-0.3,2.8-0.2c-0.5,1.8-1.3,2.4-2.8,3.5c1.2,0,2.4,0,3.6,0
		C607,475.1,607.2,475.9,606,476.8z M678.6,488.7c-1.4,0-2.3-1.1-3.4-1.7c0.5-0.8,2.4-0.9,2.6-1.5c0,0,0,0,0,0
		c0.7,0.2,1.7-0.1,2.4-0.7C679.6,486.2,678.8,487.2,678.6,488.7z"/>
	<linearGradient id="SVGID_5_" gradientUnits="userSpaceOnUse" x1="727.4677" y1="492.5347" x2="727.4677" y2="492.4177">
		<stop  offset="0" style="stop-color:#D2E5D4"/>
		<stop  offset="1" style="stop-color:#94BBA9"/>
	</linearGradient>
	<path fill="url(#SVGID_5_)" d="M727.1,492.4c0.2,0.1,0.4,0.1,0.7,0.1C727.6,492.5,727.3,492.4,727.1,492.4z"/>
	<linearGradient id="SVGID_6_" gradientUnits="userSpaceOnUse" x1="419.0214" y1="458.4763" x2="419.0214" y2="456.8422">
		<stop  offset="0" style="stop-color:#D2E5D4"/>
		<stop  offset="1" style="stop-color:#94BBA9"/>
	</linearGradient>
	<path fill="url(#SVGID_6_)" d="M419.2,458.5c0-0.6-0.1-1.2-0.3-1.6C419,457.4,419.1,457.9,419.2,458.5z"/>
	<linearGradient id="SVGID_7_" gradientUnits="userSpaceOnUse" x1="413.317" y1="476.8808" x2="413.317" y2="476.5732">
		<stop  offset="0" style="stop-color:#D2E5D4"/>
		<stop  offset="1" style="stop-color:#94BBA9"/>
	</linearGradient>
	<path fill="url(#SVGID_7_)" d="M414,476.9c-0.4-0.1-0.9-0.3-1.5-0.3C413.2,476.8,413.6,476.9,414,476.9z"/>
	<linearGradient id="SVGID_8_" gradientUnits="userSpaceOnUse" x1="359.574" y1="505.1681" x2="359.574" y2="505.0659">
		<stop  offset="0" style="stop-color:#D2E5D4"/>
		<stop  offset="1" style="stop-color:#94BBA9"/>
	</linearGradient>
	<path fill="url(#SVGID_8_)" d="M360,505.1c-0.3-0.1-0.6-0.1-0.9,0C359.4,505.2,359.7,505.2,360,505.1z"/>
	<linearGradient id="SVGID_9_" gradientUnits="userSpaceOnUse" x1="217.6101" y1="467.8098" x2="217.6101" y2="466.1757">
		<stop  offset="0" style="stop-color:#D2E5D4"/>
		<stop  offset="1" style="stop-color:#94BBA9"/>
	</linearGradient>
	<path fill="url(#SVGID_9_)" d="M217.8,467.8c0-0.6-0.1-1.2-0.3-1.6C217.5,466.7,217.6,467.3,217.8,467.8z"/>
	<linearGradient id="SVGID_10_" gradientUnits="userSpaceOnUse" x1="211.9057" y1="486.2143" x2="211.9057" y2="485.9066">
		<stop  offset="0" style="stop-color:#D2E5D4"/>
		<stop  offset="1" style="stop-color:#94BBA9"/>
	</linearGradient>
	<path fill="url(#SVGID_10_)" d="M212.6,486.2c-0.4-0.1-0.9-0.3-1.5-0.3C211.8,486.1,212.2,486.2,212.6,486.2z"/>
	<linearGradient id="SVGID_11_" gradientUnits="userSpaceOnUse" x1="158.1627" y1="514.5016" x2="158.1627" y2="514.3993">
		<stop  offset="0" style="stop-color:#D2E5D4"/>
		<stop  offset="1" style="stop-color:#94BBA9"/>
	</linearGradient>
	<path fill="url(#SVGID_11_)" d="M158.6,514.5c-0.3-0.1-0.6-0.1-0.9,0C158,514.5,158.3,514.5,158.6,514.5z"/>
	<linearGradient id="SVGID_12_" gradientUnits="userSpaceOnUse" x1="108.0839" y1="488.9119" x2="108.0839" y2="487.2778">
		<stop  offset="0" style="stop-color:#D2E5D4"/>
		<stop  offset="1" style="stop-color:#94BBA9"/>
	</linearGradient>
	<path fill="url(#SVGID_12_)" d="M108.2,488.9c0-0.6-0.1-1.2-0.3-1.6C108,487.8,108.1,488.4,108.2,488.9z"/>
	<linearGradient id="SVGID_13_" gradientUnits="userSpaceOnUse" x1="102.3795" y1="507.3164" x2="102.3795" y2="507.0088">
		<stop  offset="0" style="stop-color:#D2E5D4"/>
		<stop  offset="1" style="stop-color:#94BBA9"/>
	</linearGradient>
	<path fill="url(#SVGID_13_)" d="M103.1,507.3c-0.4-0.1-0.9-0.3-1.5-0.3C102.2,507.2,102.7,507.3,103.1,507.3z"/>
	<linearGradient id="SVGID_14_" gradientUnits="userSpaceOnUse" x1="48.6365" y1="535.6037" x2="48.6365" y2="535.5015">
		<stop  offset="0" style="stop-color:#D2E5D4"/>
		<stop  offset="1" style="stop-color:#94BBA9"/>
	</linearGradient>
	<path fill="url(#SVGID_14_)" d="M49.1,535.6c-0.3-0.1-0.6-0.1-0.9,0C48.4,535.6,48.7,535.6,49.1,535.6z"/>
</g>
<linearGradient id="ground_2_" gradientUnits="userSpaceOnUse" x1="375.6338" y1="550.8885" x2="375.6338" y2="596.8942">
	<stop  offset="0" style="stop-color:#41A247"/>
	<stop  offset="0.1666" style="stop-color:#429C45"/>
	<stop  offset="0.4117" style="stop-color:#458C40"/>
	<stop  offset="0.7053" style="stop-color:#447336"/>
	<stop  offset="1" style="stop-color:#3E552A"/>
</linearGradient>
<path id="ground_1_" fill="url(#ground_2_)" d="M750.5,552.9c0,0-301-4.4-749.7,0v44h749.7V552.9z"/>
<rect id="timeline_1_" x="0.8" y="596.9" fill="#9B8579" width="749.7" height="12"/>
<g id="lines_1_">
	<line fill="none" stroke="#9B8579" stroke-miterlimit="10" x1="54.1" y1="608.9" x2="54.1" y2="629.6"/>
	<line fill="none" stroke="#9B8579" stroke-miterlimit="10" x1="188.8" y1="608.9" x2="188.8" y2="629.6"/>
	<line fill="none" stroke="#9B8579" stroke-miterlimit="10" x1="118.7" y1="608.9" x2="118.7" y2="629.6"/>
	<line fill="none" stroke="#9B8579" stroke-miterlimit="10" x1="258.1" y1="608.9" x2="258.1" y2="629.6"/>
	<line fill="none" stroke="#9B8579" stroke-miterlimit="10" x1="325.4" y1="608.9" x2="325.4" y2="629.6"/>
	<line fill="none" stroke="#9B8579" stroke-miterlimit="10" x1="393.4" y1="608.9" x2="393.4" y2="629.6"/>
	<line fill="none" stroke="#9B8579" stroke-miterlimit="10" x1="460.8" y1="608.9" x2="460.8" y2="629.6"/>
	<line fill="none" stroke="#9B8579" stroke-miterlimit="10" x1="596.8" y1="608.9" x2="596.8" y2="629.6"/>
	<line fill="none" stroke="#9B8579" stroke-miterlimit="10" x1="665.4" y1="608.9" x2="665.4" y2="629.6"/>
	<line fill="none" stroke="#9B8579" stroke-miterlimit="10" x1="529.4" y1="608.9" x2="529.4" y2="629.6"/>
</g>
<g id="markers_1_">
	<circle fill="#FFFFFF" stroke="#9B8579" stroke-miterlimit="10" cx="361.4" cy="612.2" r="5.7"/>
	<line fill="none" stroke="#9B8579" stroke-miterlimit="10" x1="361.4" y1="617.9" x2="361.4" y2="669.6"/>
	<circle fill="#FFFFFF" stroke="#9B8579" stroke-miterlimit="10" cx="86.8" cy="612.2" r="5.7"/>
	<line fill="none" stroke="#9B8579" stroke-miterlimit="10" x1="86.8" y1="617.9" x2="86.8" y2="669.6"/>
	<line fill="none" stroke="#9B8579" stroke-miterlimit="10" x1="614.5" y1="607.9" x2="614.5" y2="664.6"/>
	<line fill="none" stroke="#9B8579" stroke-miterlimit="10" x1="640.8" y1="607.9" x2="640.8" y2="665.6"/>
	<circle fill="#FFFFFF" stroke="#9B8579" stroke-miterlimit="10" cx="713.3" cy="612.2" r="5.7"/>
	<line fill="none" stroke="#9B8579" stroke-miterlimit="10" x1="713.3" y1="617.9" x2="713.3" y2="668.6"/>
</g>
<g id="seedling_1_">
	<g>
		<path fill="#726658" d="M14.2,539c0,0,0.3,0,0.7,0.1c0.4,0.1,1,0.3,1.7,0.6c1.3,0.6,2.7,1.5,3.8,2.6c0.6,0.6,1.1,1.2,1.5,1.8
			c0.2,0.3,0.3,0.7,0.4,1c0.1,0.4,0.1,0.7,0.1,1.1c0,0.4-0.1,0.8-0.1,1.1c-0.1,0.4-0.2,0.7-0.3,1c-0.1,0.3-0.2,0.5-0.3,0.7
			c-0.1,0.2-0.1,0.3-0.1,0.3l-0.8,0.6c0,0-0.1,0-0.3,0c-0.2,0-0.5,0-0.8,0.1c-0.3,0-0.6,0-1-0.1c-0.3-0.1-0.7-0.1-1.1-0.2
			c-0.4-0.1-0.7-0.3-1-0.5c-0.3-0.2-0.6-0.4-0.8-0.7c-0.4-0.6-0.9-1.3-1.2-2c-0.7-1.4-1.1-3.1-1.2-4.5c-0.1-0.7,0-1.3,0-1.8
			c0-0.5,0.1-0.7,0.1-0.7L14.2,539z"/>
	</g>
	<path fill="none" stroke="#726658" stroke-miterlimit="10" d="M24.5,536c-2.4,6.4-4.8,11.3,1,17"/>
	<g>
		<path fill="#726658" d="M29.3,530.1c0,0,0.1,0.3,0.1,0.7c0,0.4,0.1,1.1,0,1.8c-0.1,1.4-0.5,3-1.2,4.5c-0.4,0.7-0.8,1.4-1.2,2
			c-0.2,0.3-0.5,0.5-0.8,0.7c-0.3,0.2-0.6,0.4-1,0.5c-0.3,0.1-0.7,0.2-1.1,0.2c-0.4,0-0.7,0.1-1,0.1c-0.3,0-0.6,0-0.8-0.1
			c-0.2,0-0.3,0-0.3,0l-0.8-0.6c0,0,0-0.1-0.1-0.3c-0.1-0.2-0.2-0.4-0.3-0.7c-0.1-0.3-0.2-0.6-0.3-1c0-0.3-0.1-0.7-0.1-1.1
			c0-0.4,0-0.7,0.1-1.1c0.1-0.4,0.2-0.7,0.4-1c0.4-0.6,0.9-1.2,1.5-1.8c1.1-1.2,2.5-2.1,3.8-2.6c0.6-0.3,1.2-0.5,1.7-0.6
			c0.4-0.1,0.7-0.1,0.7-0.1L29.3,530.1z"/>
	</g>
</g>
<g id="redwood_1_">
	<g id="trunk_1_">
		<path fill="#EDA871" stroke="#726658" stroke-miterlimit="10" d="M608.3,551.3c0,0,9.8-16.6,6.3-10.3c-3.5,6.3,3.9-17.2,4.8-32.2
			c0.9-14.9,7.5-124.1,7.5-124.1l20.7-360.1l2.5-5.2l0.1,218.5l1.6,188.3c0,0,0.2,68.8,1.7,87.4c1.5,18.6,15.6,38,15.6,38
			L608.3,551.3z"/>
		<path fill="#EB7949" stroke="#726658" stroke-miterlimit="10" d="M626,551.1c0,0,0.2-3.5,5-9c2.9-3.2,6.3-5.7,7.2-20.7
			c0.9-14.9,7.1-121.5,7.1-121.5l2.2-375.3l2.5-5.2l0.1,218.5l1.6,188.3c0,0,0.2,68.8,1.7,87.4c1.5,18.6,15.6,38,15.6,38L626,551.1z
			"/>
		<path fill="#CD633A" stroke="#726658" stroke-miterlimit="10" d="M608.3,551.3c0,0,9.8-16.6,6.3-10.3c-3.5,6.3,3.9-17.2,4.8-32.2
			c0.9-14.9,7.5-124.1,7.5-124.1l20.7-360.1l2.5-5.2l-7.7,219.2l-5.3,178.1c0,0-8.3,77.2-6.8,95.8c1.5,18.6-5.3,38.5-5.3,38.5
			L608.3,551.3z"/>
		<path fill="#A74C25" stroke="#726658" stroke-miterlimit="10" d="M614.2,551.2c5.4-5.1,7.7-23.4,7.7-23.4s0,11.4-3.7,23.4
			C618.2,551.2,616.6,551.3,614.2,551.2z"/>
		<path fill="#C15A32" stroke="#726658" stroke-miterlimit="10" d="M650.2,550.8c0,0-6.7-1.1-8.4-11.1s2-41.1,3.4-64.6
			c2.9,5.9,1.7,18.6,2.5,25C648.3,516.2,641.6,522,650.2,550.8z"/>
		<path fill="#C15A32" stroke="#726658" stroke-miterlimit="10" d="M649.9,496.1c0,0-2.8,35.1,9.9,47.1
			C650.9,521.6,649.9,496.1,649.9,496.1z"/>
		<path fill="#BF5829" stroke="#726658" stroke-miterlimit="10" d="M636.6,543.5l-1.2,7.5l4.2-0.1
			C639.6,550.9,637.3,547.8,636.6,543.5z"/>
		<path fill="#D66F41" stroke="#726658" stroke-miterlimit="10" d="M652.5,542.5l3.6,8.4l4.2-0.1
			C660.4,550.8,653.2,546.8,652.5,542.5z"/>
		<path fill="#A74C25" stroke="#726658" stroke-miterlimit="10" d="M648.7,423c0,0-3.4,38.9-2.2,43.1
			C647.7,470.3,648.7,423,648.7,423z"/>
		<path fill="#C2572F" stroke="#9B8579" stroke-miterlimit="10" d="M637.5,281.5c0,0-6.6,132.9-5.7,147.2S637.5,281.5,637.5,281.5z"
			/>
		<path fill="#E1955F" stroke="#726658" stroke-miterlimit="10" d="M644.9,330.4c0,0-6.6,132.9-5.7,147.2
			C640,491.9,644.9,330.4,644.9,330.4z"/>
		<path fill="#9A3F22" stroke="#726658" stroke-miterlimit="10" d="M632,444.9c0,0-3.3,40.7-3.8,49.4C627.6,503,632,444.9,632,444.9
			z"/>
		<path opacity="0.5" fill="#83211A" d="M608.3,551.3c0,0,9.8-16.6,6.3-10.3c-3.5,6.3,3.9-17.2,4.8-32.2
			c0.9-14.9,7.5-124.1,7.5-124.1l20.7-360.1l2.5-5.2l0.1,218.5l1.6,188.3c0,0,0.2,68.8,1.7,87.4c1.5,18.6,15.6,38,15.6,38
			L608.3,551.3z"/>
	</g>
	<g id="leaves_1_">
		
			<linearGradient id="SVGID_15_" gradientUnits="userSpaceOnUse" x1="653.2061" y1="298.6847" x2="653.2061" y2="312.9575" gradientTransform="matrix(0.9999 -1.201599e-002 1.201599e-002 0.9999 -3.2753 7.651)">
			<stop  offset="0" style="stop-color:#41A247"/>
			<stop  offset="1" style="stop-color:#296733"/>
		</linearGradient>
		<path fill="url(#SVGID_15_)" stroke="#594A42" stroke-miterlimit="10" d="M660.5,310.6c0.5-2.3,1.4-5.1-0.9-6.8
			c-1.1-0.7-2.6,0.3-3.6-0.9c-0.6-0.7-0.2-3.6-0.2-4.5c-2,1.9-4.4,2.2-4.2,5.4c-2.2-1.6-3.3-3-4.9,0.8c-1.5,3.5,0.1,4.2,2.9,5.7
			c2.9,1.7,11,4.6,11.6-0.8"/>
		
			<linearGradient id="SVGID_16_" gradientUnits="userSpaceOnUse" x1="648.0131" y1="169.8618" x2="648.0131" y2="183.8976" gradientTransform="matrix(0.9999 -1.201599e-002 1.201599e-002 0.9999 -3.2753 7.651)">
			<stop  offset="0" style="stop-color:#41A247"/>
			<stop  offset="1" style="stop-color:#296733"/>
		</linearGradient>
		<path fill="url(#SVGID_16_)" stroke="#594A42" stroke-miterlimit="10" d="M649.4,183.3c-1.4-3.6,0-7.5-0.5-11.2
			c-1.3-0.4-3.1-3-4.8-2.2c-1.4,0.6-2.1,5.8-0.1,6.9c2.6,1.3,3.1-2.3,4.4,1.8c0.7,2-0.8,5.8,2.6,5"/>
		
			<linearGradient id="SVGID_17_" gradientUnits="userSpaceOnUse" x1="644.6591" y1="148.2295" x2="644.6591" y2="160.4758" gradientTransform="matrix(0.9999 -1.201599e-002 1.201599e-002 0.9999 -3.2753 7.651)">
			<stop  offset="0" style="stop-color:#41A247"/>
			<stop  offset="1" style="stop-color:#296733"/>
		</linearGradient>
		<path fill="url(#SVGID_17_)" stroke="#594A42" stroke-miterlimit="10" d="M641.4,148.8c-2,0.1-5.6-0.1-4.5,3.2
			c0.8,2.2,3.5,0.4,4.5,2.9c1.1,2.6-1.3,3.5,2.3,4.8c1.4,0.5,4.2,0.7,5.7,0.5c0.2-0.7,0.2-2.1,0-2.8c-3.2,0.2-4.3,0-4.5-2.8
			c-0.1-1.6,2-4.7-1.3-4.6c0.1-3.9-4.3-0.6-5.8-0.2"/>
		
			<linearGradient id="SVGID_18_" gradientUnits="userSpaceOnUse" x1="651.6653" y1="60.6363" x2="651.6653" y2="73.8555" gradientTransform="matrix(0.9999 -1.201599e-002 1.201599e-002 0.9999 -3.2753 7.651)">
			<stop  offset="0" style="stop-color:#41A247"/>
			<stop  offset="1" style="stop-color:#296733"/>
		</linearGradient>
		<path fill="url(#SVGID_18_)" stroke="#594A42" stroke-miterlimit="10" d="M648.2,64c0.8,3.6-5.2-0.2-4.4-3.4
			c8.5-1.3,2.3,6.2,5.3,10.7c4.8,7,8.2-4.3,2.3-4.8"/>
		
			<linearGradient id="SVGID_19_" gradientUnits="userSpaceOnUse" x1="725.5861" y1="-107.6166" x2="725.5861" y2="-87.8482" gradientTransform="matrix(0.8738 -0.4863 0.6809 1.2233 60.2947 536.4114)">
			<stop  offset="0" style="stop-color:#41A247"/>
			<stop  offset="1" style="stop-color:#296733"/>
		</linearGradient>
		<path fill="url(#SVGID_19_)" stroke="#594A42" stroke-miterlimit="10" d="M647.8,51.8c-1.8-3.3-4-6.9-8.2-3.7
			c1.2,2.7-2,2.9-3.1,0.7c-2.5,1.2-5,2.9-7.6,3.6c-3,0.7-5.1-0.1-8.3,1.1c-1.1,0.4-7.3,1.3-5.7,3.2c0.8,0.8,2.3-0.3,3.1,0.1
			c0.9,0.5,1.5,2,1.9,3c-2.3,2.1-2.9,0.4-4.2,4.2c-1.3-0.3-2.1-1.4-3.5-1.6c-1.7-0.2-2.2,1-3.4,1.2c-2.7,0.4-4.5-1.5-7.3,0.8
			c0.7,1.4,2.2,2.8,2.8,3.9c0.7,1.4,0.5,2.8,1.3,4.1c2.7-0.7,7.7,0.9,9.7-1.2c1.4-1.5,0.3-2.7,2.5-4.1c2.7-1.7,3.3-0.9,2.3,1.5
			c-0.6,1.7-3.1,1.9-0.4,4.1c1.7,1.4,3.2,0.1,5.2,0.6c1.5,0.3,2.9,2.6,5,1c1.6-1.2,0.6-3.8,2-5.3c1.7,0.6,3.1,1.6,3.4,3.4
			c0.1,0.7-2.2,5.4,1.9,2.3c2.6-2-0.4-3.1,0.1-5.3c0.3-1.7,2.2-2.3,4.1-3.2c1.4,0.8,2.4,2,3.1,3.4c0.6-0.1,1.7-0.8,2.2-1.2
			c0.4-2.1,1.7-3.9,2.9-5.4c1.2-1.5,3.4-2.6,1.3-4.9c-1.4-1.5-5.5-0.6-5.5-3.8c0-0.5,1.7-0.6,1.8-1.4c0.1-0.9-0.4-1.2-0.7-2.1
			c-0.3-1-1.4-1.7-1.9-2.8"/>
		
			<linearGradient id="SVGID_20_" gradientUnits="userSpaceOnUse" x1="697.1608" y1="-98.0631" x2="697.1608" y2="-16.5064" gradientTransform="matrix(0.9373 -0.3485 0.3485 0.9373 7.7702 415.704)">
			<stop  offset="0" style="stop-color:#41A247"/>
			<stop  offset="1" style="stop-color:#296733"/>
		</linearGradient>
		<path fill="url(#SVGID_20_)" stroke="#594A42" stroke-miterlimit="10" d="M589.1,116.5c1.4,2,5.1,3.9,5.5,6.5
			c0.1,0.9-0.4,2.5-1.2,3.2c-1.3,1-2.7,0.1-3.5,0.7c-4.4,3.2,3.2,8.1,3.9,11.5c-2.4,2.1-4.4,2.9-0.5,5.2c1.9-2.4,3.7-7.7,7.2-9.4
			c3.7-1.8,5.9,1.4,4.3-4c-0.5-1.6-2.2-5.9,0.3-6.7c3.4-1,2.2,4.2,3,5.4c1.9,2.8,4.9,1.2,4.1-1.9c-0.5-2.1-3.2-3.2-2.3-5.5
			c1.3-3.8,6.2-1.1,9-1.4c-0.4-4.1-0.7-7.6,4.3-8.7c3.3,3.6,6.5,4.5,9.4-0.1c1.2-1.9,0.7-3.5,3.4-3.9c2-0.3,5.7,1.5,6,3.7
			c-2.6,1.5-5.8,2.2-8.6,3.3c1.4,4.1,2.9,6.8,5.7,9.8c3.1-1,4.7-1.6,6.5-3.8c0.7,1.1,1.3,2.7,2.3,3.6c1.6-2,3.7-2.2,4.8-4.6
			c1.7-3.5,1-3.7,5.6-4.3c1.9-0.3,9-2.4,9.9-0.9c2.1,3.4-6.3,6-8.3,6.8c-2.4,0.9-2.6,0.7-4.7,0.6c-1.3-0.1-1.7-1.2-3.2-0.5
			c-1.8,0.9-2,4.4-1.4,6c1.1,2.9,8.2,9.2,7.6,2.3c3.7-0.5,4.9,4.3,5.7,7.1c4.3-1.3,6.7-2.2,10.7-0.9c3.6,1.2,6.2-1,10-2.3
			c2.5-0.9,4.3-1.7,6.7-0.5c1.6,0.8,2.8,2.3,4.2,3.4c3.1,2.4,7.5,3.3,11.3,1.8c0.2-3.1-1.2-7.8-3.4-9.4c-3.4-2.5-9.9-1.7-12.7-4.4
			c-1.1-1-1-3.5-1.8-4.8c-1.5-2.5-1.8-1.4-3.9-2.7c-1.2-0.7-2.9-2.3-2.8-4.1c0.2-1.8,2.5-2.3,1.1-4.3c-3.9,0.5-5.9,3.6-7.6-2.4
			c3.7-1,3-4.7,1.9-7.6c-0.5-1.3-1-2.9-1.9-4.1c-1.6-2.2-1.4-1.4-4.1-1.9c-3.8-0.6-3.2-1.6-4.5-4.8c-1.3-3.4-4-3.5-7.2-3.5
			c-1.7,0-2.4,1.4-3.5-0.4c-1.3-1.9,0.8-2.1,0.6-3.3c-0.6-3.4-4.4-4.8-7.9-4.3c-1.9,0.3-2.4,0.4-4.2,0.4c-3.7-0.2-5.2-1.2-7.8,1.4
			c-2.1,2.1-4.7,5.1-3.6,8.2c-1.8,2.3-3,0.8-5.2,0.5c-2.7-0.3-2.3,1-4,1.9c-2.8,1.4-3,0.9-5.1-0.7c-1.7-1.3-1.5-2.7-3.5-0.9
			c-2.7,2.4-1.5,6.6,1.9,6.6c2.4,0,3.6-1.9,5.1,0.8c1.2,2.2,0.1,2.7-1.6,4.1c-3.1,2.5-7.1,1.7-10.5,4c-2.9,1.9-5.3,4.9-8.9,4.1
			c-2.9-0.7-4.4-4.6-7.1-5.4c-1.3-0.4-2.1,0.5-3.5,0.6c-2.3,0.3-3.6-1.1-5.7-0.9c-3,0.3-3.4,4.2-4.9,5.9c-0.9,1-3.8,1.5-2,3.8
			c1,1.2,2.6,0.3,3.8,0c4.4-1,9.6-3.5,14.2-2.4c2.5,0.6,6.9,2.7,7.4,5.3c-2.3,2.5-4.1,2-7.2,2.3c-2.1,0.2-8,0.4-7.9,3"/>
		
			<linearGradient id="SVGID_21_" gradientUnits="userSpaceOnUse" x1="1731.0067" y1="285.9731" x2="1731.0067" y2="367.5297" gradientTransform="matrix(-0.9823 -0.1874 -0.1874 0.9823 2393.2095 219.0514)">
			<stop  offset="0" style="stop-color:#41A247"/>
			<stop  offset="1" style="stop-color:#296733"/>
		</linearGradient>
		<path fill="url(#SVGID_21_)" stroke="#594A42" stroke-miterlimit="10" d="M694,206.7c-1.2,2.2-5.2,4.6-5,7.2
			c0.1,0.9,1.1,2.5,2.3,3c1.8,0.9,3.2-0.3,4.4,0.2c6.1,2.6-1.8,8.5-1.8,12c3.4,1.8,6,2.3,1.9,5.2c-2.9-2.2-6.4-7.2-11-8.5
			c-4.9-1.3-6.7,2.1-6.2-3.5c0.2-1.7,1.2-6.2-2.1-6.6c-4.4-0.6-1.6,4.4-2.3,5.8c-1.6,3.1-5.6,1.8-5.5-1.3c0.1-2.2,3-3.6,1.5-5.8
			c-2.5-3.6-7.7-0.4-11.2-0.3c-0.6-4.2-1-7.7-7.4-8.2c-3.1,4.1-6.8,5.3-11.3,1.1c-1.9-1.8-1.8-3.4-5-3.5c-2.5,0-6.5,2.2-6.3,4.4
			c3.5,1.1,7.5,1.5,11.2,2.3c-0.7,4.3-1.8,7.2-4.4,10.5c-4-0.6-6.1-1-8.8-3c-0.6,1.1-0.9,2.8-1.9,3.9c-2.5-1.8-5-1.7-7-4
			c-2.9-3.3-2.1-3.6-7.9-3.6c-2.4,0-11.5-1.2-12.2,0.3c-1.7,3.6,9.1,5.3,11.8,5.8c3.1,0.6,3.4,0.4,5.8,0c1.5-0.2,1.7-1.4,3.7-0.9
			c2.4,0.7,3.6,4.2,3.2,5.9c-0.7,3-7.6,10.2-8.7,3.3c-4.6,0-4.8,4.9-5.1,7.8c-5.5-0.8-8.7-1.3-13.1,0.5c-4.1,1.6-7.7-0.3-12.7-1.1
			c-3.3-0.5-5.6-1.1-8.2,0.3c-1.7,1-2.9,2.7-4.3,3.9c-3.1,2.7-8.2,4.2-13.2,3.2c-1-3.1-0.5-8,1.8-9.9c3.5-2.9,11.6-2.9,14.2-6
			c1-1.2,0.3-3.6,0.9-5c1.2-2.7,1.8-1.6,4.1-3.2c1.3-0.9,2.9-2.7,2.3-4.5c-0.7-1.8-3.6-2-2.4-4.2c4.8,0,8,2.9,8.6-3.3
			c-4.8-0.6-4.8-4.3-4.2-7.4c0.3-1.4,0.5-3.1,1.2-4.3c1.4-2.4,1.3-1.6,4.5-2.4c4.5-1.1,3.5-2,4.2-5.4c0.8-3.5,3.9-4,7.8-4.4
			c2-0.2,3.2,1.1,4.1-0.8c1-2.1-1.5-2-1.5-3.2c-0.1-3.5,4.2-5.4,8.4-5.3c2.3,0,3,0.1,5.2-0.2c4.5-0.6,6-1.9,9.8,0.4
			c3.1,1.9,7,4.5,6.4,7.7c2.8,2.1,3.8,0.4,6.5-0.1c3.2-0.6,3,0.7,5.3,1.4c3.7,1.1,3.8,0.5,6-1.3c1.8-1.5,1.1-2.9,4-1.3
			c3.9,2.1,3.5,6.4-0.6,6.8c-2.9,0.3-4.8-1.4-6,1.4c-0.9,2.4,0.6,2.8,2.9,3.9c4.4,2.2,9,0.9,13.6,2.7c4,1.6,7.6,4.3,11.8,3
			c3.4-1,4.2-5.2,7.2-6.3c1.5-0.6,2.7,0.2,4.4,0.2c2.8,0,4.1-1.5,6.6-1.6c3.7-0.1,5.1,3.8,7.4,5.3c1.4,0.9,4.9,1.1,3.4,3.5
			c-0.8,1.3-3,0.6-4.6,0.5c-5.6-0.4-12.5-2.3-17.7-0.7c-2.8,0.9-7.7,3.6-7.6,6.3c3.4,2.2,5.4,1.5,9.3,1.4c2.6,0,9.8-0.6,10.3,2"/>
		
			<linearGradient id="SVGID_22_" gradientUnits="userSpaceOnUse" x1="618.9288" y1="127.7334" x2="618.9288" y2="168.7256" gradientTransform="matrix(0.9999 -1.201599e-002 1.201599e-002 0.9999 -3.2753 7.651)">
			<stop  offset="0" style="stop-color:#41A247"/>
			<stop  offset="1" style="stop-color:#296733"/>
		</linearGradient>
		<path fill="url(#SVGID_22_)" stroke="#594A42" stroke-miterlimit="10" d="M595.6,163.7c3,4.7,5,0.7,9.4,2.8c1.2,0.6,1.5,2.4,3,2.6
			c2.2,0.2,2.9-2.8,3.8-3.9c3.2-3.9,2.4-0.5,6,0.2c1.5,0.3,2.9-0.9,4.2-0.7c1.7,0.2,3.3,1.9,5.1,2.2c2.7,0.4,4.9-0.2,5.2-3
			c0.3-3.1-1-2.3-2.9-3.5c-2-1.3-2.5-1.1-2.2-3.8c0.1-1.4,0.8-3.7,2.2-4.4c1.7-0.8,2.7,0.6,4.5-0.4c2.1-1.2,0.7-3.7,1.5-5.2
			c0.6-1.2,1.9-1.3,2.3-2.2c0.9-1.9-0.1-3.2,0.2-5.2c0.4-2.5,2.7-3.4,0.4-5.7c-0.6-0.7-2.3-0.9-3.1-1.4c-1.7-1-2-1.7-3.9-2.2
			c-2-0.5-5.4-1.1-7.4-1.1c-3.2-0.1-4,2.6-6.3,3.6c-0.3-5.9-9.3-4.5-12.6-2.3c-1.7,1.1-3.6,3.5-3.8,5.7c-0.4,4.3,5.8,4.2,9,4.1
			c0.9,3.5-3.5,3.1-5.4,3.8c-2.4,0.8-7.5,4.2-8.6,6.3c-2.1,4,5.9,10.2-0.1,13.8"/>
		
			<linearGradient id="SVGID_23_" gradientUnits="userSpaceOnUse" x1="676.3253" y1="241.2081" x2="676.3253" y2="278.0312" gradientTransform="matrix(0.9881 0.1539 -0.1539 0.9881 51.8642 -192.8348)">
			<stop  offset="0" style="stop-color:#41A247"/>
			<stop  offset="1" style="stop-color:#296733"/>
		</linearGradient>
		<path fill="url(#SVGID_23_)" stroke="#594A42" stroke-miterlimit="10" d="M660.2,148.6c-1.1-3.1-7.4-1.8-10-2.5
			c-2.1,3.8-1.2,5.2-0.7,8.9c0.5,3.6-1.4,4.5-1.9,7.8c-0.7,4.3,1.8,4.1,5.5,4.8c3.8,0.7,3.5,2.6,6.8,4c4.4,1.9,16.6,0.7,18.6,6.5
			c0.9,2.6-3.8,4.5-0.2,7.4c2.1,1.6,6.3,1.5,7.6-1c0.5-0.9,0.2-2-0.3-2.7c3.2-1.8,9.3,1.4,9.4,4.8c1.1-2,0.4-4.7,1.2-7
			c0.8,1,1.3,2.7,2.5,3.5c1.2,0.9,3,0.5,4.2,1.4c2.1,1.6,1.7,5.6,5.3,5.7c2.9,0,4.5-4,2-5.8c-1.1-0.8-2.3,0.4-3.3-0.5
			c-2.1-1.7-0.1-2.2-0.7-3.8c-0.7-1.8,0.4-0.9-1.6-1.9c-1-0.5-3-0.5-4.1-0.6c-2-0.2-8,0-7.9-3.5c0.2-5.5,11.6,2.2,13.9,2.5
			c1.1-2.8,0.1-3.9,0.1-6.4c2.6-0.3,6-1.3,5.3-4.8c-0.8-3.4-6.5-4.8-9.4-5.4c-5.6-1.2-3.8,3.8-7,4.5c-3.8,0.8-3.2-5.1-3.1-7.1
			c0.2-4.1-1.6-6.2-6-4c-2.8,1.4-2.4,4.8-5.8,5.5c-3.5,0.8-3.3-2.9-6.5-3.9c-3.7-1.3-4.8-0.2-3.8-4.5c0.2-0.9,1-1.6,1.2-2.7
			c-4.7-1.3-8.5,0.2-13.1-0.5"/>
		
			<linearGradient id="SVGID_24_" gradientUnits="userSpaceOnUse" x1="660.7133" y1="42.4223" x2="660.7133" y2="55.2956" gradientTransform="matrix(0.9999 -1.201599e-002 1.201599e-002 0.9999 -3.2753 7.651)">
			<stop  offset="0" style="stop-color:#41A247"/>
			<stop  offset="1" style="stop-color:#296733"/>
		</linearGradient>
		<path fill="url(#SVGID_24_)" stroke="#594A42" stroke-miterlimit="10" d="M657.3,42.3c-1.5-0.1-5.3-0.3-6.4,0.4
			c-2.9,2-0.2,3.1,1.1,4.5c2.1,2.2,4.1,5.2,5.5,7.8c0.5-2.7,6.5-5.6,8.9-5.6c-2.5-1.2-2-3.7-5.8-2.8c0.3-1.8-0.2-3.6-2.3-3.4"/>
		
			<linearGradient id="SVGID_25_" gradientUnits="userSpaceOnUse" x1="648.0131" y1="211.7104" x2="648.0131" y2="218.5916" gradientTransform="matrix(0.9999 -1.201599e-002 1.201599e-002 0.9999 -3.2753 7.651)">
			<stop  offset="0" style="stop-color:#41A247"/>
			<stop  offset="1" style="stop-color:#296733"/>
		</linearGradient>
		<path fill="url(#SVGID_25_)" stroke="#594A42" stroke-miterlimit="10" d="M640.8,211.7c-0.3,3.4,1.5,5.2,4.5,6.2
			c3.4,1.1,5.3-0.1,8.4-0.6c-0.6-2.4-1.3-3.8-3.5-4.8c-2.2-0.9-6.1-1.2-8.6-0.8c0.2,1.7,0.4,1,0.5,0.9"/>
		
			<linearGradient id="SVGID_26_" gradientUnits="userSpaceOnUse" x1="705.1654" y1="42.1398" x2="705.1654" y2="123.6964" gradientTransform="matrix(0.9319 -0.3626 0.3626 0.9319 -47.8753 446.0187)">
			<stop  offset="0" style="stop-color:#41A247"/>
			<stop  offset="1" style="stop-color:#296733"/>
		</linearGradient>
		<path fill="url(#SVGID_26_)" stroke="#594A42" stroke-miterlimit="10" d="M587.2,265.8c1.4,2,5.2,3.8,5.6,6.4
			c0.1,0.9-0.4,2.5-1.2,3.2c-1.3,1.1-2.7,0.1-3.5,0.7c-4.3,3.2,3.3,8,4,11.4c-2.3,2.1-4.3,2.9-0.4,5.3c1.9-2.5,3.6-7.7,7.1-9.5
			c3.6-1.8,5.9,1.3,4.2-4c-0.5-1.6-2.3-5.8,0.2-6.7c3.4-1.1,2.2,4.1,3.1,5.3c2,2.8,4.9,1.2,4.1-1.9c-0.5-2.1-3.2-3.1-2.4-5.5
			c1.2-3.8,6.2-1.2,8.9-1.5c-0.5-4.1-0.8-7.6,4.2-8.8c3.4,3.6,6.6,4.4,9.4-0.2c1.2-1.9,0.7-3.5,3.3-3.9c2-0.3,5.7,1.5,6,3.6
			c-2.6,1.5-5.7,2.3-8.5,3.5c1.5,4.1,3,6.8,5.8,9.7c3.1-1,4.7-1.7,6.4-3.9c0.7,1,1.3,2.6,2.4,3.6c1.6-2.1,3.6-2.2,4.7-4.7
			c1.6-3.5,0.9-3.7,5.5-4.4c1.9-0.3,9-2.5,9.9-1.1c2.1,3.3-6.2,6.1-8.2,6.9c-2.4,0.9-2.6,0.8-4.7,0.7c-1.3,0-1.7-1.2-3.2-0.4
			c-1.8,0.9-2,4.4-1.3,6c1.2,2.9,8.3,9,7.7,2.2c3.7-0.5,4.9,4.2,5.8,7c4.2-1.4,6.7-2.3,10.7-1c3.6,1.1,6.1-1.1,10-2.5
			c2.5-0.9,4.3-1.7,6.7-0.6c1.6,0.7,2.9,2.3,4.3,3.3c3.1,2.3,7.5,3.2,11.4,1.6c0.2-3.1-1.3-7.8-3.6-9.4c-3.4-2.4-10-1.6-12.7-4.2
			c-1.1-1-1.1-3.5-1.8-4.8c-1.5-2.5-1.8-1.4-4-2.7c-1.2-0.7-3-2.3-2.8-4.1c0.1-1.8,2.5-2.3,1.1-4.3c-3.9,0.6-5.9,3.7-7.7-2.3
			c3.7-1.1,3-4.8,1.8-7.7c-0.5-1.3-1.1-2.9-1.9-4.1c-1.7-2.2-1.4-1.4-4.2-1.8c-3.8-0.6-3.3-1.6-4.6-4.8c-1.4-3.3-4-3.5-7.3-3.4
			c-1.7,0-2.4,1.4-3.5-0.3c-1.3-1.9,0.8-2.1,0.5-3.3c-0.6-3.4-4.5-4.7-7.9-4.2c-1.9,0.3-2.4,0.5-4.2,0.4c-3.7-0.1-5.2-1.2-7.8,1.5
			c-2.1,2.1-4.7,5.2-3.5,8.2c-1.8,2.4-2.9,0.8-5.2,0.6c-2.7-0.2-2.3,1-4,1.9c-2.8,1.4-2.9,0.9-5.1-0.6c-1.7-1.2-1.5-2.7-3.5-0.9
			c-2.7,2.5-1.4,6.6,2,6.6c2.4,0,3.6-1.9,5.1,0.7c1.3,2.2,0.1,2.7-1.5,4.1c-3.1,2.6-7,1.8-10.4,4.2c-2.8,2-5.2,5-8.9,4.2
			c-2.9-0.6-4.5-4.6-7.1-5.3c-1.3-0.4-2.1,0.5-3.5,0.7c-2.2,0.3-3.6-1-5.7-0.8c-3,0.3-3.3,4.2-4.8,5.9c-0.9,1-3.7,1.6-2,3.8
			c1,1.2,2.6,0.3,3.8,0c4.4-1,9.5-3.7,14.1-2.7c2.5,0.5,7,2.6,7.5,5.2c-2.3,2.5-4,2.1-7.2,2.5c-2.1,0.3-8,0.5-7.8,3.1"/>
		
			<linearGradient id="SVGID_27_" gradientUnits="userSpaceOnUse" x1="622.7288" y1="281.4103" x2="622.7288" y2="322.4025" gradientTransform="matrix(0.9999 -1.201599e-002 1.201599e-002 0.9999 -3.2753 7.651)">
			<stop  offset="0" style="stop-color:#41A247"/>
			<stop  offset="1" style="stop-color:#296733"/>
		</linearGradient>
		<path fill="url(#SVGID_27_)" stroke="#594A42" stroke-miterlimit="10" d="M601.3,317.3c3,4.7,5,0.7,9.4,2.8c1.2,0.6,1.5,2.4,3,2.6
			c2.2,0.2,2.9-2.8,3.8-3.9c3.2-3.9,2.4-0.5,6,0.2c1.5,0.3,2.9-0.9,4.2-0.7c1.7,0.2,3.3,1.9,5.1,2.2c2.7,0.4,4.9-0.2,5.2-3
			c0.3-3.1-1-2.3-2.9-3.5c-2-1.3-2.5-1.1-2.2-3.8c0.1-1.4,0.8-3.7,2.2-4.4c1.7-0.8,2.7,0.6,4.5-0.4c2.1-1.2,0.7-3.7,1.5-5.2
			c0.6-1.2,1.9-1.3,2.3-2.2c0.9-1.9-0.1-3.2,0.2-5.2c0.4-2.5,2.7-3.4,0.4-5.7c-0.6-0.7-2.3-0.9-3.1-1.4c-1.7-1-2-1.7-3.9-2.2
			c-2-0.5-5.4-1.1-7.4-1.1c-3.2-0.1-4,2.6-6.3,3.6c-0.3-5.9-9.3-4.5-12.6-2.3c-1.7,1.1-3.6,3.5-3.8,5.7c-0.4,4.3,5.8,4.2,9,4.1
			c0.9,3.5-3.5,3.1-5.4,3.8c-2.4,0.8-7.5,4.2-8.6,6.3c-2.1,4,5.9,10.2-0.1,13.8"/>
		
			<linearGradient id="SVGID_28_" gradientUnits="userSpaceOnUse" x1="1813.9894" y1="54.0038" x2="1813.9894" y2="78.0804" gradientTransform="matrix(-0.9999 1.201599e-002 1.201599e-002 0.9999 2482.2273 -22.217)">
			<stop  offset="0" style="stop-color:#41A247"/>
			<stop  offset="1" style="stop-color:#296733"/>
		</linearGradient>
		<path fill="url(#SVGID_28_)" stroke="#594A42" stroke-miterlimit="10" d="M682.1,74.3c-1.7,2.8-2.9,0.5-5.5,1.8
			c-0.7,0.4-0.8,1.4-1.7,1.6c-1.3,0.2-1.7-1.6-2.3-2.3c-1.9-2.2-1.4-0.3-3.5,0.2c-0.9,0.2-1.7-0.5-2.5-0.4c-1,0.2-1.9,1.2-2.9,1.4
			c-1.6,0.3-2.9-0.1-3.1-1.7c-0.2-1.8,0.6-1.3,1.7-2.1c1.2-0.8,1.4-0.7,1.3-2.2c-0.1-0.8-0.5-2.2-1.4-2.5c-1-0.5-1.6,0.4-2.7-0.2
			c-1.2-0.7-0.5-2.1-1-3.1c-0.4-0.7-1.1-0.7-1.4-1.3c-0.5-1.1,0-1.9-0.2-3.1c-0.3-1.5-1.6-2-0.3-3.3c0.4-0.4,1.3-0.6,1.8-0.9
			c1-0.6,1.1-1,2.3-1.4c1.2-0.3,3.1-0.7,4.3-0.8c1.9-0.1,2.4,1.5,3.8,2c0.1-3.5,5.4-2.8,7.4-1.5c1,0.6,2.2,2,2.3,3.3
			c0.3,2.5-3.3,2.6-5.2,2.5c-0.5,2.1,2.1,1.8,3.2,2.1c1.4,0.4,4.5,2.4,5.1,3.6c1.3,2.3-3.3,6.1,0.2,8.1"/>
		
			<linearGradient id="SVGID_29_" gradientUnits="userSpaceOnUse" x1="648.9964" y1="129.8522" x2="648.9964" y2="142.7256" gradientTransform="matrix(0.9999 -1.201599e-002 1.201599e-002 0.9999 -3.2753 7.651)">
			<stop  offset="0" style="stop-color:#41A247"/>
			<stop  offset="1" style="stop-color:#296733"/>
		</linearGradient>
		<path fill="url(#SVGID_29_)" stroke="#594A42" stroke-miterlimit="10" d="M646.6,129.8c-1.5-0.1-5.3-0.3-6.4,0.4
			c-2.9,2-0.2,3.1,1.1,4.5c2.1,2.2,4.1,5.2,5.5,7.8c0.5-2.7,6.5-5.6,8.9-5.6c-2.5-1.2-2-3.7-5.8-2.8c0.3-1.8-0.2-3.6-2.3-3.4"/>
		
			<linearGradient id="SVGID_30_" gradientUnits="userSpaceOnUse" x1="1889.3947" y1="244.2293" x2="1889.3947" y2="315.8628" gradientTransform="matrix(-0.8001 -0.4203 -0.4098 0.8112 2276.6326 602.7372)">
			<stop  offset="0" style="stop-color:#41A247"/>
			<stop  offset="1" style="stop-color:#296733"/>
		</linearGradient>
		<path fill="url(#SVGID_30_)" stroke="#594A42" stroke-miterlimit="10" d="M691.3,38.9c-1.3,1.5-4.4,2.6-4.9,4.6
			c-0.2,0.7,0.1,2.1,0.7,2.7c0.9,1,2.1,0.3,2.7,0.9c3.1,2.9-3.2,6.1-4.1,8.8c1.7,1.9,3.2,2.7-0.1,4.2c-1.3-2.1-2.2-6.5-4.8-8.2
			c-2.7-1.8-4.7,0.5-3-3.6c0.5-1.2,2.3-4.5,0.4-5.3c-2.6-1.2-2.1,3.1-2.9,4c-1.8,2.1-3.9,0.5-3.1-1.9c0.6-1.6,2.8-2.2,2.4-4.2
			c-0.7-3.1-4.7-1.5-6.9-2c0.7-3.2,1.3-6-2.6-7.4c-2.9,2.6-5.5,2.9-7.3-1c-0.8-1.6-0.3-2.9-2.3-3.4c-1.5-0.4-4.6,0.7-5,2.3
			c1.9,1.4,4.3,2.3,6.4,3.5c-1.5,3.1-2.9,5.1-5.3,7.3c-2.4-1.1-3.5-1.7-4.7-3.7c-0.7,0.8-1.3,2-2.2,2.7c-1.1-1.8-2.7-2.1-3.3-4.1
			c-1-2.9-0.4-3-4-4c-1.5-0.4-6.8-2.8-7.7-1.7c-1.9,2.5,4.4,5.4,5.9,6.2c1.8,1,2,0.8,3.6,1c1,0.1,1.4-0.8,2.5-0.1
			c1.3,0.9,1.2,3.7,0.5,4.9c-1.2,2.2-7.2,6.5-6.2,1.1c-2.9-0.7-4.2,2.9-5.1,5.1c-3.2-1.5-5.1-2.4-8.3-1.7c-2.9,0.6-4.7-1.4-7.6-2.8
			c-1.9-0.9-3.2-1.7-5.2-1c-1.3,0.5-2.4,1.6-3.6,2.3c-2.6,1.6-6.2,1.9-9.1,0.3c0.1-2.5,1.7-6.1,3.6-7.2c2.9-1.6,8-0.4,10.3-2.3
			c0.9-0.7,1.1-2.7,1.8-3.7c1.4-1.9,1.5-1,3.3-1.8c1-0.5,2.5-1.6,2.5-3c0-1.5-1.8-2.1-0.5-3.5c3,0.8,4.3,3.5,6.2-1.1
			c-2.8-1.2-1.9-4.1-0.8-6.3c0.5-1,1.1-2.2,1.8-3.1c1.5-1.6,1.2-1,3.4-1.1c3.1-0.1,2.7-1,4-3.4c1.4-2.5,3.5-2.4,6-2.1
			c1.3,0.2,1.7,1.3,2.8,0c1.2-1.4-0.4-1.7-0.2-2.7c0.8-2.6,3.9-3.4,6.6-2.7c1.4,0.4,1.8,0.6,3.3,0.7c2.9,0.2,4.2-0.5,6,1.9
			c1.5,1.9,3.2,4.5,2.1,6.8c1.2,2,2.2,0.9,4.1,0.9c2.1,0,1.7,1,3,1.9c2.1,1.4,2.2,1,4.1-0.1c1.5-0.8,1.4-2,2.8-0.4
			c1.9,2.2,0.6,5.4-2.1,5.1c-1.9-0.2-2.7-1.8-4.1,0.1c-1.2,1.6-0.3,2.2,0.8,3.4c2.2,2.3,5.4,2.1,7.8,4.2c2.1,1.8,3.7,4.4,6.6,4.1
			c2.4-0.3,3.9-3.3,6-3.6c1.1-0.2,1.6,0.6,2.7,0.8c1.7,0.4,2.9-0.5,4.5-0.2c2.3,0.5,2.2,3.7,3.3,5.2c0.6,0.9,2.8,1.6,1.2,3.2
			c-0.9,0.9-2,0-3-0.3c-3.4-1.2-7.2-3.7-10.9-3.3c-2,0.2-5.7,1.5-6.3,3.5c1.6,2.2,3,2,5.5,2.6c1.6,0.4,6.3,1.1,5.9,3.2"/>
	</g>
</g>
</svg>
