<?xml version="1.0" encoding="utf-8"?>
<!-- Generator: Adobe Illustrator 17.1.0, SVG Export Plug-In . SVG Version: 6.00 Build 0)  -->
<!DOCTYPE svg PUBLIC "-//W3C//DTD SVG 1.1//EN" "http://www.w3.org/Graphics/SVG/1.1/DTD/svg11.dtd">
<svg version="1.1" id="Layer_1" xmlns="http://www.w3.org/2000/svg" xmlns:xlink="http://www.w3.org/1999/xlink" x="0px" y="0px"
	 viewBox="0 0 761 712" enable-background="new 0 0 761 712" xml:space="preserve">
<g id="background_1_">
	
		<rect x="5.849" y="661.221" opacity="0.3" fill="#BCBEC0" stroke="#939598" stroke-miterlimit="10" width="749.987" height="45.333"/>
	<rect x="262.506" y="661.221" opacity="0.1" fill="#939598" width="203.624" height="45.333"/>
	<rect x="466.13" y="661.221" opacity="0.2" fill="#939598" width="111.572" height="45.333"/>
	<rect x="578.022" y="661.221" opacity="0.25" fill="#939598" width="177.8" height="45.333"/>
</g>
<linearGradient id="sky_1_" gradientUnits="userSpaceOnUse" x1="380.2451" y1="76.1542" x2="380.2451" y2="560.6483">
	<stop  offset="0" style="stop-color:#A7BEE2"/>
	<stop  offset="0.0158" style="stop-color:#ADC2E4"/>
	<stop  offset="0.0941" style="stop-color:#C4D4EC"/>
	<stop  offset="0.1833" style="stop-color:#D7E2F3"/>
	<stop  offset="0.2883" style="stop-color:#E4EDF7"/>
	<stop  offset="0.4244" style="stop-color:#ECF4FA"/>
	<stop  offset="0.7043" style="stop-color:#EEF7FC"/>
</linearGradient>
<rect id="sky" x="6.13" y="76.154" fill="url(#sky_1_)" width="748.23" height="484.494"/>
<g id="treeline">
	<linearGradient id="SVGID_1_" gradientUnits="userSpaceOnUse" x1="583.4066" y1="449.2385" x2="583.4066" y2="447.6044">
		<stop  offset="0" style="stop-color:#D2E5D4"/>
		<stop  offset="1" style="stop-color:#94BBA9"/>
	</linearGradient>
	<path fill="url(#SVGID_1_)" d="M583.554,449.239c0.006-0.59-0.086-1.158-0.296-1.634
		C583.34,448.139,583.443,448.688,583.554,449.239z"/>
	<linearGradient id="SVGID_2_" gradientUnits="userSpaceOnUse" x1="577.7021" y1="467.643" x2="577.7021" y2="467.3354">
		<stop  offset="0" style="stop-color:#D2E5D4"/>
		<stop  offset="1" style="stop-color:#94BBA9"/>
	</linearGradient>
	<path fill="url(#SVGID_2_)" d="M578.428,467.64c-0.406-0.147-0.851-0.288-1.452-0.305
		C577.557,467.572,578.033,467.661,578.428,467.64z"/>
	<linearGradient id="SVGID_3_" gradientUnits="userSpaceOnUse" x1="523.9591" y1="495.9303" x2="523.9591" y2="495.8281">
		<stop  offset="0" style="stop-color:#D2E5D4"/>
		<stop  offset="1" style="stop-color:#94BBA9"/>
	</linearGradient>
	<path fill="url(#SVGID_3_)" d="M524.409,495.888c-0.266-0.068-0.581-0.067-0.9-0.048
		C523.764,495.934,524.057,495.963,524.409,495.888z"/>
	<linearGradient id="SVGID_4_" gradientUnits="userSpaceOnUse" x1="398.7864" y1="612.1487" x2="398.7864" y2="434.293">
		<stop  offset="0" style="stop-color:#D2E5D4"/>
		<stop  offset="1" style="stop-color:#94BBA9"/>
	</linearGradient>
	<path fill="url(#SVGID_4_)" d="M754.24,516.991c-0.004-0.291-0.052-0.614-0.066-0.907c-0.838-0.628-1.992-1.188-3.08-1.093
		c-0.244-1.197-0.63-2.346-0.524-3.621c0.536-0.045,1.393-0.491,1.789-0.513c-2.203-1.191-4.996-6.435-0.085-5.567
		c-0.948-1.26-2.429-2.582-2.784-4.145c0.445,0.123,1.237-0.025,1.749,0.095c-0.475-1.454-1.531-2.633-2.018-4.13
		c-0.596-1.834,0.283-4.022-0.743-5.707c0.411,2.248-1.168,4.737-2.645,5.97c0.523-0.244,1.251-0.158,1.715-0.263
		c0.187,2.432-1.409,4.704-1.644,6.888c0.496-0.114,1.205,0.153,1.704,0.068c0.403,2.257-2.363,4.959-1.212,6.686
		c0.592-0.305,1.258-0.322,1.788-0.961c0.814,1.885,0.152,6.262-2.845,3.987c-2.525-1.917,0.266-3.474-0.346-5.657
		c-1.887-0.117-2.536-2.28-2.243-3.819c0.382,0.044,0.879-0.14,1.208-0.116c0.756-2.565-2.646-2.795-2.562-5.064
		c0.32,0.019,0.87-0.148,1.243-0.143c-0.829-1.154-1.21-4.458-3.073-4.157c-0.437,1.099-1.235,2.13-1.579,3.174
		c0.29-0.314,1.206-0.813,1.496-1.203c1.097,3.52-0.966,3.555-2.307,5.691c0.708,0.306,1.69,0.426,2.579,0.331
		c-0.358,0.563-2.693,2.644-2.56,3.405c0.33,1.875,1.388-0.027,2.377,0.302c2.375,0.792,0.361,0.84-0.532,2.279
		c-0.846,1.363-0.459,3.246-2.089,4.2c-1.044-2.089,0.812-3.956-1.108-5.229c-0.895-0.593-3.779-0.164-3.304-2.707
		c0.794,0.096,1.455-0.31,2.221-0.307c0.268-2.598-1.202-2.962-2.573-4.549c-1.054-1.22-2.01-3.069,0.292-2.799
		c-1.21-0.52-0.878-2.69-0.772-3.856c0.58,0.217,1.18,0.037,1.769,0.186c-0.75-1.506-1.692-2.88-2.551-4.463
		c-0.944-1.74-0.99-3.709-1.631-5.492c-0.764,1.479-0.161,4.092-1.534,5.328c0.021-0.029,0.733-0.734,0.957-1.011
		c0.326,1.982-0.324,3.783-1.485,4.888c0.314,0,0.666,0.043,0.981,0.075c-0.04,1.243-0.301,2.73-1.518,3.411
		c0.427-0.143,1.255-0.052,1.715-0.166c0.39,1.794-2.912,4.37,0.591,5.01c-0.217,1.512-0.794,4.516-1.528,5.937
		c-0.46-0.385-1.849-2.526-1.867-3.243c-0.033-1.266,1.833-2.258-0.202-2.78c1.522-2.23-0.486-5.309-1.357-7.976
		c-0.233,1.091-1.025,2.494-1.798,3.493c0.019,0.454,0.245,1.281,0.501,1.695c0.183-0.161,0.287-0.248,0.491-0.381
		c-0.859,0.846-1.402,2.124-2.596,2.774c0.771,1.153,1.949,1.039,2.857,0.227c-0.964,1.055-0.775,2.335-0.794,3.691
		c-3.51-0.576-2.086-2.254-2.576-4.488c-0.208-0.946-2.953-3.544-0.032-3.531c-0.734-1.429-1.803-2.395-2.346-3.962
		c-0.501-1.445-0.666-2.96-1.316-4.436c0.031,1.918,0.286,3.905,0.262,5.699c-0.012,0.878-0.005,0.955-0.178,1.993
		c-0.152,0.916-1.064,1.297-0.347,2.481c0.266-0.26,1.069-0.787,1.06-0.773c0.367,3.149-2.626,3.486-1.874,0.569
		c-0.445,0.038-1.064-0.155-1.493-0.069c1.244-3,0.163-3.406-1.35-6.431c0.628,0.113,1.437-0.172,2.061-0.069
		c-0.973-2.112-1.583-6.718-2.994-8.404c-0.257,1.601,0.347,3.719-1.074,4.898c0.381-0.147,0.821-0.069,1.179-0.182
		c0.553,1.956-1.105,3.718-2.823,4.438c0.816-0.33,1.511-0.098,2.352-0.108c-1.168,0.667-1.942,1.681-1.808,3.112
		c1.114,0.173,2.138-0.363,3.072-0.679c-1.487,6.301-8.443-0.204-4.182-1.746c-2.177,0.274-8.214-5.641-1.116-4.318
		c-0.005-0.053,0.034-0.595,0.047-0.682c-1.042-0.515-6.441-2.994-2.882-3.829c0.027,0.046,0.037-0.724-0.001-0.671
		c-1.601-0.253-2.296-3.654-0.512-3.842c-1.501-1.205-1.913-4.339-3.34-5.183c-0.214,1.344,0.048,3.099-1.586,3.537
		c1.361,1.567-1.459,1.48-1.559,2.907c4.939-0.348,1.372,2.806-0.44,4.306c0.832,0.336,1.667,0.137,2.405-0.436
		c0.687,3.006-2.87,3.08-2.751,5.393c0.942-0.272,2.062-0.334,3.066-0.187c0.33,1.823-4.142,5.964-5.949,5.674
		c-0.095-1.6-0.334-5.619,1.616-5.109c-1.436-0.615-3.297-1.997-2.929-3.579c1.06-0.217,0.833-0.421,1.238-1.175
		c-2.273-0.197-4.772-3.587-1.306-3.136c-0.615-1.205-4.953-6.914-0.792-6.258c-1.512-2.734-3.018-5.566-2.837-8.899
		c-0.722,1.072-1.318,2.273-1.527,3.693c-0.19,1.294,0.614,3.595-1.388,3.093c0.146,1.109-0.173,2.092-1.241,2.418
		c0.603-0.158,1.393,0.032,2.005,0.015c0.172,1.982-1.691,2.055-2.047,3.205c-0.417,1.344,0.233,2.528,2.062,1.288
		c0.072,2.301-2.825,2.953-2.816,4.693c0.697-0.111,1.6,0.202,2.291,0.076c-0.323,1.708-2.088,2.532-3.748,2.907
		c-0.264-0.102-0.523-0.221-0.7-0.438c-1.162-1.426-2.438-3.203-2.831-4.975c1.397-0.105,2.673-0.525,4.081-0.52
		c-1.882-0.882-4.202-2.302-3.813-4.724c0.795,0.001,1.05-0.463,1.768-0.586c-0.689-1.919-2.239-3.708-3.36-5.427
		c0.89,0.239,1.894,0.335,2.836,0.175c-1.032-1.113-2.712-2.797-3.125-4.195c-0.683-2.314-0.109-5.519-0.524-7.94
		c0.038,4.826-0.857,6.167-4.854,9.402c0.782-0.057,1.641,0.129,2.422,0.071c-0.142,1.296-0.885,3.584,1.364,3.263
		c-0.32,1.249-1.238,2.692-2.816,2.737c-0.085,1.468,1.488,1.791,2.756,1.806c-0.441,1.467-1.927,1.798-2.788,2.881
		c0.772-0.33,1.542-0.078,2.316-0.186c-0.071,1.401-0.343,2.786-0.174,4.216c0.333-0.366,0.95-0.685,1.288-1.124
		c-0.154,2.42-4.177,2.975-4.307,4.717c-0.115,1.536,2.567,1.789,3.681,0.707c-0.194,0.805-0.845,8.322-3.616,5.713
		c-1.197-1.127,0.907-2.106,1.025-3.108c0.309-2.615-0.454-1.226-1.533-2.411c-0.59-0.648-1.771-0.306-1.577-1.499
		c0.259-1.589,1.701-0.118,2.625-0.738c1.426-0.956,0.697-3.214,0.421-4.73c-1.73,0.72-1.908-0.227-2.994-1.008
		c-0.596-0.429-1.304-0.198-1.699-1.019c-0.12-0.249-0.06-1.425-0.13-1.484c0.686,0.582,1.565,0.841,2.503,0.716
		c-1.747-2.772-2.953-6.75-3.619-9.88c0.383,2.758-5.268,7.598-1.652,9.088c-0.389,0.887-2.678,2.007-2.75,2.805
		c-0.152,1.685,1.812,0.871,2.805,0.331c0.217,1.81-1.844,3.413-0.956,4.987c0.728-0.358,1.505-0.788,1.93-1.485
		c-0.929,2.003-0.955,4.312-1.754,6.385c-1.467,0.18-3.458-0.342-3.648-1.771c0.898-0.201,1.8-0.443,2.688-0.721
		c-0.361-2.014-6.635-3.278-5.24-5.445c0.988,0.202,2.017,0.994,3.034,1.202c-3.685-2.793-3.04-6.844-2.968-2.837
		c-1.753-0.606-2.5-2.055-2.256-3.854c-0.703-0.143-1.088-0.698-1.756-0.82c-0.108-1.537,0.031-3.135-0.105-4.665
		c-0.581,1.708-0.933,4.986-2.272,6.015c0.474-0.134,1.016,0.054,1.461-0.041c-0.421,1.295-1.165,2.436-2.093,3.437
		c1.002,0.051,1.963-0.086,2.747,0.014c-0.386,1.489-1.102,2.936-2.621,3.73c0.922,0.022,1.885,0.044,2.812,0.064
		c0.191,4.657-3.498,2.081-5.786,2.274c-0.74-2.3,2.323-2.729,1.853-4.714c-0.899-0.431-1.82-0.625-2.829-0.624
		c0.198-0.192,0.406-0.905,0.802-1.207c-1.185-1.021-2.962-4.272,0.14-4.062c-1.125-0.963-3.074-1.907-3.053-3.235
		c-0.175,1.159-0.924,2.181-2.092,2.591c0.519,0.774,1.535,0.727,2.587,0.489c-0.473,1.332-1.596,2.248-3.103,2.518
		c0.565,0.631,1.367,1.025,2.292,1.239c0.217,1.518-0.931,2.901-2.181,3.723c1.177-0.069,1.94-0.541,2.967-0.748
		c0.29,1.425-1.419,4.295-3.092,4.442c-1.991,0.176-2.081-2.062-4.45-1.743c0.321-0.427,0.28-1.071,0.884-1.552
		c-0.982-0.706-2.695-2.775-2.706-3.903c1.051,0.947,2.313,0.705,3.819,0.748c-2.963-0.73-3.315-6.317,0.525-5.813
		c-3.032-2.404-2.494-4.806-3.533-7.942c0.085,1.662-0.866,6.003-3.23,5.784c0.74,0.432,1.687,0.601,2.614,0.49
		c0.224,1.727-0.69,4.292-2.771,4.467c0.521-0.133,1.194,0.06,1.716,0.034c0.369,1.656-0.592,2.585-1.076,3.849
		c-0.377,0.984-1.498,0.214-0.869,1.573c0.254,0.549,1.629,0.011,1.937-0.173c-0.176,1.423-0.335,4.415-2.524,3.874
		c-1.288-0.318-3.062-3.342-1.132-3.755c0.478-2.108-1.503-1.416-2.346-2.832c-1.406-2.362,0.751-0.936,1.401-2.001
		c1.717-2.81-4.016-3.162-3.184-6.286c1-0.046,2.022-0.027,3.033-0.02c-1.387-0.691-6.284-5.874-2.052-5.306
		c-1.433-2.87-3.53-5.748-3.099-9.394c-0.676,1.839,0.796,7.945-2.857,7.218c0.268,0.645,0.246,1.507,0.459,2.182
		c-0.334,0.066-0.665,0.037-1.003,0.06c-0.016,1.199,1.341,1.25,2.457,1.021c-0.54,1.321-2.209,1.856-2.442,3.169
		c1.014,0.058,2.068,0.017,3.084,0.069c-0.439,0.972-0.465,2.019-0.962,2.787c-0.487-0.487-1.465-0.652-1.954-1.138
		c-0.407,0.448-0.421,0.385-0.424,1.032c5.176-0.305-1.748,4.066-2.065,5.013c1.981,0.054,3.6-0.785,5.398-0.693
		c0.069,1.878-2.492,2.77-3.628,3.918c0.882,0.293,1.856,0.374,2.791,0.35c-1.266,1.13-3.563,1.912-3.486,3.674
		c0.53-0.238,1.204-0.045,1.697-0.186c1.132,5.22-6.037-0.826-5.628-4.006c1.369-0.072,2.848,0.153,4.126-0.263
		c-1.842-2.755-5.139-5.864,0.71-4.794c-0.721-1.617-3.303-1.515-4.089-3.307c-0.86-1.96,1.545-3.228,3.268-4.436
		c-1.978,0.042-4.619,0.613-5.923-0.981c1.121-0.928,3.068-0.379,3.609-2.02c-1.43-0.083-5.138-3.909-5.719-5.444
		c0.518,0.095,1.225-0.147,1.748-0.061c-0.977-1.983-2.526-2.569-2.287-5.095c-0.632,2.55-0.635,4.044-3.261,5.325
		c0.774-0.332,1.77-0.432,2.541-0.217c-0.639,1.494-0.564,2.032-1.902,2.773c-0.126,0.07-0.279,0.104-0.447,0.121
		c-0.796-0.914-1.742-1.705-1.333-3.122c0.677,0.206,1.31-0.04,1.838-0.001c-2.172-2.666-2.679-5.073-2.679-8.559
		c-0.004,0.827,0.069,2.484-0.531,3.541c-0.702,1.236-2.342,1.598-2.051,3.225c0.628-0.186,1.428-0.088,2.017-0.442
		c-0.759,1.687-3.284,2.555-3.627,3.937c1.289,0.066,2.612,0.007,3.896,0.076c-0.185,0.931-0.984,1.494-2.017,1.506
		c-0.6,1.091-1.345,2.113-1.315,3.369c0.98-0.396,1.722-0.674,2.618-0.424c-0.283,2.431-2.618,2.349-3.155,4.218
		c1.106,0.332,2.334,0.392,3.489,0.318c0.759,2.683-2.445,3.266-4.291,4.083c-0.088-0.746,0.615-1.994,0.464-2.563
		c-0.205-0.767-0.896-0.794-1.321-1.538c-0.743-1.301-1.381-2.661-2.011-3.968c1.282,0.018,2.742-0.125,3.876-0.527
		c-0.573-2.586-4.882-2.839-4.442-6.367c0.851,0.951,2.739,0.329,4.019,0.13c-0.592-1.057-3.167-3.101-3.109-4.469
		c0.063-1.497,2.358-1.947,4.063-2.404c-0.907-1.54-2.55-2.611-3.373-4.545c0.723,0.007,1.67-0.251,2.467-0.089
		c-2.302-2.275-2.946-5.612-2.743-8.711c0.17-2.607,1.738-4.468,2.058-7.041c-1.736,1.626-3.643,4.389-4.344,6.793
		c-0.353,1.21-0.146,4.599-1.888,4.285c0.449,0.223,0.427,0.537,0.996,0.707c-0.31,2.887-3.968,1.885-4.653,4.158
		c1.902,0.285,2.732-1.895,4.646-0.406c0.076,1.56,0.603,3.91-1.774,3.548c-0.097,0.21-0.096,0.417,0.001,0.622
		c0.437-0.044,0.965,0.062,1.405,0.074c-1.473,2.91-4.219,2.684-6.101,0.27c-0.011,1.068-0.311,0.93,0.19,1.885
		c-0.447,0.094-1.197,0.532-1.605,0.552c1.753,0.9,3.713,0.92,5.791,1.037c-0.006,0.009-1.04,1.461-1.032,1.394
		c-0.02,0.163,0.1,1.442,0.023,1.569c-0.552,0.9-1.023,1.379-1.819,2.218c1.162-0.236,2.364-0.736,3.621-0.68
		c-0.379,1.649-0.541,3.707-3.015,2.745c-0.397,0.524-0.781,1.349-0.855,1.941c0.806-0.299,1.686-0.451,2.547-0.436
		c0.812,4.303-3.288,3.002-4.644,5.674c2.126,0.437,3.43-0.571,5.449-0.687c-0.421,1.007-0.219,2.469-0.819,3.436
		c-0.18,0.29-1.452-0.262-1.544,0.131c-0.169,0.723,0.385,0.733,0.358,1.095c-0.053,0.719,1.517,1.836,0.529,2.886
		c-0.986,1.048-1.883,0.01-1.979-1.005c-0.626,0.9-1.669,1.332-2.777,1.144c-0.43-1.727,0.303-2.307-0.303-3.467
		c-0.211-0.404-1.395,0.295-1.596-0.744c-0.076-0.396,1.714-1.179,2.055-1.269c-2.257-0.054-4.405-0.029-3.341-2.307
		c0.773-1.655,3.342-1.682,4.441-3.138c-1.104-0.052-3.928,0.42-4.695-0.283c-1.702-1.56,1.558-2.044,1.785-3.219
		c-1.993-0.403-4.046-0.897-2.534-3.247c0.365,0.005,1.017-0.217,1.243-0.214c-1.199-0.851-1.807-2.096-1.512-3.549
		c0.782,0.107,1.79-0.143,2.496-0.119c-1.075-2.023-2.162-2.849-2.739-4.974c-0.298-1.097-0.587-2.29-0.825-3.472
		c-0.018,1.68-0.852,3.546-2.161,4.04c0.119,0.012,0.704,0.27,1.067,0.287c0.317,2.266-1.611,3.68-3.158,4.712
		c0.144,0.007,0.861,0.275,1.249,0.289c-0.016,0.968-0.411,1.955-0.733,2.919c-1.252,0.099-2.79,0.684-2.805,2.012
		c1.169,0.052,2.389,0.013,3.558,0.068c-0.271,1.653-0.38,3.982-2.144,4.074c0.729,0.264,1.328,0.548,2.443,0.176
		c-0.281,1.431-2.257,3.216-3.811,3.656c0.893,0.047,1.864,0.038,2.77,0.094c0.062,2.936-2.832,1.883-3.361,3.863
		c1.414,0.2,2.967,0.066,4.422,0.136c-0.697,0.736-1.745,1.339-1.772,2.388c0.809-0.44,1.164-0.252,2.027-0.375
		c-0.786,1.023-2.321,1.635-2.56,2.851c1.456,0.084,1.886,1.246,1.5,2.574c-0.994,0.026-2.011,0.023-3.008-0.013
		c0.051-0.335-0.21-0.978-0.125-1.369c-0.83,0.254-1.709,0.159-2.555,0.119c-0.117-0.377-0.114-1.026-0.014-1.407
		c0.713-0.338,0.687-0.733,0.988-1.018c-1.295-0.018-2.658-0.951-2.545-2.258c1.209-0.344,2.54-0.43,3.403-1.038
		c-1.079-1.105-2.123-2.156-2.901-3.491c1.149-1.58,2.537-2.094,4.422-2.569c-0.794-0.168-3.08-1.802-3.334-2.737
		c-0.582-2.143,0.981-1.616,2.541-2.376c-1.528-0.411-3.077-1.829-3.348-3.275c0.967-0.306,2.286-0.383,3.085-0.738
		c-1.798,0.088-3.091-1.687-2.823-3.281c0.371,0.019,0.878-0.119,1.237-0.063c-1.15-2.258-1.762-3.873-1.853-6.699
		c-1.761,1.492-0.55,6.351-4.378,5.511c-0.011,0.328-0.03,0.62,0,0.951c0.885-0.146,1.65-0.281,2.498-0.442
		c0.805,2.769-1.25,2.337-2.576,3.723c1.142,0.906,2.763-0.025,3.7,1.188c-1.161,0.316-2.055,0.91-2.028,2.031
		c0.514-0.234,0.999-0.063,1.484-0.187c0.206,0.936,0.143,1.886-0.485,2.437c-1.397-2.161-2.683,0.479-2.32,1.992
		c0.375-0.253,1.409-0.425,1.762-0.672c-0.866,0.588-2.572,3.469,0.008,3.492c-0.311,1.167-0.507,2.298-1.291,3.326
		c-0.968-0.39-1.115-2.169-1.226-3.062c-0.09-0.724-0.918-0.342-0.81-1.307c0.053-0.475,0.981-0.614,1.002-0.738
		c0.3-1.775,1.042-0.765-0.729-2.512c-0.705-0.695-1.684-0.761-2.071-1.945c0.892-0.284,1.814-0.386,2.758-0.343
		c-0.389-1.162-1.707-1.826-2.101-3.071c0.732,0.429,1.133,0.155,1.775,0.29c0.008-1.526-0.846-2.575-1.271-3.925
		c-0.359-1.142-0.338-2.672-0.931-3.749c0.355,2.595-2.247,4.676-3.696,6.442c0.329,0.083,0.572,0.274,0.976,0.343
		c0.206,1.763-2.058,1.977-1.493,3.931c0.429-0.098,1.428-0.01,1.741-0.118c-0.945,0.862-2.683,1.024-2.268,2.612
		c0.598-0.163,1.438-0.098,2.044-0.437c-1.005,1.032-2.886,1.892-1.507,3.444c0.597-0.227,1.405-0.037,2.019-0.18
		c-0.159,0.585-0.919,1.144-1.001,1.568c0.022-0.114-0.648,2.028-0.606,1.943c-0.127,0.253-0.042,0.946-0.184,1.282
		c-0.107,0.253-0.92,0.275-1.073,0.664c-0.304,0.77-0.759,1.033-0.673,1.898c0.565-0.149,1.375,0.159,1.907,0.069
		c0.179,1.922-2.487,4.508-4.317,4.747c-0.416-2.154,1.998-0.542,1.674-2.562c-1.676,0.087-2.83,0.502-3.575-1.449
		c0.608,0.513,1.22,0.414,1.825,0.636c0.136-0.459,0.137-1.412,0-1.881c-2.325,0.111-2.711-1.701-4.061-3.124
		c1.226,0.891,2.705,0.69,3.468-0.664c-2.983-2.886-5.903-2.832-6.674-7.553c-0.502,1.718,0.789,3.496,0.504,4.948
		c-0.255,1.299-2.247,2.295-3.374,3.317c1.138-0.027,2.027-0.218,3.141-0.262c0.045,2.343-1.896,4.299-3.709,4.944
		c2.131,0.162,4.281,0.436,5.185-1.881c-0.076,3.188-3.211,4.905-4.665,6.888c1.545,0.118,3.752,0.528,4.989-0.631
		c-0.069,1.57-1.525,2.24-1.804,3.637c-0.872,0.01-1.855,0.227-2.442,0.731c0.671-0.223,0.913-0.142,1.424-0.424
		c-0.072,0.181,0.081,0.689,0.02,0.944c-2.629,0.399,0.875,3.276,1.906,3.799c-1.882,0.092-3.127-0.507-4.215-1.652
		c0.386,0.113,0.853,0.068,1.303-0.154c0.033-0.322,0.024-0.597,0.006-0.92c-1.306-0.409-3.024-0.867-3.692-2.241
		c0.961,0.2,1.782-0.039,2.279-0.809c-2.545-1.554-3.37-1.758-3.9-3.754c0.439,0.586,1.162,0.916,2.086,0.731
		c-2.063-1.395-2.658-3.168-3.735-5.455c-1.406,3.225,0.577,4.434-3.119,6.698c1.26,0.079,2.811,0.308,3.904-0.381
		c-1.033,2.724-2.997,2.579-4.84,4.187c1.19,0.415,3.117,0.474,4.259-0.231c-0.8,2.059-2.732,2.997-3.87,4.738
		c0.809,0.083,1.627-0.012,2.406-0.234c-0.19,0.167-0.416,0.31-0.727,0.393c1.361,1.567-1.459,1.48-1.559,2.907
		c0.721-0.051,1.243-0.02,1.633,0.063c-1.222,0.766-2.88,0.044-4.354-0.396c1.002,1.541,2.459,2.363,4.008,3.082
		c-0.123,0.125-0.248,0.249-0.378,0.372c-2.432-0.183-4.682-0.921-4.535-3.916c1.273,0.077,2.195,1.021,3.162-0.119
		c-1.329-0.345-4.547,0.497-4.205-1.882c0.904-0.034,1.77,0.131,2.662,0.188c-1.462-1.152-3.347-2.034-4.312-3.445
		c1.055,0.254,2.032,0.669,3.085,0.681c-0.541-1.893-2.87-2.326-3.487-4.461c-0.549-1.9-0.112-4.321-1.174-5.986
		c-0.909,2.12,0.301,4.113,0.187,6.23c-0.019,0.352-0.08,0.65-0.168,0.914c-0.555-1.483-0.898-3.041-0.806-4.729
		c-0.722,1.072-1.318,2.273-1.527,3.693c-0.19,1.294,0.614,3.595-1.388,3.093c0.146,1.109-0.173,2.092-1.241,2.418
		c0.603-0.158,1.393,0.032,2.005,0.015c0.172,1.982-1.691,2.055-2.047,3.205c-0.417,1.344,0.233,2.528,2.062,1.288
		c0.068,2.17-2.503,2.874-2.788,4.407c-1.317-0.435-2.308-1.026-2.425-2.53c0.488-0.075,0.98-0.136,1.49-0.134
		c-0.478-0.224-0.984-0.483-1.467-0.784c0.021-0.178,0.049-0.364,0.089-0.562c0.326-0.011,0.721-0.063,1.111-0.086
		c-1.164-0.432-1.46-2.387-2.072-3.787c0.094-0.033,0.182-0.071,0.295-0.091c-0.689-1.919-2.239-3.708-3.36-5.427
		c0.89,0.239,1.894,0.335,2.836,0.175c-1.032-1.113-2.712-2.797-3.125-4.195c-0.683-2.314-0.109-5.519-0.524-7.94
		c0.038,4.826-0.857,6.167-4.854,9.402c0.782-0.057,1.641,0.129,2.422,0.071c-0.142,1.296-0.885,3.584,1.364,3.263
		c-0.32,1.249-1.238,2.692-2.816,2.737c-0.085,1.468,1.488,1.791,2.756,1.806c-0.441,1.467-1.927,1.798-2.788,2.881
		c0.772-0.33,1.542-0.078,2.316-0.186c-0.071,1.401-0.343,2.786-0.174,4.216c0.333-0.366,0.95-0.685,1.288-1.124
		c-0.154,2.42-4.177,2.975-4.307,4.717c-0.115,1.536,2.567,1.789,3.681,0.707c-0.194,0.805-0.845,8.322-3.616,5.713
		c-1.197-1.127,0.907-2.106,1.025-3.108c0.309-2.615-0.454-1.226-1.533-2.411c-0.59-0.648-1.771-0.306-1.577-1.499
		c0.259-1.589,1.701-0.118,2.625-0.738c1.426-0.956,0.697-3.214,0.421-4.73c-1.73,0.72-1.908-0.227-2.994-1.008
		c-0.596-0.429-1.304-0.198-1.699-1.019c-0.12-0.249-0.06-1.425-0.13-1.484c0.686,0.582,1.565,0.841,2.503,0.716
		c-1.747-2.772-2.953-6.75-3.619-9.88c0.383,2.758-5.268,7.598-1.652,9.088c-0.389,0.887-2.678,2.007-2.75,2.805
		c-0.152,1.685,1.812,0.871,2.805,0.331c0.217,1.81-1.844,3.413-0.956,4.987c0.728-0.358,1.505-0.788,1.93-1.485
		c-0.929,2.003-0.955,4.312-1.754,6.385c-1.467,0.18-3.458-0.342-3.648-1.771c0.898-0.201,1.8-0.443,2.688-0.721
		c-0.361-2.014-6.635-3.278-5.24-5.445c0.988,0.202,2.017,0.994,3.034,1.202c-3.685-2.793-3.04-6.844-2.968-2.837
		c-1.753-0.606-2.5-2.055-2.256-3.854c-0.703-0.143-1.088-0.698-1.756-0.82c-0.108-1.537,0.031-3.135-0.105-4.665
		c-0.581,1.708-0.933,4.986-2.272,6.015c0.474-0.134,1.016,0.054,1.461-0.041c-0.421,1.295-1.165,2.436-2.093,3.437
		c1.002,0.051,1.963-0.086,2.747,0.014c-0.386,1.489-1.102,2.936-2.621,3.73c0.922,0.022,1.885,0.044,2.812,0.064
		c0.191,4.657-3.498,2.081-5.786,2.274c-0.74-2.3,2.323-2.729,1.853-4.714c-0.899-0.431-1.82-0.625-2.829-0.624
		c0.198-0.192,0.406-0.905,0.802-1.207c-1.185-1.021-2.962-4.272,0.14-4.062c-1.125-0.963-3.074-1.907-3.053-3.235
		c-0.175,1.159-0.924,2.181-2.092,2.591c0.519,0.774,1.535,0.727,2.587,0.489c-0.473,1.332-1.596,2.248-3.103,2.518
		c0.565,0.631,1.367,1.025,2.292,1.239c0.217,1.518-0.931,2.901-2.181,3.723c1.177-0.069,1.94-0.541,2.967-0.748
		c0.29,1.425-1.419,4.295-3.092,4.442c-1.991,0.176-2.081-2.062-4.45-1.743c0.321-0.427,0.28-1.071,0.884-1.552
		c-0.982-0.706-2.695-2.775-2.706-3.903c1.051,0.947,2.313,0.705,3.819,0.748c-2.963-0.73-3.315-6.317,0.525-5.813
		c-3.032-2.404-2.494-4.806-3.533-7.942c0.085,1.662-0.866,6.003-3.23,5.784c0.74,0.432,1.687,0.601,2.614,0.49
		c0.224,1.727-0.69,4.292-2.771,4.467c0.521-0.133,1.194,0.06,1.716,0.034c0.369,1.656-0.592,2.585-1.076,3.849
		c-0.377,0.984-1.498,0.214-0.869,1.573c0.254,0.549,1.629,0.011,1.937-0.173c-0.176,1.423-0.335,4.415-2.524,3.874
		c-1.288-0.318-3.062-3.342-1.132-3.755c0.478-2.108-1.503-1.416-2.346-2.832c-1.406-2.362,0.751-0.936,1.401-2.001
		c1.717-2.81-4.016-3.162-3.184-6.286c1-0.046,2.022-0.027,3.033-0.02c-1.387-0.691-6.284-5.874-2.052-5.306
		c-1.433-2.87-3.53-5.748-3.099-9.394c-0.676,1.839,0.796,7.945-2.857,7.218c0.268,0.645,0.246,1.507,0.459,2.182
		c-0.334,0.066-0.665,0.037-1.003,0.06c-0.016,1.199,1.341,1.25,2.457,1.021c-0.54,1.321-2.209,1.856-2.442,3.169
		c1.014,0.058,2.068,0.017,3.084,0.069c-0.439,0.972-0.465,2.019-0.962,2.787c-0.487-0.487-1.465-0.652-1.954-1.138
		c-0.407,0.448-0.421,0.385-0.424,1.032c5.176-0.305-1.748,4.066-2.065,5.013c1.981,0.054,3.6-0.785,5.398-0.693
		c0.069,1.878-2.492,2.77-3.628,3.918c0.882,0.293,1.856,0.374,2.791,0.35c-1.266,1.13-3.563,1.912-3.486,3.674
		c0.53-0.238,1.204-0.045,1.697-0.186c1.132,5.22-6.037-0.826-5.628-4.006c1.369-0.072,2.848,0.153,4.126-0.263
		c-1.842-2.755-5.139-5.864,0.71-4.794c-0.721-1.617-3.303-1.515-4.089-3.307c-0.86-1.96,1.545-3.228,3.268-4.436
		c-1.978,0.042-4.619,0.613-5.923-0.981c1.121-0.928,3.068-0.379,3.609-2.02c-1.43-0.083-5.138-3.909-5.719-5.444
		c0.518,0.095,1.225-0.147,1.748-0.061c-0.977-1.983-2.526-2.569-2.287-5.095c-0.632,2.55-0.635,4.044-3.261,5.325
		c0.774-0.332,1.77-0.432,2.541-0.217c-0.639,1.494-0.564,2.032-1.902,2.773c-0.126,0.07-0.279,0.104-0.447,0.121
		c-0.796-0.914-1.742-1.705-1.333-3.122c0.677,0.206,1.31-0.04,1.838-0.001c-2.172-2.666-2.679-5.073-2.679-8.559
		c-0.004,0.827,0.069,2.484-0.531,3.541c-0.702,1.236-2.342,1.598-2.051,3.225c0.628-0.186,1.428-0.088,2.017-0.442
		c-0.759,1.687-3.284,2.555-3.627,3.937c1.289,0.066,2.612,0.007,3.896,0.076c-0.185,0.931-0.984,1.494-2.017,1.506
		c-0.6,1.091-1.345,2.113-1.315,3.369c0.98-0.396,1.722-0.674,2.618-0.424c-0.283,2.431-2.618,2.349-3.155,4.218
		c1.106,0.332,2.334,0.392,3.489,0.318c0.759,2.683-2.445,3.266-4.291,4.083c-0.088-0.746,0.615-1.994,0.464-2.563
		c-0.205-0.767-0.896-0.794-1.321-1.538c-0.743-1.301-1.381-2.661-2.011-3.968c1.282,0.018,2.742-0.125,3.876-0.527
		c-0.573-2.586-4.882-2.839-4.442-6.367c0.851,0.951,2.739,0.329,4.019,0.13c-0.592-1.057-3.167-3.101-3.109-4.469
		c0.063-1.497,2.358-1.947,4.063-2.404c-0.907-1.54-2.55-2.611-3.373-4.545c0.723,0.007,1.67-0.251,2.467-0.089
		c-2.302-2.275-2.946-5.612-2.743-8.711c0.17-2.607,1.738-4.468,2.058-7.041c-1.736,1.626-3.643,4.389-4.344,6.793
		c-0.353,1.21-0.146,4.599-1.888,4.285c0.449,0.223,0.427,0.537,0.996,0.707c-0.31,2.887-3.968,1.885-4.653,4.158
		c1.902,0.285,2.732-1.895,4.646-0.406c0.076,1.56,0.603,3.91-1.774,3.548c-0.097,0.21-0.096,0.417,0.001,0.622
		c0.437-0.044,0.965,0.062,1.405,0.074c-1.473,2.91-4.219,2.684-6.101,0.27c-0.011,1.068-0.311,0.93,0.19,1.885
		c-0.447,0.094-1.197,0.532-1.605,0.552c1.753,0.9,3.713,0.92,5.791,1.037c-0.006,0.009-1.04,1.461-1.032,1.394
		c-0.02,0.163,0.1,1.442,0.023,1.569c-0.552,0.9-1.023,1.379-1.819,2.218c1.162-0.236,2.364-0.736,3.621-0.68
		c-0.379,1.649-0.541,3.707-3.015,2.745c-0.397,0.524-0.781,1.349-0.855,1.941c0.806-0.299,1.686-0.451,2.547-0.436
		c0.812,4.303-3.288,3.002-4.644,5.674c2.126,0.437,3.43-0.571,5.449-0.687c-0.421,1.007-0.219,2.469-0.819,3.436
		c-0.18,0.29-1.452-0.262-1.544,0.131c-0.169,0.723,0.385,0.733,0.358,1.095c-0.053,0.719,1.517,1.836,0.529,2.886
		c-0.986,1.048-1.883,0.01-1.979-1.005c-0.626,0.9-1.669,1.332-2.777,1.144c-0.43-1.727,0.303-2.307-0.303-3.467
		c-0.211-0.404-1.395,0.295-1.596-0.744c-0.076-0.396,1.714-1.179,2.055-1.269c-2.257-0.054-4.405-0.029-3.341-2.307
		c0.773-1.655,3.342-1.682,4.441-3.138c-1.104-0.052-3.928,0.42-4.695-0.283c-1.702-1.56,1.558-2.044,1.785-3.219
		c-1.993-0.403-4.046-0.897-2.534-3.247c0.365,0.005,1.017-0.217,1.243-0.214c-1.199-0.851-1.807-2.096-1.512-3.549
		c0.782,0.107,1.79-0.143,2.496-0.119c-1.075-2.023-2.162-2.849-2.739-4.974c-0.298-1.097-0.587-2.29-0.825-3.472
		c-0.018,1.68-0.852,3.546-2.161,4.04c0.119,0.012,0.704,0.27,1.067,0.287c0.317,2.266-1.611,3.68-3.158,4.712
		c0.144,0.007,0.861,0.275,1.249,0.289c-0.016,0.968-0.411,1.955-0.733,2.919c-1.252,0.099-2.79,0.684-2.805,2.012
		c1.169,0.052,2.389,0.013,3.558,0.068c-0.271,1.653-0.38,3.982-2.144,4.074c0.729,0.264,1.328,0.548,2.443,0.176
		c-0.281,1.431-2.257,3.216-3.811,3.656c0.893,0.047,1.864,0.038,2.77,0.094c0.062,2.936-2.832,1.883-3.361,3.863
		c1.414,0.2,2.967,0.066,4.422,0.136c-0.697,0.736-1.745,1.339-1.772,2.388c0.809-0.44,1.164-0.252,2.027-0.375
		c-0.786,1.023-2.321,1.635-2.56,2.851c1.456,0.084,1.886,1.246,1.5,2.574c-0.994,0.026-2.011,0.023-3.008-0.013
		c0.051-0.335-0.21-0.978-0.125-1.369c-0.83,0.254-1.709,0.159-2.555,0.119c-0.117-0.377-0.114-1.026-0.014-1.407
		c0.713-0.338,0.687-0.733,0.988-1.018c-1.295-0.018-2.658-0.951-2.545-2.258c1.209-0.344,2.54-0.43,3.403-1.038
		c-1.079-1.105-2.123-2.156-2.901-3.491c1.149-1.58,2.537-2.094,4.422-2.569c-0.794-0.168-3.08-1.802-3.334-2.737
		c-0.582-2.143,0.981-1.616,2.541-2.376c-1.528-0.411-3.077-1.829-3.348-3.275c0.967-0.306,2.286-0.383,3.085-0.738
		c-1.798,0.088-3.091-1.687-2.823-3.281c0.371,0.019,0.878-0.119,1.237-0.063c-1.15-2.258-1.762-3.873-1.853-6.699
		c-1.761,1.492-0.55,6.351-4.378,5.511c-0.011,0.328-0.03,0.62,0,0.951c0.885-0.146,1.65-0.281,2.498-0.442
		c0.805,2.769-1.25,2.337-2.576,3.723c1.142,0.906,2.763-0.025,3.7,1.188c-1.161,0.316-2.055,0.91-2.028,2.031
		c0.514-0.234,0.999-0.063,1.484-0.187c0.206,0.936,0.143,1.886-0.485,2.437c-1.397-2.161-2.683,0.479-2.32,1.992
		c0.375-0.253,1.409-0.425,1.762-0.672c-0.866,0.588-2.572,3.469,0.008,3.492c-0.311,1.167-0.507,2.298-1.291,3.326
		c-0.968-0.39-1.115-2.169-1.226-3.062c-0.09-0.724-0.918-0.342-0.81-1.307c0.053-0.475,0.981-0.614,1.002-0.738
		c0.3-1.775,1.042-0.765-0.729-2.512c-0.705-0.695-1.684-0.761-2.071-1.945c0.892-0.284,1.814-0.386,2.758-0.343
		c-0.389-1.162-1.707-1.826-2.101-3.071c0.732,0.429,1.133,0.155,1.775,0.29c0.008-1.526-0.846-2.575-1.271-3.925
		c-0.359-1.142-0.338-2.672-0.931-3.749c0.355,2.595-2.247,4.676-3.696,6.442c0.329,0.083,0.572,0.274,0.976,0.343
		c0.206,1.763-2.058,1.977-1.493,3.931c0.429-0.098,1.428-0.01,1.741-0.118c-0.945,0.862-2.683,1.024-2.268,2.612
		c0.598-0.163,1.438-0.098,2.044-0.437c-1.005,1.032-2.886,1.892-1.507,3.444c0.597-0.227,1.405-0.037,2.019-0.18
		c-0.159,0.585-0.919,1.144-1.001,1.568c0.022-0.114-0.648,2.028-0.606,1.943c-0.127,0.253-0.042,0.946-0.184,1.282
		c-0.107,0.253-0.92,0.275-1.073,0.664c-0.304,0.77-0.759,1.033-0.673,1.898c0.565-0.149,1.375,0.159,1.907,0.069
		c0.179,1.922-2.487,4.508-4.317,4.747c-0.416-2.154,1.998-0.542,1.674-2.562c-1.676,0.087-2.83,0.502-3.575-1.449
		c0.608,0.513,1.22,0.414,1.825,0.636c0.136-0.459,0.137-1.411,0-1.881c-2.325,0.111-2.711-1.701-4.061-3.124
		c1.226,0.891,2.705,0.69,3.468-0.665c-2.983-2.886-5.903-2.832-6.674-7.553c-0.502,1.718,0.789,3.497,0.504,4.949
		c-0.255,1.299-2.247,2.295-3.374,3.317c1.138-0.027,2.027-0.218,3.141-0.262c0.045,2.343-1.896,4.299-3.709,4.944
		c2.131,0.162,4.281,0.436,5.185-1.881c-0.076,3.188-3.211,4.905-4.665,6.887c1.546,0.118,3.752,0.528,4.989-0.631
		c-0.069,1.57-1.525,2.239-1.804,3.637c-0.872,0.01-1.855,0.227-2.442,0.731c0.671-0.223,0.913-0.142,1.424-0.424
		c-0.072,0.181,0.081,0.689,0.02,0.944c-2.629,0.399,0.875,3.276,1.906,3.799c-1.882,0.092-3.127-0.507-4.215-1.652
		c0.386,0.113,0.852,0.068,1.303-0.154c0.033-0.322,0.024-0.597,0.006-0.92c-1.306-0.409-3.024-0.867-3.692-2.241
		c0.961,0.2,1.782-0.039,2.279-0.809c-2.546-1.554-3.37-1.758-3.9-3.754c0.439,0.586,1.162,0.917,2.087,0.731
		c-2.063-1.395-2.658-3.168-3.735-5.455c-1.406,3.225,0.577,4.434-3.119,6.698c1.261,0.079,2.811,0.308,3.904-0.381
		c-1.033,2.724-2.997,2.579-4.84,4.187c1.19,0.414,3.117,0.474,4.259-0.231c-0.8,2.059-2.732,2.997-3.87,4.738
		c1.644,0.169,3.329-0.395,4.638-1.274c0.034,1.433-1.835,3.191-3.134,3.768c0.289,0.003,0.618,0.044,0.892,0.037
		c-1.23,1.653-3.243,0.724-4.996,0.201c1.204,1.851,3.063,2.668,4.953,3.511c-2.865-0.044-6.03-0.437-5.857-3.973
		c1.273,0.077,2.195,1.021,3.162-0.119c-1.329-0.345-4.547,0.497-4.205-1.882c0.904-0.034,1.77,0.131,2.662,0.188
		c-1.462-1.152-3.347-2.034-4.312-3.445c1.055,0.254,2.032,0.669,3.085,0.681c-0.541-1.893-2.87-2.326-3.487-4.461
		c-0.549-1.9-0.112-4.321-1.174-5.986c-0.909,2.12,0.301,4.112,0.187,6.23c-0.137,2.556-2.363,2.442-2.736,4.717
		c1.115,0.069,1.938-0.387,2.98-0.424c-1.009,1.294-2.406,2.503-3.907,3.019c0.231,0.245,0.508,0.407,0.802,0.529
		c-0.539,1.512-0.128,3.829-1.4,4.975c0.021-0.029,0.733-0.734,0.957-1.011c0.326,1.982-0.324,3.783-1.485,4.888
		c0.314,0,0.666,0.043,0.981,0.075c-0.012,0.361-0.047,0.741-0.113,1.118c-1.237-0.735-2.309-2.038-3.184-3.1
		c0.887-0.041,1.859-0.021,2.78-0.018c-2.442-0.71-4.569-1.048-3.887-4.475c0.326-0.011,0.721-0.063,1.11-0.086
		c-1.532-0.568-1.554-3.789-2.784-4.881c-0.888,1.182,0.361,2.17-0.102,3.428c-0.505,1.374-2.122,1.525-2.511,2.982
		c1.255,0,2.59-0.495,3.678-0.918c-0.078,3.313-2.791,3.093-3.728,5.394c1.147,0.333,2.312,0.53,3.328-0.12
		c-0.608,1.552-1.982,2.678-2.449,4.127c0.306,0.033,0.62,0.095,0.888,0.128c0.077,0.943-0.092,1.753-0.512,2.564
		c-0.362-0.004-0.749,0.013-1.137,0.053c-0.719-1.121-1.648-2.532,0.507-2.522c-0.734-1.429-1.803-2.395-2.346-3.962
		c-0.501-1.445-0.666-2.96-1.316-4.436c0.031,1.918,0.286,3.905,0.262,5.699c-0.012,0.878-0.005,0.955-0.178,1.993
		c-0.152,0.916-1.064,1.297-0.347,2.481c0.266-0.26,1.069-0.787,1.06-0.773c0.367,3.149-2.626,3.486-1.874,0.569
		c-0.445,0.038-1.064-0.155-1.493-0.069c1.244-3,0.163-3.406-1.35-6.431c0.628,0.113,1.437-0.172,2.061-0.069
		c-0.973-2.112-1.583-6.718-2.994-8.404c-0.257,1.601,0.347,3.719-1.074,4.898c0.381-0.147,0.821-0.069,1.179-0.182
		c0.553,1.956-1.105,3.718-2.823,4.438c0.816-0.33,1.511-0.098,2.352-0.108c-1.168,0.667-1.942,1.681-1.808,3.112
		c1.114,0.173,2.138-0.363,3.072-0.679c-1.487,6.301-8.443-0.204-4.182-1.746c-2.177,0.274-8.214-5.641-1.116-4.318
		c-0.005-0.053,0.034-0.595,0.047-0.682c-1.042-0.515-6.441-2.994-2.882-3.829c0.027,0.046,0.037-0.724-0.001-0.671
		c-1.601-0.253-2.296-3.654-0.512-3.842c-1.501-1.205-1.913-4.339-3.34-5.183c-0.214,1.344,0.048,3.099-1.586,3.537
		c1.361,1.567-1.459,1.48-1.559,2.907c4.939-0.348,1.372,2.806-0.44,4.306c0.832,0.336,1.667,0.137,2.405-0.436
		c0.687,3.006-2.87,3.08-2.751,5.393c0.942-0.272,2.062-0.334,3.066-0.187c0.33,1.823-4.142,5.964-5.949,5.674
		c-0.095-1.6-0.334-5.619,1.616-5.109c-1.436-0.615-3.297-1.997-2.929-3.579c1.06-0.217,0.833-0.421,1.238-1.175
		c-2.273-0.197-4.772-3.587-1.306-3.136c-0.615-1.205-4.953-6.914-0.792-6.258c-1.512-2.734-3.018-5.566-2.837-8.899
		c-0.722,1.072-1.318,2.273-1.527,3.693c-0.19,1.294,0.614,3.595-1.388,3.093c0.146,1.109-0.173,2.092-1.241,2.418
		c0.603-0.158,1.393,0.032,2.005,0.015c0.172,1.982-1.691,2.055-2.047,3.205c-0.417,1.344,0.233,2.528,2.062,1.288
		c0.072,2.301-2.825,2.953-2.816,4.693c0.697-0.111,1.6,0.202,2.291,0.076c-0.323,1.708-2.088,2.532-3.748,2.907
		c-0.264-0.102-0.523-0.221-0.7-0.438c-1.162-1.426-2.438-3.203-2.831-4.975c1.397-0.105,2.673-0.525,4.081-0.52
		c-1.882-0.882-4.202-2.302-3.813-4.724c0.795,0.001,1.05-0.463,1.768-0.586c-0.689-1.919-2.239-3.708-3.36-5.427
		c0.89,0.239,1.894,0.335,2.836,0.175c-1.032-1.113-2.712-2.797-3.125-4.195c-0.683-2.314-0.109-5.519-0.524-7.94
		c0.038,4.826-0.857,6.167-4.854,9.402c0.782-0.057,1.641,0.129,2.422,0.071c-0.142,1.296-0.885,3.584,1.364,3.263
		c-0.32,1.249-1.238,2.692-2.816,2.737c-0.085,1.468,1.488,1.791,2.756,1.806c-0.441,1.467-1.927,1.798-2.788,2.881
		c0.772-0.33,1.542-0.078,2.316-0.186c-0.071,1.401-0.343,2.786-0.174,4.216c0.333-0.366,0.95-0.685,1.288-1.124
		c-0.154,2.42-4.177,2.975-4.307,4.717c-0.115,1.536,2.567,1.789,3.681,0.707c-0.194,0.805-0.845,8.322-3.616,5.713
		c-1.197-1.127,0.907-2.106,1.025-3.108c0.309-2.615-0.454-1.226-1.533-2.411c-0.59-0.648-1.771-0.306-1.577-1.499
		c0.259-1.589,1.701-0.118,2.625-0.738c1.426-0.956,0.697-3.214,0.421-4.73c-1.73,0.72-1.908-0.227-2.994-1.008
		c-0.596-0.429-1.304-0.198-1.699-1.019c-0.12-0.249-0.06-1.425-0.13-1.484c0.686,0.582,1.565,0.841,2.503,0.716
		c-1.747-2.772-2.953-6.75-3.619-9.88c0.383,2.758-5.268,7.598-1.652,9.088c-0.389,0.887-2.678,2.007-2.75,2.805
		c-0.152,1.685,1.812,0.871,2.805,0.331c0.217,1.81-1.844,3.413-0.956,4.987c0.728-0.358,1.505-0.788,1.93-1.485
		c-0.929,2.003-0.955,4.312-1.754,6.385c-1.467,0.18-3.458-0.342-3.648-1.771c0.898-0.201,1.8-0.443,2.688-0.721
		c-0.361-2.014-6.635-3.278-5.24-5.445c0.988,0.202,2.017,0.994,3.034,1.202c-3.685-2.793-3.04-6.844-2.968-2.837
		c-1.753-0.606-2.5-2.055-2.256-3.854c-0.703-0.143-1.088-0.698-1.756-0.82c-0.108-1.537,0.031-3.135-0.105-4.665
		c-0.581,1.708-0.933,4.986-2.272,6.015c0.474-0.134,1.016,0.054,1.461-0.041c-0.421,1.295-1.165,2.436-2.093,3.437
		c1.002,0.051,1.963-0.086,2.747,0.014c-0.386,1.489-1.102,2.936-2.621,3.73c0.922,0.022,1.885,0.044,2.812,0.064
		c0.191,4.657-3.498,2.081-5.786,2.274c-0.74-2.3,2.323-2.729,1.853-4.714c-0.899-0.431-1.82-0.625-2.829-0.624
		c0.198-0.192,0.406-0.905,0.802-1.207c-1.185-1.021-2.962-4.272,0.14-4.062c-1.125-0.963-3.074-1.907-3.053-3.235
		c-0.175,1.159-0.924,2.181-2.092,2.591c0.519,0.774,1.535,0.727,2.587,0.489c-0.473,1.332-1.596,2.248-3.103,2.518
		c0.565,0.631,1.367,1.025,2.292,1.239c0.217,1.518-0.931,2.901-2.181,3.723c1.177-0.069,1.94-0.541,2.967-0.748
		c0.29,1.425-1.419,4.295-3.092,4.442c-1.991,0.176-2.081-2.062-4.45-1.743c0.321-0.427,0.28-1.071,0.884-1.552
		c-0.982-0.706-2.695-2.775-2.706-3.903c1.051,0.947,2.313,0.705,3.819,0.748c-2.963-0.73-3.315-6.317,0.525-5.813
		c-3.032-2.404-2.494-4.806-3.533-7.942c0.085,1.662-0.866,6.003-3.23,5.784c0.74,0.432,1.687,0.601,2.614,0.49
		c0.224,1.727-0.69,4.292-2.771,4.467c0.521-0.133,1.194,0.06,1.716,0.034c0.369,1.656-0.592,2.585-1.076,3.849
		c-0.377,0.984-1.498,0.214-0.869,1.573c0.254,0.549,1.629,0.011,1.937-0.173c-0.176,1.423-0.335,4.415-2.524,3.874
		c-1.288-0.318-3.062-3.342-1.132-3.755c0.478-2.108-1.503-1.416-2.346-2.832c-1.406-2.362,0.751-0.936,1.401-2.001
		c1.717-2.81-4.016-3.162-3.184-6.286c1-0.046,2.022-0.027,3.033-0.02c-1.387-0.691-6.284-5.874-2.052-5.306
		c-1.433-2.87-3.53-5.748-3.099-9.394c-0.676,1.839,0.796,7.945-2.857,7.218c0.268,0.645,0.246,1.507,0.459,2.182
		c-0.334,0.066-0.665,0.037-1.003,0.06c-0.016,1.199,1.341,1.25,2.457,1.021c-0.54,1.321-2.209,1.856-2.442,3.169
		c1.014,0.058,2.068,0.017,3.084,0.069c-0.439,0.972-0.465,2.019-0.962,2.787c-0.487-0.487-1.465-0.652-1.954-1.138
		c-0.407,0.448-0.421,0.385-0.424,1.032c5.176-0.305-1.748,4.066-2.065,5.013c1.981,0.054,3.6-0.785,5.398-0.693
		c0.069,1.878-2.492,2.77-3.628,3.918c0.882,0.293,1.856,0.374,2.791,0.35c-1.266,1.13-3.563,1.912-3.486,3.674
		c0.53-0.238,1.204-0.045,1.697-0.186c1.132,5.22-6.037-0.826-5.628-4.006c1.369-0.072,2.848,0.153,4.126-0.263
		c-1.842-2.755-5.139-5.864,0.71-4.794c-0.721-1.617-3.303-1.515-4.089-3.307c-0.86-1.96,1.545-3.228,3.268-4.436
		c-1.978,0.042-4.619,0.613-5.923-0.981c1.121-0.928,3.068-0.379,3.609-2.02c-1.43-0.083-5.138-3.909-5.719-5.444
		c0.518,0.095,1.225-0.147,1.748-0.061c-0.977-1.983-2.526-2.569-2.287-5.095c-0.632,2.55-0.635,4.044-3.261,5.325
		c0.774-0.332,1.77-0.432,2.541-0.217c-0.639,1.494-0.564,2.032-1.902,2.773c-0.126,0.07-0.279,0.104-0.447,0.121
		c-0.796-0.914-1.742-1.705-1.333-3.122c0.677,0.206,1.31-0.04,1.838-0.001c-2.172-2.666-2.679-5.073-2.679-8.559
		c-0.004,0.827,0.069,2.484-0.531,3.541c-0.702,1.236-2.342,1.598-2.051,3.225c0.628-0.186,1.428-0.088,2.017-0.442
		c-0.759,1.687-3.284,2.555-3.627,3.937c1.289,0.066,2.612,0.007,3.896,0.076c-0.185,0.931-0.984,1.494-2.017,1.506
		c-0.6,1.091-1.345,2.113-1.315,3.369c0.98-0.396,1.722-0.674,2.618-0.424c-0.283,2.431-2.618,2.349-3.155,4.218
		c1.106,0.332,2.334,0.392,3.489,0.318c0.759,2.683-2.445,3.266-4.291,4.083c-0.088-0.746,0.615-1.994,0.464-2.563
		c-0.205-0.767-0.896-0.794-1.321-1.538c-0.743-1.301-1.381-2.661-2.011-3.968c1.282,0.018,2.742-0.125,3.876-0.527
		c-0.573-2.586-4.882-2.839-4.442-6.367c0.851,0.951,2.739,0.329,4.019,0.13c-0.592-1.057-3.167-3.101-3.109-4.469
		c0.063-1.497,2.358-1.947,4.063-2.404c-0.907-1.54-2.55-2.611-3.373-4.545c0.723,0.007,1.67-0.251,2.467-0.089
		c-2.302-2.275-2.946-5.612-2.743-8.711c0.17-2.607,1.738-4.468,2.058-7.041c-1.736,1.626-3.643,4.389-4.344,6.793
		c-0.353,1.21-0.146,4.599-1.888,4.285c0.449,0.223,0.427,0.537,0.996,0.707c-0.31,2.887-3.968,1.885-4.653,4.158
		c1.902,0.285,2.732-1.895,4.646-0.406c0.076,1.56,0.603,3.91-1.774,3.548c-0.097,0.21-0.096,0.417,0.001,0.622
		c0.437-0.044,0.965,0.062,1.405,0.074c-1.473,2.91-4.219,2.684-6.101,0.27c-0.011,1.068-0.311,0.93,0.19,1.885
		c-0.447,0.094-1.197,0.532-1.605,0.552c1.753,0.9,3.713,0.92,5.791,1.037c-0.006,0.009-1.04,1.461-1.032,1.394
		c-0.02,0.163,0.1,1.442,0.023,1.569c-0.552,0.9-1.023,1.379-1.819,2.218c1.162-0.236,2.364-0.736,3.621-0.68
		c-0.379,1.649-0.541,3.707-3.015,2.745c-0.397,0.524-0.781,1.349-0.855,1.941c0.806-0.299,1.686-0.451,2.547-0.436
		c0.812,4.303-3.288,3.002-4.644,5.674c2.126,0.437,3.43-0.571,5.449-0.687c-0.421,1.007-0.219,2.469-0.819,3.436
		c-0.18,0.29-1.452-0.262-1.544,0.131c-0.169,0.723,0.385,0.733,0.358,1.095c-0.053,0.719,1.517,1.836,0.529,2.886
		c-0.986,1.048-1.883,0.01-1.979-1.005c-0.626,0.9-1.669,1.332-2.777,1.144c-0.43-1.727,0.303-2.307-0.303-3.467
		c-0.211-0.404-1.395,0.295-1.596-0.744c-0.076-0.396,1.714-1.179,2.055-1.269c-2.257-0.054-4.405-0.029-3.341-2.307
		c0.773-1.655,3.342-1.682,4.441-3.138c-1.104-0.052-3.928,0.42-4.695-0.283c-1.702-1.56,1.558-2.044,1.785-3.219
		c-1.993-0.403-4.046-0.897-2.534-3.247c0.365,0.005,1.017-0.217,1.243-0.214c-1.199-0.851-1.807-2.096-1.512-3.549
		c0.782,0.107,1.79-0.143,2.496-0.119c-1.075-2.023-2.162-2.849-2.739-4.974c-0.298-1.097-0.587-2.29-0.825-3.472
		c-0.018,1.68-0.852,3.546-2.161,4.04c0.119,0.012,0.704,0.27,1.067,0.287c0.317,2.266-1.611,3.68-3.158,4.712
		c0.144,0.007,0.861,0.275,1.249,0.289c-0.016,0.968-0.411,1.955-0.733,2.919c-1.252,0.099-2.79,0.684-2.805,2.012
		c1.169,0.052,2.389,0.013,3.558,0.068c-0.271,1.653-0.38,3.982-2.144,4.074c0.729,0.264,1.328,0.548,2.443,0.176
		c-0.281,1.431-2.257,3.216-3.811,3.656c0.893,0.047,1.864,0.038,2.77,0.094c0.062,2.936-2.832,1.883-3.361,3.863
		c1.414,0.2,2.967,0.066,4.422,0.136c-0.697,0.736-1.745,1.339-1.772,2.388c0.809-0.44,1.164-0.252,2.027-0.375
		c-0.786,1.023-2.321,1.635-2.56,2.851c1.456,0.084,1.886,1.246,1.5,2.574c-0.994,0.026-2.011,0.023-3.008-0.013
		c0.051-0.335-0.21-0.978-0.125-1.369c-0.83,0.254-1.709,0.159-2.555,0.119c-0.117-0.377-0.114-1.026-0.014-1.407
		c0.713-0.338,0.687-0.733,0.988-1.018c-1.295-0.018-2.658-0.951-2.545-2.258c1.209-0.344,2.54-0.43,3.403-1.038
		c-1.079-1.105-2.123-2.156-2.901-3.491c1.149-1.58,2.537-2.094,4.422-2.569c-0.794-0.168-3.08-1.802-3.334-2.737
		c-0.582-2.143,0.981-1.616,2.541-2.376c-1.528-0.411-3.077-1.829-3.348-3.275c0.967-0.306,2.286-0.383,3.085-0.738
		c-1.798,0.088-3.091-1.687-2.823-3.281c0.371,0.019,0.878-0.119,1.237-0.063c-1.15-2.258-1.762-3.873-1.853-6.699
		c-1.761,1.492-0.55,6.351-4.378,5.511c-0.011,0.328-0.03,0.62,0,0.951c0.885-0.146,1.65-0.281,2.498-0.442
		c0.805,2.769-1.25,2.337-2.576,3.723c1.142,0.906,2.763-0.025,3.7,1.188c-1.161,0.316-2.055,0.91-2.028,2.031
		c0.514-0.234,0.999-0.063,1.484-0.187c0.206,0.936,0.143,1.886-0.485,2.437c-1.397-2.161-2.683,0.479-2.32,1.992
		c0.375-0.253,1.409-0.425,1.762-0.672c-0.866,0.588-2.572,3.469,0.008,3.492c-0.311,1.167-0.507,2.298-1.291,3.326
		c-0.968-0.39-1.115-2.169-1.226-3.062c-0.09-0.724-0.918-0.342-0.81-1.307c0.053-0.475,0.981-0.614,1.002-0.738
		c0.3-1.775,1.042-0.765-0.729-2.512c-0.705-0.695-1.684-0.761-2.071-1.945c0.892-0.284,1.814-0.386,2.758-0.343
		c-0.389-1.162-1.707-1.826-2.101-3.071c0.732,0.429,1.133,0.155,1.775,0.29c0.008-1.526-0.846-2.575-1.271-3.925
		c-0.359-1.142-0.338-2.672-0.931-3.749c0.355,2.595-2.247,4.676-3.696,6.442c0.329,0.083,0.572,0.274,0.976,0.343
		c0.206,1.763-2.058,1.977-1.493,3.931c0.429-0.098,1.428-0.01,1.741-0.118c-0.945,0.862-2.683,1.024-2.268,2.612
		c0.598-0.163,1.438-0.098,2.044-0.437c-1.005,1.032-2.886,1.892-1.507,3.444c0.597-0.227,1.405-0.037,2.019-0.18
		c-0.159,0.585-0.919,1.144-1.001,1.568c0.022-0.114-0.648,2.028-0.606,1.943c-0.127,0.253-0.042,0.946-0.184,1.282
		c-0.107,0.253-0.92,0.275-1.073,0.664c-0.304,0.77-0.759,1.033-0.673,1.898c0.565-0.149,1.375,0.159,1.907,0.069
		c0.179,1.922-2.487,4.508-4.317,4.747c-0.416-2.154,1.998-0.542,1.674-2.562c-1.676,0.087-2.83,0.502-3.575-1.449
		c0.608,0.513,1.22,0.414,1.825,0.636c0.136-0.459,0.137-1.412,0-1.881c-2.325,0.111-2.711-1.701-4.061-3.124
		c1.226,0.891,2.705,0.69,3.468-0.665c-2.983-2.886-5.903-2.832-6.674-7.553c-0.502,1.718,0.789,3.496,0.504,4.948
		c-0.255,1.299-2.247,2.295-3.374,3.317c1.138-0.027,2.027-0.218,3.141-0.262c0.045,2.343-1.896,4.299-3.709,4.944
		c2.131,0.162,4.281,0.436,5.185-1.881c-0.076,3.188-3.211,4.905-4.665,6.888c1.546,0.118,3.752,0.528,4.989-0.631
		c-0.069,1.57-1.525,2.24-1.804,3.637c-0.872,0.01-1.855,0.227-2.442,0.731c0.671-0.223,0.913-0.142,1.424-0.424
		c-0.072,0.181,0.081,0.689,0.02,0.944c-2.629,0.399,0.875,3.276,1.906,3.799c-1.882,0.092-3.127-0.507-4.215-1.652
		c0.386,0.113,0.852,0.068,1.303-0.154c0.033-0.322,0.024-0.597,0.006-0.92c-1.306-0.409-3.024-0.867-3.692-2.241
		c0.961,0.2,1.782-0.039,2.279-0.809c-2.546-1.554-3.37-1.758-3.9-3.754c0.439,0.586,1.162,0.917,2.087,0.731
		c-2.063-1.395-2.658-3.168-3.735-5.455c-1.406,3.225,0.577,4.434-3.119,6.698c1.26,0.079,2.811,0.308,3.904-0.381
		c-1.033,2.724-2.997,2.579-4.84,4.187c1.19,0.414,3.117,0.474,4.259-0.231c-0.8,2.059-2.732,2.997-3.87,4.738
		c1.644,0.169,3.329-0.395,4.638-1.274c0.034,1.433-1.835,3.191-3.134,3.768c0.289,0.003,0.618,0.044,0.891,0.037
		c-1.23,1.653-3.243,0.724-4.996,0.201c1.204,1.851,3.063,2.668,4.953,3.511c-0.658-0.01-1.33-0.041-1.976-0.122
		c-1.135-0.865-2.699-1.747-2.68-2.939c-0.08,0.526-0.283,1.02-0.584,1.445c-0.428-0.566-0.668-1.325-0.617-2.357
		c1.273,0.077,2.195,1.021,3.162-0.119c-1.329-0.345-4.547,0.497-4.205-1.882c0.904-0.034,1.77,0.131,2.662,0.188
		c-1.462-1.152-3.347-2.034-4.312-3.445c1.055,0.254,2.032,0.669,3.085,0.681c-0.541-1.893-2.87-2.326-3.487-4.461
		c-0.549-1.9-0.112-4.321-1.174-5.986c-0.909,2.12,0.301,4.112,0.187,6.23c-0.128,2.386-2.075,2.447-2.637,4.295
		c-0.051-0.177-0.104-0.356-0.165-0.537c0.041,0.804-0.163,2.231-0.648,3.469c-0.071,0.028-0.141,0.061-0.213,0.086
		c0.041,0.043,0.091,0.069,0.135,0.108c-0.524,1.234-1.342,2.228-2.503,2.12c0.74,0.432,1.687,0.601,2.614,0.49
		c0.204,1.574-0.549,3.824-2.258,4.346c-1.803-0.562-3.088-1.313-2.536-4.084c0.326-0.011,0.721-0.063,1.11-0.086
		c-1.532-0.568-1.554-3.789-2.784-4.881c-0.781,1.04,0.089,1.93-0.005,2.985c-1.809-1.447-5.095-5.353-1.392-4.856
		c-1.433-2.87-3.53-5.748-3.099-9.394c-0.676,1.839,0.796,7.945-2.857,7.218c0.268,0.645,0.246,1.507,0.459,2.182
		c-0.334,0.066-0.665,0.037-1.003,0.06c-0.016,1.199,1.341,1.25,2.457,1.021c-0.54,1.321-2.209,1.856-2.442,3.169
		c1.014,0.058,2.068,0.017,3.084,0.069c-0.439,0.972-0.465,2.019-0.962,2.787c-0.487-0.487-1.465-0.652-1.954-1.138
		c-0.407,0.448-0.421,0.385-0.424,1.032c5.176-0.305-1.748,4.066-2.065,5.013c1.981,0.054,3.6-0.785,5.398-0.693
		c0.069,1.878-2.492,2.77-3.628,3.918c0.882,0.293,1.856,0.374,2.791,0.35c-1.266,1.13-3.563,1.912-3.486,3.674
		c0.53-0.238,1.204-0.045,1.697-0.186c1.132,5.22-6.037-0.826-5.628-4.006c1.369-0.072,2.848,0.153,4.126-0.263
		c-1.842-2.755-5.139-5.864,0.71-4.794c-0.721-1.617-3.303-1.515-4.089-3.307c-0.86-1.96,1.545-3.228,3.268-4.436
		c-1.978,0.042-4.619,0.613-5.923-0.981c1.121-0.928,3.068-0.379,3.609-2.02c-1.43-0.083-5.138-3.909-5.719-5.444
		c0.518,0.095,1.225-0.147,1.748-0.061c-0.977-1.983-2.526-2.569-2.287-5.095c-0.632,2.55-0.635,4.044-3.261,5.325
		c0.774-0.332,1.77-0.432,2.541-0.217c-0.639,1.494-0.564,2.032-1.902,2.773c-0.126,0.07-0.279,0.104-0.447,0.121
		c-0.796-0.914-1.742-1.705-1.333-3.122c0.677,0.206,1.31-0.04,1.838-0.001c-2.172-2.666-2.679-5.073-2.679-8.559
		c-0.004,0.827,0.069,2.484-0.531,3.541c-0.702,1.236-2.342,1.598-2.051,3.225c0.628-0.186,1.428-0.088,2.017-0.442
		c-0.759,1.687-3.284,2.555-3.627,3.937c1.289,0.066,2.612,0.007,3.896,0.076c-0.185,0.931-0.984,1.494-2.017,1.506
		c-0.6,1.091-1.345,2.113-1.315,3.369c0.98-0.396,1.722-0.674,2.618-0.424c-0.283,2.431-2.618,2.349-3.155,4.218
		c1.106,0.332,2.334,0.392,3.489,0.318c0.759,2.683-2.445,3.266-4.291,4.083c-0.088-0.746,0.615-1.994,0.464-2.563
		c-0.205-0.767-0.896-0.794-1.321-1.538c-0.743-1.301-1.381-2.661-2.011-3.968c1.282,0.018,2.742-0.125,3.876-0.527
		c-0.573-2.586-4.882-2.839-4.442-6.367c0.851,0.951,2.739,0.329,4.019,0.13c-0.592-1.057-3.167-3.101-3.109-4.469
		c0.063-1.497,2.358-1.947,4.063-2.404c-0.907-1.54-2.55-2.611-3.373-4.545c0.723,0.007,1.67-0.251,2.467-0.089
		c-2.302-2.275-2.946-5.612-2.743-8.711c0.17-2.607,1.738-4.468,2.058-7.041c-1.736,1.626-3.643,4.389-4.344,6.793
		c-0.353,1.21-0.146,4.599-1.888,4.285c0.449,0.223,0.427,0.537,0.996,0.707c-0.31,2.887-3.968,1.885-4.653,4.158
		c1.902,0.285,2.732-1.895,4.646-0.406c0.076,1.56,0.603,3.91-1.774,3.548c-0.097,0.21-0.096,0.417,0.001,0.622
		c0.437-0.044,0.965,0.062,1.405,0.074c-1.473,2.91-4.219,2.684-6.101,0.27c-0.011,1.068-0.311,0.93,0.19,1.885
		c-0.447,0.094-1.197,0.532-1.605,0.552c1.753,0.9,3.713,0.92,5.791,1.037c-0.006,0.009-1.04,1.461-1.032,1.394
		c-0.02,0.163,0.1,1.442,0.023,1.569c-0.552,0.9-1.023,1.379-1.819,2.218c1.162-0.236,2.364-0.736,3.621-0.68
		c-0.379,1.649-0.541,3.707-3.015,2.745c-0.397,0.524-0.781,1.349-0.855,1.941c0.806-0.299,1.686-0.451,2.547-0.436
		c0.812,4.303-3.288,3.002-4.644,5.674c2.126,0.437,3.43-0.571,5.449-0.687c-0.421,1.007-0.219,2.469-0.819,3.436
		c-0.18,0.29-1.452-0.262-1.544,0.131c-0.169,0.723,0.385,0.733,0.358,1.095c-0.053,0.719,1.517,1.836,0.529,2.886
		c-0.986,1.048-1.883,0.01-1.979-1.005c-0.626,0.9-1.669,1.332-2.777,1.144c-0.43-1.727,0.303-2.307-0.303-3.467
		c-0.211-0.404-1.395,0.295-1.596-0.744c-0.076-0.396,1.714-1.179,2.055-1.269c-2.257-0.054-4.405-0.029-3.341-2.307
		c0.773-1.655,3.342-1.682,4.441-3.138c-1.104-0.052-3.928,0.42-4.695-0.283c-1.702-1.56,1.558-2.044,1.785-3.219
		c-1.993-0.403-4.046-0.897-2.534-3.247c0.365,0.005,1.017-0.217,1.243-0.214c-1.199-0.851-1.807-2.096-1.512-3.549
		c0.782,0.107,1.79-0.143,2.496-0.119c-1.075-2.023-2.162-2.849-2.739-4.974c-0.298-1.097-0.587-2.29-0.825-3.472
		c-0.018,1.68-0.852,3.546-2.161,4.04c0.119,0.012,0.704,0.27,1.067,0.287c0.317,2.266-1.611,3.68-3.158,4.712
		c0.144,0.007,0.861,0.275,1.249,0.289c-0.016,0.968-0.411,1.955-0.733,2.919c-1.252,0.099-2.79,0.684-2.805,2.012
		c1.169,0.052,2.389,0.013,3.558,0.068c-0.271,1.653-0.38,3.982-2.144,4.074c0.729,0.264,1.328,0.548,2.443,0.176
		c-0.281,1.431-2.257,3.216-3.811,3.656c0.893,0.047,1.864,0.038,2.77,0.094c0.062,2.936-2.832,1.883-3.361,3.863
		c1.414,0.2,2.967,0.066,4.422,0.136c-0.697,0.736-1.745,1.339-1.772,2.388c0.809-0.44,1.164-0.252,2.027-0.375
		c-0.786,1.023-2.321,1.635-2.56,2.851c1.456,0.084,1.886,1.246,1.5,2.574c-0.994,0.026-2.011,0.023-3.008-0.013
		c0.051-0.335-0.21-0.978-0.125-1.369c-0.83,0.254-1.709,0.159-2.555,0.119c-0.117-0.377-0.114-1.026-0.014-1.407
		c0.713-0.338,0.687-0.733,0.988-1.018c-1.295-0.018-2.658-0.951-2.545-2.258c1.209-0.344,2.54-0.43,3.403-1.038
		c-1.079-1.105-2.123-2.156-2.901-3.491c1.149-1.58,2.537-2.094,4.422-2.569c-0.794-0.168-3.08-1.802-3.334-2.737
		c-0.582-2.143,0.981-1.616,2.541-2.376c-1.528-0.411-3.077-1.829-3.348-3.275c0.967-0.306,2.286-0.383,3.085-0.738
		c-1.798,0.088-3.091-1.687-2.823-3.281c0.371,0.019,0.878-0.119,1.237-0.063c-1.15-2.258-1.762-3.873-1.853-6.699
		c-1.761,1.492-0.55,6.351-4.378,5.511c-0.011,0.328-0.03,0.62,0,0.951c0.885-0.146,1.65-0.281,2.498-0.442
		c0.805,2.769-1.25,2.337-2.576,3.723c1.142,0.906,2.763-0.025,3.7,1.188c-1.161,0.316-2.055,0.91-2.028,2.031
		c0.514-0.234,0.999-0.063,1.484-0.187c0.206,0.936,0.143,1.886-0.485,2.437c-1.397-2.161-2.683,0.479-2.32,1.992
		c0.375-0.253,1.409-0.425,1.762-0.672c-0.866,0.588-2.572,3.469,0.008,3.492c-0.311,1.167-0.507,2.298-1.291,3.326
		c-0.968-0.39-1.115-2.169-1.226-3.062c-0.09-0.724-0.918-0.342-0.81-1.307c0.053-0.475,0.981-0.614,1.002-0.738
		c0.3-1.775,1.042-0.765-0.729-2.512c-0.705-0.695-1.684-0.761-2.071-1.945c0.892-0.284,1.814-0.386,2.758-0.343
		c-0.389-1.162-1.707-1.826-2.101-3.071c0.732,0.429,1.133,0.155,1.775,0.29c0.008-1.526-0.846-2.575-1.271-3.925
		c-0.359-1.142-0.338-2.672-0.931-3.749c0.355,2.595-2.247,4.676-3.696,6.442c0.329,0.083,0.572,0.274,0.976,0.343
		c0.206,1.763-2.058,1.977-1.493,3.931c0.429-0.098,1.428-0.01,1.741-0.118c-0.945,0.862-2.683,1.024-2.268,2.612
		c0.598-0.163,1.438-0.098,2.044-0.437c-1.005,1.032-2.886,1.892-1.507,3.444c0.597-0.227,1.405-0.037,2.019-0.18
		c-0.159,0.585-0.919,1.144-1.001,1.568c0.022-0.114-0.648,2.028-0.606,1.943c-0.127,0.253-0.042,0.946-0.184,1.282
		c-0.107,0.253-0.92,0.275-1.073,0.664c-0.304,0.77-0.759,1.033-0.673,1.898c0.565-0.149,1.375,0.159,1.907,0.069
		c0.179,1.922-2.487,4.508-4.317,4.747c-0.416-2.154,1.998-0.542,1.674-2.562c-1.676,0.087-2.83,0.502-3.575-1.449
		c0.608,0.513,1.22,0.414,1.825,0.636c0.136-0.459,0.137-1.412,0-1.881c-2.325,0.111-2.711-1.701-4.061-3.124
		c1.226,0.891,2.705,0.69,3.468-0.664c-2.983-2.886-5.903-2.832-6.674-7.553c-0.502,1.718,0.789,3.496,0.504,4.948
		c-0.255,1.299-2.247,2.295-3.374,3.317c1.138-0.027,2.027-0.218,3.141-0.262c0.045,2.343-1.896,4.299-3.709,4.944
		c2.131,0.162,4.281,0.436,5.185-1.881c-0.076,3.188-3.211,4.905-4.665,6.888c1.545,0.118,3.752,0.528,4.989-0.631
		c-0.069,1.57-1.525,2.24-1.804,3.637c-0.872,0.01-1.855,0.227-2.442,0.731c0.671-0.223,0.913-0.142,1.424-0.424
		c-0.072,0.181,0.081,0.689,0.02,0.944c-2.629,0.399,0.875,3.276,1.906,3.799c-1.882,0.092-3.127-0.507-4.215-1.652
		c0.386,0.113,0.853,0.068,1.303-0.154c0.033-0.322,0.024-0.597,0.006-0.92c-1.306-0.409-3.024-0.867-3.692-2.241
		c0.961,0.2,1.782-0.039,2.279-0.809c-2.546-1.554-3.37-1.758-3.9-3.754c0.439,0.586,1.162,0.917,2.087,0.731
		c-2.063-1.395-2.658-3.168-3.735-5.455c-1.406,3.225,0.577,4.434-3.119,6.698c1.26,0.079,2.811,0.308,3.904-0.381
		c-1.033,2.724-2.997,2.579-4.84,4.187c1.19,0.414,3.117,0.474,4.259-0.231c-0.8,2.059-2.732,2.997-3.87,4.738
		c1.644,0.169,3.329-0.395,4.638-1.274c0.034,1.433-1.835,3.191-3.134,3.768c0.289,0.003,0.618,0.043,0.891,0.037
		c-1.23,1.653-3.243,0.724-4.996,0.201c1.204,1.851,3.063,2.668,4.953,3.511c-2.865-0.044-6.03-0.437-5.857-3.973
		c1.273,0.077,2.195,1.021,3.162-0.119c-1.329-0.345-4.547,0.497-4.205-1.882c0.904-0.034,1.77,0.131,2.662,0.188
		c-1.462-1.152-3.347-2.034-4.312-3.445c1.055,0.254,2.032,0.669,3.085,0.681c-0.541-1.893-2.87-2.326-3.487-4.461
		c-0.549-1.9-0.112-4.321-1.174-5.986c-0.909,2.12,0.301,4.113,0.187,6.23c-0.137,2.556-2.363,2.442-2.736,4.717
		c1.115,0.069,1.938-0.386,2.98-0.424c-1.009,1.294-2.406,2.503-3.907,3.019c1.175,1.248,3.344,0.775,4.63-0.224
		c0.28,1.582-2.782,3.946-3.892,4.986c1.098,0.496,2.208,0.693,3.422,0.709c-0.478,0.833-1.321,1.567-1.783,2.434
		c-0.484-0.072-1.06,0.238-1.383,0.258c0.042,0.274,0.314,1.005,0.456,1.247c0.923,0.065,1.927-0.597,2.678-0.934
		c-0.667,1.958-5.047,3.982-7.524,4.189c-0.224-0.353-0.445-0.694-0.678-0.984c1.437-1.212,2.818-0.867,4.612-0.718
		c-1.58-0.553-2.923-2.204-3.982-3.488c0.887-0.041,1.859-0.021,2.78-0.018c-2.442-0.71-4.569-1.048-3.887-4.475
		c0.326-0.011,0.721-0.063,1.111-0.086c-1.532-0.568-1.554-3.789-2.785-4.881c-0.888,1.182,0.361,2.17-0.102,3.428
		c-0.505,1.374-2.122,1.525-2.511,2.982c1.255,0,2.59-0.495,3.678-0.918c-0.078,3.313-2.791,3.093-3.728,5.394
		c1.147,0.333,2.312,0.53,3.328-0.12c-0.608,1.552-1.982,2.677-2.449,4.127c0.306,0.033,0.62,0.095,0.888,0.128
		c0.077,0.943-0.092,1.753-0.512,2.564c-0.94-0.01-2.051,0.045-2.891,0.6c0.044,0.024,0.426,0.168,0.576,0.274
		c-3.694,2.79-2.615,5.509-2.392,9.694c0.303,5.711-1.315,10.936-1.994,16.491c-0.945,7.726-1.248,16.439-0.436,24.247
		c10.719,0.558,21.427,1.439,32.215,1.537c4.521,0.041,9.063,0.116,13.455-0.493c3.022-0.419,4.829-0.896,5.806-2.389
		c0.968-0.013,1.986-0.082,2.64,0.011c3.381,0.481,6.676,0.517,10.161,0.513c9.359-0.011,18.504,1.341,27.778-0.018
		c2.382-0.349,4.901-0.487,7.315-0.482c4.585,0.01,9.846-0.891,14.303-0.218c7.408,1.119,14.773,0.911,22.287,1.775
		c12.81,1.473,25.712,4.212,38.552,5.21c5.287,0.411,10.719-0.285,16.014-0.272c4.876,0.012,9.069,1.003,13.824,1.791
		c6.412,1.062,13.283,0.671,19.755,0.094c6.326-0.564,12.661-1.843,18.991-1.881c0.161-0.001,0.353,0.003,0.56,0.009V583.47
		c0.609,0.057,1.218,0.111,1.829,0.181c12.81,1.473,25.712,4.212,38.552,5.21c5.287,0.411,10.719-0.285,16.014-0.272
		c4.876,0.012,9.069,1.003,13.824,1.791c6.412,1.062,13.283,0.671,19.755,0.094c6.326-0.564,12.661-1.843,18.991-1.881
		c0.161-0.001,0.353,0.003,0.56,0.009V575.47c1.15-0.078,2.293-0.189,3.425-0.346c3.022-0.419,4.829-0.896,5.806-2.389
		c0.968-0.013,1.986-0.082,2.64,0.011c3.381,0.481,6.676,0.517,10.161,0.513c9.359-0.011,18.504,1.341,27.778-0.018
		c2.382-0.349,4.901-0.487,7.315-0.482c4.585,0.01,9.846-0.891,14.303-0.218c7.408,1.119,14.773,0.911,22.287,1.775
		c12.81,1.473,25.712,4.212,38.552,5.21c5.287,0.411,10.719-0.285,16.014-0.272c4.876,0.012,9.069,1.003,13.824,1.791
		c6.412,1.062,13.283,0.671,19.755,0.094c6.326-0.564,12.661-1.843,18.991-1.881c0.161-0.001,0.353,0.003,0.56,0.009v-19.675
		c2.473-0.053,4.949-0.219,7.434-0.583c2.382-0.349,4.901-0.487,7.315-0.482c4.585,0.01,9.846-0.891,14.303-0.218
		c7.408,1.119,14.773,0.911,22.287,1.775c12.81,1.473,25.712,4.212,38.552,5.21c5.287,0.411,10.719-0.285,16.014-0.272
		c4.876,0.012,9.069,1.003,13.824,1.791c6.412,1.062,13.283,0.671,19.755,0.094c6.326-0.564,12.661-1.843,18.991-1.881
		c0.161-0.001,0.353,0.003,0.56,0.009v-48.147C755.353,516.959,754.823,517.009,754.24,516.991z M53.745,550.538
		c1.308,0.42,2.697,0.976,3.247,2.228C55.415,553.091,54.541,551.794,53.745,550.538z M142.719,515.872
		c-0.516,0.992-1.871,1.441-2.742,2.113c-0.381-0.625-0.727-1.306-0.886-1.921C140.427,515.788,141.74,515.227,142.719,515.872z
		 M141.315,510.483c0.382,1.487-0.346,2.257-1.269,2.894c-1.003-0.586-2.068-1.323-2.436-2.166
		C138.919,511.158,139.848,510.181,141.315,510.483z M141.336,526.438c-0.565,0.399-1.227,0.413-1.801,0.544
		c0.704-0.89,1.273-2.034,1.25-2.749c-2.084,0.011-3.73-2.981-3.327-4.748c0.576-0.033,1.162-0.038,1.75-0.041
		c0.01,0.145,0.033,0.297,0.084,0.464c0.885-0.135,1.888-0.283,2.828-0.173c-0.503,1.843-1.339,2.359-2.801,3.492
		c1.19-0.039,2.398-0.048,3.576,0.007C142.365,524.767,142.578,525.56,141.336,526.438z M157.899,517.978
		c0.751-0.034,1.514-0.031,2.275-0.025c-0.352,0.954-1.233,1.324-1.873,1.946C157.899,519.379,157.689,518.767,157.899,517.978z
		 M160.115,526.762c-0.161-0.132-0.31-0.291-0.433-0.498c-0.129-0.216-0.218-0.391-0.291-0.549c0.539,0,1.063-0.113,1.552-0.426
		C160.735,525.821,160.435,526.3,160.115,526.762z M160.788,522.039c-0.45-0.451-1.069-0.861-1.633-1.313
		c0.771-0.183,1.526-0.454,2.188-0.711C161.322,520.909,161.106,521.541,160.788,522.039z M170.407,513.49
		c-0.653,0.838-1.47,1.636-2.371,2.237c-0.118-0.582-0.237-1.188-0.399-1.822C168.644,513.908,169.435,513.525,170.407,513.49z
		 M165.691,523.729c0.016,0.071,0.016,0.134,0.027,0.202c-0.311-0.089-0.615-0.174-0.908-0.261
		C165.116,523.699,165.423,523.742,165.691,523.729z M162.427,528.189c0.759-0.64,1.504-0.841,2.301-0.871
		c-0.038,0.086-0.079,0.17-0.113,0.259c-0.37,0.967-1.449,0.252-0.892,1.513c-0.216,0.038-0.423,0.066-0.618,0.083
		C162.881,528.82,162.66,528.479,162.427,528.189z M165.217,531.534c-0.818-0.365-1.401-1.239-1.945-2.098
		c0.777,0.249,1.576,0.553,2.218,1.017C165.425,530.822,165.339,531.193,165.217,531.534z M165.218,526.331
		c-0.812-0.712-1.537-1.592-2.161-2.349c0.851-0.039,1.778-0.023,2.665-0.018C165.867,524.918,165.577,525.635,165.218,526.331z
		 M167.37,527.823c-0.465-0.672-0.814-1.36-0.819-1.862c0.761,0.686,1.634,0.747,2.629,0.745
		C168.654,527.109,168.033,527.487,167.37,527.823z M169.595,526.361c-0.255-0.163-0.483-0.362-0.676-0.595
		c0.616-0.204,1.217-0.561,1.71-0.782C170.471,525.448,170.096,525.915,169.595,526.361z M168.878,524.413
		c-0.204-0.03-0.423,0.012-0.634,0.067c-0.287-0.972-0.188-2.034,0.348-2.757c0.667,0.162,1.349,0.246,2.07,0.255
		C170.183,522.812,169.34,523.547,168.878,524.413z M169.376,519.318c-0.476-0.674-0.771-1.359-0.981-2.073
		c0.966,0,1.995-0.387,2.735-0.961C171.288,517.173,170.39,518.309,169.376,519.318z M252.245,494.77
		c-0.516,0.992-1.871,1.441-2.742,2.113c-0.381-0.625-0.727-1.306-0.886-1.921C249.953,494.686,251.266,494.125,252.245,494.77z
		 M250.841,489.381c0.382,1.487-0.346,2.257-1.269,2.894c-1.003-0.586-2.068-1.323-2.436-2.166
		C248.445,490.056,249.374,489.079,250.841,489.381z M250.862,505.336c-0.565,0.399-1.227,0.413-1.801,0.544
		c0.704-0.89,1.273-2.034,1.25-2.749c-2.084,0.011-3.73-2.981-3.327-4.748c0.576-0.033,1.162-0.038,1.75-0.041
		c0.01,0.145,0.033,0.297,0.084,0.464c0.885-0.135,1.888-0.283,2.828-0.173c-0.503,1.843-1.339,2.359-2.801,3.492
		c1.19-0.039,2.398-0.048,3.576,0.007C251.891,503.665,252.105,504.458,250.862,505.336z M323.455,517.305
		c-1.351-0.011-2.279-1.098-3.425-1.704c0.506-0.795,2.373-0.946,2.624-1.545c0.006-0.015,0.006-0.024,0.012-0.039
		c0.74,0.162,1.72-0.143,2.36-0.668C324.546,514.719,323.655,515.767,323.455,517.305z M367.271,522.367
		c-0.943-0.083-1.604-0.802-2.177-1.637c-0.061-0.185-0.125-0.371-0.194-0.557c1.007,0.335,2.026,0.773,2.655,1.557
		C367.46,521.945,367.362,522.158,367.271,522.367z M367.111,519.212c-0.834,0.303-1.649,0.516-2.345,0.603
		c-0.163-0.42-0.336-0.841-0.508-1.259c1.054-0.681,2.105-0.62,3.335-0.498C367.494,518.47,367.337,518.864,367.111,519.212z
		 M371.103,513.94c-0.21-0.357-0.419-0.721-0.624-1.098c-0.067-0.123-0.12-0.25-0.178-0.375c0.572,0.116,1.158,0.171,1.771,0.179
		C371.815,513.093,371.455,513.514,371.103,513.94z M369.757,510.949c-0.281-1.043-0.451-2.111-0.761-3.134
		c1.158,0.322,2.593-0.125,3.546-0.864C372.752,508.14,371.075,509.77,369.757,510.949z M453.656,485.437
		c-0.516,0.992-1.871,1.441-2.742,2.113c-0.381-0.625-0.727-1.306-0.886-1.921C451.364,485.352,452.678,484.792,453.656,485.437z
		 M452.253,480.048c0.382,1.487-0.346,2.257-1.269,2.894c-1.003-0.586-2.068-1.323-2.436-2.166
		C449.857,480.722,450.785,479.746,452.253,480.048z M452.273,496.002c-0.565,0.399-1.227,0.413-1.801,0.544
		c0.704-0.89,1.273-2.034,1.25-2.749c-2.084,0.011-3.73-2.981-3.327-4.748c0.576-0.033,1.162-0.038,1.75-0.041
		c0.01,0.145,0.033,0.297,0.084,0.464c0.885-0.135,1.888-0.283,2.828-0.173c-0.503,1.843-1.339,2.359-2.801,3.492
		c1.19-0.039,2.398-0.048,3.576,0.007C453.303,494.332,453.516,495.125,452.273,496.002z M519.964,492.548
		c0.2,0,0.365-0.029,0.513-0.075c0.141,0.608,0.401,1.219,0.146,1.914c-0.051,0.138-0.12,0.256-0.191,0.372
		C520.032,494.133,519.826,493.404,519.964,492.548z M520.314,499.472c-0.272-0.553-0.493-1.116-0.618-1.68
		c0.671-0.051,1.314-0.174,1.957-0.288C521.416,498.436,520.898,498.994,520.314,499.472z M524.957,507.492
		c-0.473-0.436-0.865-1.031-1.238-1.621c0.532,0.171,1.075,0.364,1.572,0.617C525.156,506.806,525.04,507.137,524.957,507.492z
		 M525.998,505.033c-0.885,0.311-1.74,0.516-2.445,0.575c-0.079-0.125-0.159-0.249-0.238-0.369c0.364-0.149,0.661-0.305,0.75-0.517
		c0.006-0.015,0.006-0.024,0.012-0.039c0.74,0.162,1.72-0.143,2.36-0.668C526.312,504.372,526.159,504.706,525.998,505.033z
		 M525.295,502.431c-0.664-0.641-1.262-1.373-1.79-2.013c0.887-0.041,1.859-0.021,2.78-0.018c-0.162-0.047-0.323-0.093-0.481-0.138
		c0.409,0.05,0.817,0.1,1.171,0.035C526.791,501.272,526.131,501.951,525.295,502.431z M531.372,493.768
		c-0.119-0.236-0.227-0.469-0.322-0.697c0.188-0.107,0.365-0.225,0.528-0.352C531.635,493.042,531.548,493.398,531.372,493.768z
		 M612.692,471.205c-0.516,0.992-1.871,1.441-2.742,2.113c-0.381-0.625-0.727-1.306-0.886-1.921
		C610.401,471.121,611.714,470.561,612.692,471.205z M611.289,465.817c0.382,1.487-0.346,2.257-1.269,2.894
		c-1.003-0.586-2.068-1.323-2.436-2.166C608.893,466.491,609.822,465.515,611.289,465.817z M611.31,481.771
		c-0.565,0.399-1.227,0.413-1.801,0.544c0.704-0.89,1.273-2.034,1.25-2.749c-2.084,0.011-3.73-2.981-3.327-4.748
		c0.576-0.033,1.162-0.038,1.75-0.041c0.01,0.145,0.033,0.297,0.084,0.464c0.885-0.135,1.888-0.283,2.828-0.173
		c-0.503,1.843-1.339,2.359-2.801,3.492c1.19-0.039,2.398-0.048,3.576,0.007C612.339,480.101,612.552,480.894,611.31,481.771z
		 M683.903,493.74c-1.351-0.011-2.279-1.098-3.425-1.704c0.506-0.795,2.373-0.946,2.624-1.545c0.006-0.015,0.006-0.024,0.012-0.039
		c0.74,0.162,1.72-0.143,2.36-0.668C684.994,491.154,684.102,492.202,683.903,493.74z"/>
	<linearGradient id="SVGID_5_" gradientUnits="userSpaceOnUse" x1="732.8166" y1="497.5281" x2="732.8167" y2="497.4111">
		<stop  offset="0" style="stop-color:#D2E5D4"/>
		<stop  offset="1" style="stop-color:#94BBA9"/>
	</linearGradient>
	<path fill="url(#SVGID_5_)" d="M732.48,497.411c0.187,0.08,0.407,0.124,0.674,0.116
		C732.899,497.469,732.682,497.435,732.48,497.411z"/>
	<linearGradient id="SVGID_6_" gradientUnits="userSpaceOnUse" x1="424.3704" y1="463.4697" x2="424.3704" y2="461.8356">
		<stop  offset="0" style="stop-color:#D2E5D4"/>
		<stop  offset="1" style="stop-color:#94BBA9"/>
	</linearGradient>
	<path fill="url(#SVGID_6_)" d="M424.518,463.47c0.006-0.59-0.086-1.158-0.296-1.634
		C424.304,462.371,424.407,462.919,424.518,463.47z"/>
	<linearGradient id="SVGID_7_" gradientUnits="userSpaceOnUse" x1="418.666" y1="481.8742" x2="418.666" y2="481.5665">
		<stop  offset="0" style="stop-color:#D2E5D4"/>
		<stop  offset="1" style="stop-color:#94BBA9"/>
	</linearGradient>
	<path fill="url(#SVGID_7_)" d="M419.392,481.871c-0.406-0.147-0.851-0.288-1.452-0.305
		C418.521,481.803,418.997,481.892,419.392,481.871z"/>
	<linearGradient id="SVGID_8_" gradientUnits="userSpaceOnUse" x1="364.9229" y1="510.1615" x2="364.9229" y2="510.0592">
		<stop  offset="0" style="stop-color:#D2E5D4"/>
		<stop  offset="1" style="stop-color:#94BBA9"/>
	</linearGradient>
	<path fill="url(#SVGID_8_)" d="M365.373,510.119c-0.266-0.068-0.581-0.067-0.9-0.048
		C364.728,510.165,365.021,510.194,365.373,510.119z"/>
	<linearGradient id="SVGID_9_" gradientUnits="userSpaceOnUse" x1="222.959" y1="472.8032" x2="222.959" y2="471.1691">
		<stop  offset="0" style="stop-color:#D2E5D4"/>
		<stop  offset="1" style="stop-color:#94BBA9"/>
	</linearGradient>
	<path fill="url(#SVGID_9_)" d="M223.107,472.803c0.006-0.59-0.086-1.158-0.296-1.634
		C222.893,471.704,222.996,472.253,223.107,472.803z"/>
	<linearGradient id="SVGID_10_" gradientUnits="userSpaceOnUse" x1="217.2546" y1="491.2077" x2="217.2546" y2="490.9">
		<stop  offset="0" style="stop-color:#D2E5D4"/>
		<stop  offset="1" style="stop-color:#94BBA9"/>
	</linearGradient>
	<path fill="url(#SVGID_10_)" d="M217.98,491.205c-0.406-0.147-0.851-0.288-1.452-0.305
		C217.11,491.136,217.586,491.225,217.98,491.205z"/>
	<linearGradient id="SVGID_11_" gradientUnits="userSpaceOnUse" x1="163.5116" y1="519.4949" x2="163.5116" y2="519.3927">
		<stop  offset="0" style="stop-color:#D2E5D4"/>
		<stop  offset="1" style="stop-color:#94BBA9"/>
	</linearGradient>
	<path fill="url(#SVGID_11_)" d="M163.962,519.452c-0.266-0.068-0.581-0.067-0.9-0.048
		C163.317,519.498,163.61,519.528,163.962,519.452z"/>
	<linearGradient id="SVGID_12_" gradientUnits="userSpaceOnUse" x1="113.4329" y1="493.9053" x2="113.4329" y2="492.2712">
		<stop  offset="0" style="stop-color:#D2E5D4"/>
		<stop  offset="1" style="stop-color:#94BBA9"/>
	</linearGradient>
	<path fill="url(#SVGID_12_)" d="M113.581,493.905c0.006-0.59-0.086-1.158-0.296-1.634
		C113.367,492.806,113.47,493.355,113.581,493.905z"/>
	<linearGradient id="SVGID_13_" gradientUnits="userSpaceOnUse" x1="107.7285" y1="512.3098" x2="107.7285" y2="512.0021">
		<stop  offset="0" style="stop-color:#D2E5D4"/>
		<stop  offset="1" style="stop-color:#94BBA9"/>
	</linearGradient>
	<path fill="url(#SVGID_13_)" d="M108.454,512.307c-0.406-0.147-0.851-0.288-1.452-0.305
		C107.584,512.239,108.059,512.327,108.454,512.307z"/>
	<linearGradient id="SVGID_14_" gradientUnits="userSpaceOnUse" x1="53.9854" y1="540.597" x2="53.9854" y2="540.4948">
		<stop  offset="0" style="stop-color:#D2E5D4"/>
		<stop  offset="1" style="stop-color:#94BBA9"/>
	</linearGradient>
	<path fill="url(#SVGID_14_)" d="M54.436,540.554c-0.266-0.068-0.581-0.067-0.9-0.048C53.791,540.6,54.083,540.63,54.436,540.554z"
		/>
</g>
<linearGradient id="ground_1_" gradientUnits="userSpaceOnUse" x1="380.9828" y1="555.8818" x2="380.9828" y2="601.8875">
	<stop  offset="0" style="stop-color:#41A247"/>
	<stop  offset="0.1666" style="stop-color:#429C45"/>
	<stop  offset="0.4117" style="stop-color:#458C40"/>
	<stop  offset="0.7053" style="stop-color:#447336"/>
	<stop  offset="1" style="stop-color:#3E552A"/>
</linearGradient>
<path id="ground" fill="url(#ground_1_)" d="M755.836,557.856c0,0-301.025-4.442-749.706,0v44.031h749.706V557.856z"/>
<rect id="timeline" x="6.13" y="601.888" fill="#9B8579" width="749.706" height="12"/>
<g id="lines">
	<line fill="none" stroke="#9B8579" stroke-miterlimit="10" x1="59.463" y1="613.888" x2="59.463" y2="634.554"/>
	<line fill="none" stroke="#9B8579" stroke-miterlimit="10" x1="194.13" y1="613.888" x2="194.13" y2="634.554"/>
	<line fill="none" stroke="#9B8579" stroke-miterlimit="10" x1="124" y1="613.888" x2="124" y2="634.554"/>
	<line fill="none" stroke="#9B8579" stroke-miterlimit="10" x1="263.463" y1="613.888" x2="263.463" y2="634.554"/>
	<line fill="none" stroke="#9B8579" stroke-miterlimit="10" x1="330.797" y1="613.888" x2="330.797" y2="634.554"/>
	<line fill="none" stroke="#9B8579" stroke-miterlimit="10" x1="398.797" y1="613.888" x2="398.797" y2="634.554"/>
	<line fill="none" stroke="#9B8579" stroke-miterlimit="10" x1="466.13" y1="613.888" x2="466.13" y2="634.554"/>
	<line fill="none" stroke="#9B8579" stroke-miterlimit="10" x1="602.13" y1="613.888" x2="602.13" y2="634.554"/>
	<line fill="none" stroke="#9B8579" stroke-miterlimit="10" x1="670.751" y1="613.888" x2="670.751" y2="634.554"/>
	<line fill="none" stroke="#9B8579" stroke-miterlimit="10" x1="534.758" y1="613.888" x2="534.758" y2="634.554"/>
</g>
<g id="markers">
	<circle fill="#FFFFFF" stroke="#9B8579" stroke-miterlimit="10" cx="366.782" cy="617.221" r="5.667"/>
	<line fill="none" stroke="#9B8579" stroke-miterlimit="10" x1="366.782" y1="622.887" x2="366.782" y2="674.554"/>
	<circle fill="#FFFFFF" stroke="#9B8579" stroke-miterlimit="10" cx="92.178" cy="617.221" r="5.667"/>
	<line fill="none" stroke="#9B8579" stroke-miterlimit="10" x1="92.178" y1="622.887" x2="92.178" y2="674.554"/>
	<line fill="none" stroke="#9B8579" stroke-miterlimit="10" x1="619.808" y1="612.887" x2="619.808" y2="669.554"/>
	<line fill="none" stroke="#9B8579" stroke-miterlimit="10" x1="646.13" y1="612.887" x2="646.13" y2="670.554"/>
	<circle fill="#FFFFFF" stroke="#9B8579" stroke-miterlimit="10" cx="718.601" cy="617.221" r="5.667"/>
	<line fill="none" stroke="#9B8579" stroke-miterlimit="10" x1="718.601" y1="622.887" x2="718.601" y2="673.554"/>
</g>
<g id="seedling">
	<g>
		<path fill="#726658" d="M19.59,544.031c0,0,0.281,0.043,0.731,0.149c0.421,0.126,1.039,0.294,1.661,0.582
			c1.274,0.553,2.698,1.484,3.807,2.64c0.563,0.571,1.06,1.19,1.473,1.808c0.192,0.319,0.328,0.663,0.413,1.019
			c0.081,0.36,0.117,0.729,0.108,1.099c0.002,0.363-0.091,0.763-0.14,1.093c-0.082,0.354-0.179,0.681-0.282,0.966
			c-0.112,0.292-0.205,0.525-0.304,0.709c-0.086,0.175-0.132,0.268-0.132,0.268l-0.816,0.579c0,0-0.103,0.013-0.297,0.036
			c-0.206,0.033-0.457,0.044-0.77,0.053c-0.303,0.003-0.644-0.014-1.005-0.053c-0.329-0.063-0.736-0.107-1.078-0.229
			c-0.353-0.114-0.689-0.269-1.002-0.465c-0.309-0.198-0.588-0.44-0.826-0.726c-0.447-0.593-0.867-1.266-1.22-1.987
			c-0.725-1.428-1.134-3.08-1.235-4.465c-0.066-0.681-0.02-1.321-0.001-1.76c0.049-0.46,0.101-0.739,0.101-0.739L19.59,544.031z"/>
	</g>
	<path fill="none" stroke="#726658" stroke-miterlimit="10" d="M29.817,540.987c-2.361,6.429-4.786,11.296,1,17"/>
	<g>
		<path fill="#726658" d="M34.641,535.053c0,0,0.052,0.28,0.101,0.739c0.02,0.439,0.066,1.078-0.001,1.76
			c-0.101,1.385-0.51,3.037-1.235,4.465c-0.353,0.72-0.773,1.394-1.22,1.987c-0.238,0.287-0.517,0.528-0.826,0.726
			c-0.313,0.195-0.649,0.351-1.002,0.465c-0.342,0.121-0.75,0.166-1.078,0.229c-0.362,0.039-0.702,0.056-1.005,0.053
			c-0.313-0.009-0.563-0.02-0.77-0.053c-0.194-0.023-0.297-0.036-0.297-0.036l-0.816-0.579c0,0-0.046-0.093-0.132-0.268
			c-0.099-0.184-0.192-0.417-0.304-0.709c-0.103-0.285-0.2-0.612-0.282-0.966c-0.049-0.331-0.142-0.73-0.14-1.093
			c-0.009-0.371,0.027-0.74,0.108-1.099c0.085-0.357,0.221-0.7,0.413-1.019c0.412-0.618,0.909-1.236,1.473-1.808
			c1.108-1.156,2.533-2.087,3.807-2.64c0.621-0.288,1.24-0.455,1.661-0.582c0.45-0.106,0.731-0.149,0.731-0.149L34.641,535.053z"/>
	</g>
</g>
<g id="redwood">
	<g id="trunk_2_">
		<path fill="#EDA871" stroke="#726658" stroke-miterlimit="10" d="M613.664,556.277c0,0,9.832-16.585,6.291-10.252
			c-3.541,6.333,3.85-17.243,4.754-32.189c0.904-14.946,7.505-124.118,7.505-124.118L652.95,29.595l2.508-5.171l0.055,218.494
			l1.62,188.272c0,0,0.184,68.759,1.693,87.378s15.558,37.98,15.558,37.98L613.664,556.277z"/>
		<path fill="#EB7949" stroke="#726658" stroke-miterlimit="10" d="M631.39,556.064c0,0,0.181-3.546,5.021-8.951
			c2.909-3.248,6.343-5.705,7.247-20.651c0.904-14.946,7.11-121.543,7.11-121.543l2.182-375.323l2.508-5.171l0.055,218.494
			l1.62,188.272c0,0,0.184,68.759,1.693,87.378s15.558,37.98,15.558,37.98L631.39,556.064z"/>
		<path fill="#CD633A" stroke="#726658" stroke-miterlimit="10" d="M613.664,556.277c0,0,9.832-16.585,6.291-10.252
			c-3.541,6.333,3.85-17.243,4.754-32.189c0.904-14.946,7.505-124.118,7.505-124.118L652.95,29.595l2.508-5.171l-7.721,219.23
			l-5.338,178.073c0,0-8.303,77.216-6.794,95.834c1.509,18.618-5.309,38.516-5.309,38.516L613.664,556.277z"/>
		<path fill="#A74C25" stroke="#726658" stroke-miterlimit="10" d="M619.558,556.206c5.368-5.106,7.739-23.443,7.739-23.443
			s-0.016,11.392-3.723,23.395C623.574,556.158,621.973,556.247,619.558,556.206z"/>
		<path fill="#C15A32" stroke="#726658" stroke-miterlimit="10" d="M655.558,555.773c0,0-6.697-1.138-8.422-11.058
			s1.999-41.133,3.362-64.605c2.934,5.928,1.673,18.616,2.512,25.032C653.643,521.2,646.977,527.004,655.558,555.773z"/>
		<path fill="#C15A32" stroke="#726658" stroke-miterlimit="10" d="M655.258,501.099c0,0-2.792,35.057,9.884,47.115
			C656.22,526.61,655.258,501.099,655.258,501.099z"/>
		<path fill="#BF5829" stroke="#726658" stroke-miterlimit="10" d="M641.995,548.491l-1.183,7.49l4.177-0.05
			C644.988,555.932,642.689,552.821,641.995,548.491z"/>
		<path fill="#D66F41" stroke="#726658" stroke-miterlimit="10" d="M657.898,547.497l3.647,8.396l4.177-0.05
			C665.722,555.843,658.593,551.827,657.898,547.497z"/>
		<path fill="#A74C25" stroke="#726658" stroke-miterlimit="10" d="M654.01,428.014c0,0-3.387,38.92-2.154,43.082
			C653.091,475.259,654.01,428.014,654.01,428.014z"/>
		<path fill="#C2572F" stroke="#9B8579" stroke-miterlimit="10" d="M642.891,286.532c0,0-6.622,132.912-5.737,147.225
			C638.04,448.07,642.891,286.532,642.891,286.532z"/>
		<path fill="#E1955F" stroke="#726658" stroke-miterlimit="10" d="M650.226,335.351c0,0-6.622,132.912-5.737,147.225
			C645.375,496.889,650.226,335.351,650.226,335.351z"/>
		<path fill="#9A3F22" stroke="#726658" stroke-miterlimit="10" d="M637.304,449.874c0,0-3.308,40.716-3.846,49.398
			C632.919,507.954,637.304,449.874,637.304,449.874z"/>
		<path opacity="0.5" fill="#83211A" d="M613.664,556.277c0,0,9.832-16.585,6.291-10.252c-3.541,6.333,3.85-17.243,4.754-32.189
			c0.904-14.946,7.505-124.118,7.505-124.118L652.95,29.595l2.508-5.171l0.055,218.494l1.62,188.272c0,0,0.184,68.759,1.693,87.378
			s15.558,37.98,15.558,37.98L613.664,556.277z"/>
	</g>
	<g id="leaves">
		
			<linearGradient id="SVGID_15_" gradientUnits="userSpaceOnUse" x1="658.5054" y1="311.9451" x2="658.5054" y2="326.2179" gradientTransform="matrix(0.9999 -0.012 0.012 0.9999 -3.3846 -0.5514)">
			<stop  offset="0" style="stop-color:#41A247"/>
			<stop  offset="1" style="stop-color:#296733"/>
		</linearGradient>
		<path fill="url(#SVGID_15_)" stroke="#594A42" stroke-miterlimit="10" d="M665.823,315.565c0.494-2.302,1.424-5.148-0.895-6.76
			c-1.06-0.736-2.577,0.275-3.574-0.875c-0.602-0.694-0.165-3.606-0.233-4.499c-2.01,1.87-4.357,2.167-4.19,5.396
			c-2.177-1.577-3.258-3.038-4.925,0.791c-1.544,3.546,0.116,4.163,2.888,5.748c2.895,1.656,10.954,4.629,11.559-0.773"/>
		
			<linearGradient id="SVGID_16_" gradientUnits="userSpaceOnUse" x1="653.3124" y1="183.1222" x2="653.3124" y2="197.158" gradientTransform="matrix(0.9999 -0.012 0.012 0.9999 -3.3846 -0.5514)">
			<stop  offset="0" style="stop-color:#41A247"/>
			<stop  offset="1" style="stop-color:#296733"/>
		</linearGradient>
		<path fill="url(#SVGID_16_)" stroke="#594A42" stroke-miterlimit="10" d="M654.702,188.302c-1.359-3.593-0.018-7.545-0.503-11.193
			c-1.286-0.449-3.054-2.98-4.807-2.244c-1.382,0.58-2.092,5.833-0.07,6.865c2.636,1.345,3.054-2.272,4.438,1.835
			c0.661,1.964-0.834,5.802,2.552,5.039"/>
		
			<linearGradient id="SVGID_17_" gradientUnits="userSpaceOnUse" x1="649.9583" y1="161.4899" x2="649.9583" y2="173.7361" gradientTransform="matrix(0.9999 -0.012 0.012 0.9999 -3.3846 -0.5514)">
			<stop  offset="0" style="stop-color:#41A247"/>
			<stop  offset="1" style="stop-color:#296733"/>
		</linearGradient>
		<path fill="url(#SVGID_17_)" stroke="#594A42" stroke-miterlimit="10" d="M646.771,153.803c-1.967,0.051-5.633-0.052-4.465,3.194
			c0.787,2.187,3.51,0.446,4.544,2.893c1.086,2.572-1.298,3.489,2.302,4.833c1.376,0.514,4.233,0.702,5.741,0.501
			c0.178-0.728,0.162-2.071-0.034-2.794c-3.243,0.153-4.283-0.036-4.483-2.798c-0.118-1.62,1.989-4.68-1.292-4.618
			c0.122-3.886-4.326-0.635-5.835-0.204"/>
		
			<linearGradient id="SVGID_18_" gradientUnits="userSpaceOnUse" x1="656.9647" y1="73.8967" x2="656.9647" y2="87.1159" gradientTransform="matrix(0.9999 -0.012 0.012 0.9999 -3.3846 -0.5514)">
			<stop  offset="0" style="stop-color:#41A247"/>
			<stop  offset="1" style="stop-color:#296733"/>
		</linearGradient>
		<path fill="url(#SVGID_18_)" stroke="#594A42" stroke-miterlimit="10" d="M653.532,69.042c0.847,3.637-5.246-0.196-4.393-3.397
			c8.546-1.337,2.297,6.232,5.342,10.686c4.816,7.044,8.191-4.312,2.295-4.757"/>
		
			<linearGradient id="SVGID_19_" gradientUnits="userSpaceOnUse" x1="644.0908" y1="136.3793" x2="644.0908" y2="156.1477" gradientTransform="matrix(0.8738 -0.4863 0.6809 1.2233 -29.2742 203.2999)">
			<stop  offset="0" style="stop-color:#41A247"/>
			<stop  offset="1" style="stop-color:#296733"/>
		</linearGradient>
		<path fill="url(#SVGID_19_)" stroke="#594A42" stroke-miterlimit="10" d="M653.143,56.811c-1.838-3.256-4.035-6.902-8.229-3.723
			c1.23,2.702-1.976,2.864-3.145,0.699c-2.463,1.237-4.96,2.915-7.589,3.559c-3.014,0.738-5.147-0.101-8.288,1.055
			c-1.123,0.414-7.301,1.345-5.667,3.171c0.757,0.846,2.322-0.303,3.053,0.084c0.948,0.502,1.501,1.993,1.944,2.975
			c-2.257,2.065-2.906,0.389-4.248,4.208c-1.258-0.272-2.061-1.405-3.491-1.597c-1.742-0.234-2.181,0.966-3.43,1.152
			c-2.68,0.4-4.538-1.484-7.284,0.781c0.705,1.423,2.184,2.773,2.786,3.889c0.736,1.364,0.524,2.765,1.289,4.096
			c2.692-0.65,7.72,0.926,9.66-1.199c1.391-1.523,0.26-2.698,2.495-4.113c2.722-1.723,3.252-0.914,2.339,1.501
			c-0.648,1.713-3.058,1.916-0.422,4.065c1.745,1.423,3.212,0.146,5.242,0.605c1.495,0.338,2.887,2.603,4.999,1.004
			c1.601-1.211,0.552-3.832,1.962-5.287c1.721,0.582,3.112,1.627,3.4,3.433c0.104,0.653-2.158,5.441,1.862,2.341
			c2.622-2.021-0.36-3.106,0.085-5.284c0.347-1.697,2.239-2.339,4.082-3.24c1.373,0.762,2.42,1.959,3.098,3.384
			c0.648-0.148,1.741-0.759,2.186-1.225c0.424-2.091,1.722-3.858,2.949-5.41c1.225-1.549,3.407-2.609,1.332-4.92
			c-1.365-1.519-5.473-0.582-5.513-3.841c-0.006-0.472,1.744-0.649,1.81-1.383c0.084-0.937-0.415-1.195-0.728-2.074
			c-0.34-0.954-1.439-1.684-1.902-2.754"/>
		
			<linearGradient id="SVGID_20_" gradientUnits="userSpaceOnUse" x1="659.3741" y1="146.7091" x2="659.3741" y2="228.2657" gradientTransform="matrix(0.9373 -0.3485 0.3485 0.9373 -36.7703 178.1024)">
			<stop  offset="0" style="stop-color:#41A247"/>
			<stop  offset="1" style="stop-color:#296733"/>
		</linearGradient>
		<path fill="url(#SVGID_20_)" stroke="#594A42" stroke-miterlimit="10" d="M594.471,121.503c1.401,2.035,5.137,3.914,5.496,6.465
			c0.127,0.9-0.419,2.531-1.237,3.194c-1.288,1.044-2.656,0.053-3.505,0.663c-4.383,3.153,3.18,8.068,3.876,11.482
			c-2.378,2.089-4.367,2.875-0.454,5.25c1.898-2.439,3.732-7.694,7.2-9.36c3.659-1.757,5.852,1.35,4.273-3.982
			c-0.479-1.62-2.24-5.874,0.335-6.653c3.406-1.031,2.166,4.154,3.01,5.391c1.921,2.818,4.86,1.227,4.141-1.855
			c-0.488-2.094-3.161-3.17-2.347-5.546c1.298-3.79,6.172-1.146,8.959-1.396c-0.392-4.127-0.718-7.582,4.294-8.715
			c3.308,3.638,6.529,4.464,9.36-0.088c1.191-1.915,0.747-3.509,3.361-3.87c1.974-0.272,5.694,1.539,5.994,3.672
			c-2.631,1.457-5.771,2.186-8.569,3.349c1.39,4.082,2.853,6.795,5.66,9.826c3.141-0.98,4.689-1.613,6.493-3.82
			c0.734,1.051,1.304,2.655,2.344,3.625c1.64-2.029,3.651-2.176,4.813-4.591c1.665-3.463,0.988-3.705,5.612-4.315
			c1.927-0.254,8.996-2.352,9.868-0.935c2.066,3.36-6.307,6.031-8.341,6.796c-2.399,0.903-2.634,0.73-4.69,0.63
			c-1.291-0.062-1.661-1.223-3.158-0.47c-1.793,0.902-2.032,4.411-1.396,6.018c1.144,2.893,8.153,9.155,7.65,2.334
			c3.744-0.474,4.872,4.274,5.683,7.055c4.269-1.313,6.723-2.157,10.698-0.86c3.599,1.174,6.152-1.018,10.008-2.331
			c2.52-0.858,4.311-1.662,6.692-0.489c1.561,0.769,2.846,2.306,4.234,3.368c3.073,2.352,7.498,3.288,11.329,1.82
			c0.198-3.096-1.185-7.82-3.424-9.443c-3.391-2.459-9.937-1.709-12.653-4.41c-1.05-1.044-1.007-3.508-1.774-4.816
			c-1.482-2.526-1.796-1.421-3.949-2.73c-1.2-0.73-2.924-2.346-2.754-4.142c0.172-1.804,2.543-2.278,1.131-4.305
			c-3.878,0.496-5.906,3.627-7.642-2.375c3.729-1.035,3.04-4.713,1.911-7.628c-0.522-1.348-1.017-2.945-1.866-4.097
			c-1.649-2.237-1.405-1.438-4.138-1.888c-3.816-0.629-3.23-1.641-4.514-4.834c-1.347-3.352-3.988-3.533-7.211-3.489
			c-1.666,0.023-2.374,1.351-3.516-0.399c-1.262-1.934,0.793-2.058,0.581-3.292c-0.582-3.381-4.449-4.798-7.85-4.296
			c-1.864,0.275-2.411,0.445-4.218,0.363c-3.728-0.169-5.2-1.236-7.831,1.375c-2.13,2.114-4.732,5.104-3.598,8.15
			c-1.844,2.326-2.951,0.765-5.238,0.518c-2.673-0.289-2.276,0.998-4.014,1.866c-2.812,1.405-2.95,0.856-5.086-0.704
			c-1.726-1.261-1.487-2.69-3.516-0.91c-2.747,2.41-1.525,6.587,1.87,6.586c2.415,0,3.606-1.877,5.09,0.775
			c1.235,2.207,0.076,2.747-1.562,4.073c-3.141,2.543-7.07,1.73-10.469,3.999c-2.878,1.922-5.25,4.935-8.924,4.089
			c-2.921-0.673-4.434-4.637-7.059-5.448c-1.331-0.411-2.15,0.475-3.518,0.629c-2.254,0.254-3.587-1.099-5.674-0.905
			c-2.986,0.278-3.361,4.18-4.871,5.871c-0.918,1.028-3.762,1.538-2.021,3.76c0.955,1.219,2.568,0.291,3.779,0.026
			c4.401-0.964,9.597-3.53,14.181-2.445c2.456,0.581,6.913,2.713,7.421,5.322c-2.31,2.497-4.073,1.993-7.235,2.342
			c-2.073,0.228-8.039,0.391-7.87,2.991"/>
		
			<linearGradient id="SVGID_21_" gradientUnits="userSpaceOnUse" x1="372.5406" y1="162.0558" x2="372.5406" y2="243.6125" gradientTransform="matrix(-0.9823 -0.1874 -0.1874 0.9823 1040.9332 91.2315)">
			<stop  offset="0" style="stop-color:#41A247"/>
			<stop  offset="1" style="stop-color:#296733"/>
		</linearGradient>
		<path fill="url(#SVGID_21_)" stroke="#594A42" stroke-miterlimit="10" d="M699.353,211.656c-1.186,2.213-5.231,4.56-5.028,7.159
			c0.071,0.918,1.137,2.483,2.292,3.046c1.817,0.886,3.223-0.277,4.401,0.229c6.082,2.614-1.83,8.478-1.82,11.984
			c3.395,1.797,5.994,2.338,1.858,5.203c-2.902-2.207-6.429-7.244-11.035-8.481c-4.859-1.305-6.734,2.08-6.157-3.458
			c0.175-1.682,1.242-6.163-2.065-6.624c-4.372-0.61-1.581,4.43-2.292,5.774c-1.619,3.062-5.567,1.833-5.467-1.344
			c0.068-2.159,3.029-3.568,1.452-5.848c-2.514-3.635-7.744-0.381-11.175-0.285c-0.555-4.183-1.023-7.685-7.362-8.196
			c-3.09,4.056-6.776,5.284-11.332,1.076c-1.917-1.77-1.778-3.423-5.027-3.459c-2.454-0.027-6.497,2.249-6.328,4.424
			c3.542,1.133,7.519,1.473,11.19,2.29c-0.661,4.262-1.753,7.161-4.389,10.547c-4.04-0.591-6.068-1.033-8.799-3.02
			c-0.624,1.144-0.913,2.822-1.928,3.922c-2.488-1.829-4.955-1.726-6.96-4.001c-2.876-3.262-2.117-3.589-7.857-3.625
			c-2.392-0.015-11.457-1.238-12.157,0.29c-1.659,3.623,9.125,5.257,11.774,5.771c3.124,0.606,3.365,0.403,5.825,0.048
			c1.544-0.223,1.702-1.432,3.699-0.864c2.392,0.681,3.555,4.166,3.188,5.855c-0.661,3.04-7.568,10.184-8.662,3.289
			c-4.642-0.009-4.822,4.887-5.107,7.774c-5.486-0.784-8.662-1.325-13.142,0.468c-4.057,1.624-7.688-0.256-12.675-1.091
			c-3.259-0.546-5.623-1.129-8.208,0.342c-1.694,0.964-2.864,2.664-4.276,3.9c-3.127,2.738-8.24,4.226-13.236,3.231
			c-1.012-3.077-0.519-7.981,1.782-9.886c3.484-2.885,11.582-2.947,14.19-5.99c1.008-1.177,0.342-3.64,0.943-5.045
			c1.161-2.715,1.816-1.647,4.091-3.226c1.268-0.88,2.949-2.714,2.295-4.491c-0.657-1.786-3.641-1.966-2.44-4.172
			c4.81,0.015,8.042,2.899,8.642-3.329c-4.764-0.573-4.849-4.344-4.211-7.404c0.295-1.415,0.495-3.077,1.233-4.336
			c1.434-2.446,1.339-1.615,4.529-2.406c4.454-1.104,3.494-2.045,4.249-5.404c0.792-3.525,3.937-4.035,7.843-4.391
			c2.019-0.184,3.206,1.058,4.149-0.836c1.043-2.094-1.472-1.963-1.523-3.226c-0.14-3.46,4.179-5.36,8.415-5.279
			c2.321,0.044,3.025,0.146,5.188-0.16c4.463-0.632,5.976-1.885,9.807,0.404c3.101,1.853,6.991,4.525,6.381,7.717
			c2.809,2.101,3.757,0.4,6.458-0.132c3.158-0.621,2.999,0.717,5.316,1.371c3.748,1.058,3.779,0.491,5.97-1.338
			c1.771-1.478,1.126-2.879,4.022-1.348c3.921,2.073,3.486,6.409-0.617,6.83c-2.919,0.3-4.826-1.432-5.958,1.409
			c-0.942,2.364,0.593,2.761,2.903,3.886c4.43,2.157,8.975,0.854,13.647,2.705c3.957,1.567,7.575,4.292,11.803,2.987
			c3.362-1.038,4.201-5.196,7.171-6.335c1.505-0.577,2.716,0.208,4.408,0.193c2.787-0.025,4.061-1.547,6.631-1.611
			c3.678-0.092,5.104,3.77,7.35,5.276c1.365,0.916,4.929,1.073,3.379,3.516c-0.85,1.34-3.031,0.611-4.56,0.496
			c-5.559-0.419-12.477-2.343-17.746-0.686c-2.823,0.888-7.676,3.577-7.64,6.254c3.414,2.214,5.419,1.491,9.326,1.447
			c2.561-0.029,9.812-0.607,10.256,2.019"/>
		
			<linearGradient id="SVGID_22_" gradientUnits="userSpaceOnUse" x1="624.2281" y1="140.9938" x2="624.2281" y2="181.986" gradientTransform="matrix(0.9999 -0.012 0.012 0.9999 -3.3846 -0.5514)">
			<stop  offset="0" style="stop-color:#41A247"/>
			<stop  offset="1" style="stop-color:#296733"/>
		</linearGradient>
		<path fill="url(#SVGID_22_)" stroke="#594A42" stroke-miterlimit="10" d="M600.99,168.677c2.987,4.743,5.037,0.723,9.358,2.763
			c1.245,0.588,1.452,2.412,2.988,2.58c2.152,0.235,2.856-2.77,3.826-3.929c3.22-3.85,2.438-0.549,6.02,0.247
			c1.527,0.339,2.914-0.894,4.159-0.714c1.731,0.25,3.252,1.935,5.069,2.227c2.727,0.437,4.895-0.223,5.157-3.034
			c0.289-3.112-1.008-2.255-2.925-3.491c-2.03-1.308-2.471-1.055-2.247-3.757c0.116-1.391,0.774-3.711,2.196-4.393
			c1.706-0.819,2.735,0.638,4.508-0.438c2.057-1.249,0.687-3.654,1.504-5.234c0.627-1.213,1.888-1.302,2.308-2.195
			c0.89-1.893-0.14-3.186,0.198-5.244c0.42-2.55,2.659-3.426,0.428-5.709c-0.643-0.657-2.28-0.932-3.051-1.377
			c-1.674-0.967-1.968-1.736-3.934-2.234c-2.044-0.518-5.381-1.067-7.386-1.107c-3.181-0.063-3.957,2.577-6.327,3.566
			c-0.339-5.876-9.297-4.549-12.605-2.297c-1.681,1.145-3.587,3.549-3.802,5.748c-0.42,4.297,5.803,4.23,9.002,4.121
			c0.948,3.47-3.545,3.132-5.44,3.785c-2.362,0.814-7.512,4.21-8.6,6.319c-2.058,3.99,5.914,10.167-0.083,13.794"/>
		
			<linearGradient id="SVGID_23_" gradientUnits="userSpaceOnUse" x1="673.4771" y1="140.3144" x2="673.4771" y2="177.1374" gradientTransform="matrix(0.9881 0.1539 -0.1539 0.9881 44.4992 -87.7114)">
			<stop  offset="0" style="stop-color:#41A247"/>
			<stop  offset="1" style="stop-color:#296733"/>
		</linearGradient>
		<path fill="url(#SVGID_23_)" stroke="#594A42" stroke-miterlimit="10" d="M665.534,153.619c-1.052-3.111-7.382-1.813-9.979-2.481
			c-2.079,3.777-1.244,5.166-0.701,8.938c0.513,3.565-1.432,4.538-1.94,7.763c-0.678,4.301,1.841,4.121,5.498,4.831
			c3.83,0.744,3.527,2.598,6.798,4c4.385,1.88,16.598,0.691,18.567,6.456c0.901,2.639-3.835,4.494-0.17,7.377
			c2.052,1.614,6.294,1.477,7.579-1.005c0.475-0.917,0.203-1.968-0.306-2.665c3.184-1.826,9.33,1.439,9.383,4.774
			c1.142-1.963,0.424-4.693,1.156-7.001c0.832,1.037,1.287,2.662,2.457,3.517c1.247,0.911,2.976,0.498,4.188,1.45
			c2.07,1.625,1.659,5.641,5.291,5.653c2.941,0.01,4.492-4.015,1.957-5.839c-1.065-0.766-2.261,0.361-3.314-0.47
			c-2.107-1.662-0.141-2.241-0.72-3.784c-0.657-1.753,0.387-0.9-1.571-1.87c-1.014-0.503-2.999-0.517-4.146-0.646
			c-2.004-0.225-8.021,0.01-7.921-3.511c0.158-5.522,11.607,2.203,13.892,2.458c1.055-2.799,0.085-3.855,0.112-6.404
			c2.587-0.304,6.042-1.295,5.276-4.762c-0.752-3.398-6.497-4.781-9.443-5.391c-5.561-1.151-3.769,3.822-6.996,4.47
			c-3.782,0.759-3.174-5.07-3.078-7.072c0.198-4.108-1.601-6.202-5.974-4.02c-2.789,1.392-2.399,4.796-5.787,5.53
			c-3.533,0.765-3.296-2.859-6.468-3.943c-3.744-1.279-4.833-0.206-3.773-4.472c0.223-0.898,1.007-1.629,1.185-2.655
			c-4.718-1.287-8.48,0.184-13.128-0.524"/>
		
			<linearGradient id="SVGID_24_" gradientUnits="userSpaceOnUse" x1="666.0126" y1="55.6827" x2="666.0126" y2="68.556" gradientTransform="matrix(0.9999 -0.012 0.012 0.9999 -3.3846 -0.5514)">
			<stop  offset="0" style="stop-color:#41A247"/>
			<stop  offset="1" style="stop-color:#296733"/>
		</linearGradient>
		<path fill="url(#SVGID_24_)" stroke="#594A42" stroke-miterlimit="10" d="M662.654,47.268c-1.481-0.081-5.319-0.323-6.443,0.448
			c-2.934,2.014-0.181,3.146,1.064,4.491c2.052,2.217,4.108,5.185,5.54,7.797c0.492-2.674,6.512-5.607,8.894-5.598
			c-2.525-1.167-1.95-3.731-5.757-2.799c0.261-1.784-0.175-3.648-2.322-3.387"/>
		
			<linearGradient id="SVGID_25_" gradientUnits="userSpaceOnUse" x1="653.3124" y1="224.9707" x2="653.3124" y2="231.852" gradientTransform="matrix(0.9999 -0.012 0.012 0.9999 -3.3846 -0.5514)">
			<stop  offset="0" style="stop-color:#41A247"/>
			<stop  offset="1" style="stop-color:#296733"/>
		</linearGradient>
		<path fill="url(#SVGID_25_)" stroke="#594A42" stroke-miterlimit="10" d="M646.197,216.722c-0.252,3.446,1.514,5.233,4.509,6.229
			c3.421,1.138,5.295-0.066,8.368-0.63c-0.593-2.391-1.295-3.835-3.542-4.756c-2.174-0.891-6.14-1.18-8.57-0.822
			c0.245,1.727,0.37,1,0.531,0.927"/>
		
			<linearGradient id="SVGID_26_" gradientUnits="userSpaceOnUse" x1="663.6834" y1="296.6252" x2="663.6834" y2="378.1818" gradientTransform="matrix(0.9319 -0.3626 0.3626 0.9319 -96.153 198.8064)">
			<stop  offset="0" style="stop-color:#41A247"/>
			<stop  offset="1" style="stop-color:#296733"/>
		</linearGradient>
		<path fill="url(#SVGID_26_)" stroke="#594A42" stroke-miterlimit="10" d="M592.542,270.828c1.432,2.013,5.195,3.836,5.593,6.381
			c0.14,0.898-0.38,2.537-1.189,3.213c-1.272,1.064-2.655,0.093-3.495,0.716c-4.335,3.219,3.301,8.019,4.049,11.422
			c-2.346,2.125-4.323,2.941-0.375,5.256c1.861-2.467,3.616-7.75,7.058-9.467c3.632-1.812,5.871,1.262,4.213-4.046
			c-0.504-1.613-2.329-5.839,0.235-6.658c3.39-1.082,2.228,4.12,3.091,5.345c1.964,2.789,4.878,1.153,4.113-1.918
			c-0.52-2.087-3.208-3.122-2.43-5.51c1.24-3.809,6.154-1.239,8.937-1.531c-0.454-4.121-0.833-7.57,4.162-8.779
			c3.362,3.588,6.596,4.365,9.357-0.229c1.162-1.933,0.694-3.52,3.302-3.92c1.97-0.302,5.717,1.452,6.049,3.581
			c-2.608,1.497-5.738,2.273-8.517,3.478c1.451,4.06,2.956,6.751,5.808,9.739c3.126-1.027,4.664-1.684,6.434-3.918
			c0.749,1.039,1.344,2.635,2.398,3.589c1.609-2.053,3.618-2.231,4.743-4.663c1.612-3.488,0.931-3.72,5.546-4.399
			c1.923-0.283,8.96-2.487,9.852-1.084c2.117,3.328-6.215,6.125-8.237,6.921c-2.385,0.939-2.623,0.769-4.68,0.701
			c-1.292-0.043-1.679-1.198-3.165-0.422c-1.779,0.929-1.965,4.441-1.305,6.039c1.188,2.875,8.29,9.03,7.684,2.218
			c3.737-0.53,4.936,4.2,5.789,6.968c4.249-1.377,6.69-2.258,10.684-1.021c3.617,1.12,6.136-1.111,9.972-2.482
			c2.506-0.896,4.285-1.727,6.683-0.59c1.572,0.745,2.88,2.263,4.284,3.304c3.108,2.305,7.547,3.175,11.355,1.648
			c0.151-3.098-1.303-7.801-3.566-9.391c-3.428-2.407-9.962-1.559-12.718-4.218c-1.066-1.028-1.06-3.493-1.847-4.788
			c-1.52-2.503-1.817-1.394-3.99-2.67c-1.211-0.711-2.96-2.302-2.816-4.1c0.144-1.806,2.508-2.316,1.065-4.322
			c-3.87,0.554-5.851,3.715-7.677-2.26c3.713-1.091,2.969-4.759,1.795-7.656c-0.543-1.34-1.062-2.929-1.928-4.068
			c-1.682-2.212-1.426-1.416-4.166-1.825c-3.825-0.571-3.255-1.592-4.587-4.766c-1.398-3.331-4.041-3.472-7.263-3.38
			c-1.666,0.048-2.353,1.386-3.521-0.346c-1.291-1.915,0.762-2.069,0.531-3.301c-0.633-3.372-4.521-4.73-7.914-4.177
			c-1.86,0.303-2.404,0.481-4.212,0.427c-3.73-0.112-5.218-1.157-7.81,1.494c-2.098,2.146-4.654,5.175-3.475,8.204
			c-1.809,2.354-2.939,0.81-5.229,0.597c-2.677-0.248-2.261,1.033-3.985,1.927c-2.79,1.447-2.937,0.901-5.096-0.627
			c-1.745-1.235-1.528-2.667-3.529-0.857c-2.711,2.452-1.426,6.609,1.969,6.557c2.415-0.037,3.577-1.931,5.101,0.698
			c1.268,2.188,0.117,2.745-1.5,4.096c-3.103,2.59-7.043,1.836-10.407,4.156c-2.849,1.965-5.175,5.014-8.861,4.223
			c-2.931-0.629-4.504-4.569-7.14-5.341c-1.337-0.391-2.142,0.507-3.508,0.682c-2.25,0.288-3.604-1.045-5.687-0.819
			c-2.982,0.323-3.297,4.231-4.781,5.944c-0.902,1.042-3.738,1.595-1.964,3.79c0.973,1.204,2.572,0.252,3.779-0.031
			c4.386-1.031,9.542-3.674,14.143-2.659c2.465,0.544,6.953,2.608,7.501,5.209c-2.272,2.532-4.042,2.055-7.198,2.451
			c-2.069,0.26-8.032,0.513-7.824,3.11"/>
		
			<linearGradient id="SVGID_27_" gradientUnits="userSpaceOnUse" x1="628.0281" y1="294.6707" x2="628.0281" y2="335.6628" gradientTransform="matrix(0.9999 -0.012 0.012 0.9999 -3.3846 -0.5514)">
			<stop  offset="0" style="stop-color:#41A247"/>
			<stop  offset="1" style="stop-color:#296733"/>
		</linearGradient>
		<path fill="url(#SVGID_27_)" stroke="#594A42" stroke-miterlimit="10" d="M606.637,322.297c2.987,4.743,5.037,0.723,9.358,2.763
			c1.245,0.588,1.452,2.412,2.988,2.58c2.152,0.235,2.856-2.77,3.826-3.929c3.22-3.85,2.438-0.549,6.02,0.247
			c1.527,0.339,2.914-0.894,4.159-0.714c1.731,0.25,3.252,1.935,5.069,2.227c2.727,0.437,4.895-0.223,5.157-3.034
			c0.289-3.112-1.008-2.255-2.925-3.491c-2.03-1.308-2.471-1.055-2.247-3.757c0.116-1.391,0.774-3.711,2.196-4.393
			c1.706-0.819,2.735,0.638,4.508-0.438c2.057-1.249,0.687-3.654,1.504-5.234c0.627-1.213,1.888-1.302,2.308-2.195
			c0.89-1.893-0.14-3.186,0.198-5.244c0.42-2.55,2.659-3.426,0.428-5.709c-0.643-0.657-2.28-0.932-3.051-1.377
			c-1.674-0.967-1.968-1.736-3.934-2.234c-2.044-0.518-5.381-1.067-7.386-1.107c-3.181-0.063-3.957,2.577-6.327,3.566
			c-0.339-5.876-9.297-4.549-12.605-2.297c-1.681,1.145-3.587,3.549-3.802,5.748c-0.42,4.297,5.803,4.23,9.002,4.121
			c0.948,3.47-3.545,3.132-5.44,3.784c-2.362,0.814-7.512,4.21-8.6,6.319c-2.058,3.99,5.914,10.167-0.083,13.794"/>
		
			<linearGradient id="SVGID_28_" gradientUnits="userSpaceOnUse" x1="443.3879" y1="67.2642" x2="443.3879" y2="91.3407" gradientTransform="matrix(-0.9999 0.012 0.012 0.9999 1116.9146 -14.0139)">
			<stop  offset="0" style="stop-color:#41A247"/>
			<stop  offset="1" style="stop-color:#296733"/>
		</linearGradient>
		<path fill="url(#SVGID_28_)" stroke="#594A42" stroke-miterlimit="10" d="M687.497,79.259c-1.687,2.827-2.947,0.496-5.456,1.754
			c-0.723,0.363-0.819,1.437-1.718,1.557c-1.26,0.169-1.716-1.586-2.302-2.253c-1.945-2.215-1.44-0.288-3.531,0.23
			c-0.892,0.221-1.724-0.484-2.452-0.361c-1.013,0.171-1.882,1.182-2.945,1.379c-1.595,0.295-2.878-0.062-3.071-1.709
			c-0.214-1.823,0.56-1.339,1.668-2.091c1.174-0.797,1.436-0.654,1.266-2.238c-0.087-0.815-0.507-2.168-1.352-2.549
			c-1.013-0.457-1.597,0.413-2.653-0.194c-1.225-0.704-0.455-2.136-0.957-3.052c-0.385-0.703-1.127-0.738-1.386-1.256
			c-0.549-1.099,0.037-1.873-0.19-3.076c-0.282-1.491-1.61-1.974-0.332-3.346c0.368-0.395,1.325-0.579,1.772-0.852
			c0.969-0.591,1.131-1.047,2.278-1.367c1.193-0.333,3.145-0.703,4.321-0.754c1.867-0.082,2.36,1.457,3.766,2.005
			c0.116-3.455,5.395-2.802,7.369-1.526c1.003,0.648,2.156,2.033,2.314,3.322c0.307,2.517-3.347,2.566-5.227,2.547
			c-0.508,2.051,2.126,1.789,3.248,2.145c1.398,0.445,4.47,2.366,5.139,3.589c1.265,2.314-3.329,6.053,0.243,8.098"/>
		
			<linearGradient id="SVGID_29_" gradientUnits="userSpaceOnUse" x1="654.2957" y1="143.1126" x2="654.2957" y2="155.9859" gradientTransform="matrix(0.9999 -0.012 0.012 0.9999 -3.3846 -0.5514)">
			<stop  offset="0" style="stop-color:#41A247"/>
			<stop  offset="1" style="stop-color:#296733"/>
		</linearGradient>
		<path fill="url(#SVGID_29_)" stroke="#594A42" stroke-miterlimit="10" d="M651.988,134.833c-1.48-0.081-5.319-0.323-6.443,0.448
			c-2.934,2.014-0.181,3.146,1.064,4.491c2.052,2.217,4.108,5.185,5.54,7.797c0.492-2.674,6.512-5.607,8.894-5.598
			c-2.525-1.167-1.95-3.731-5.757-2.799c0.261-1.784-0.175-3.648-2.322-3.387"/>
		
			<linearGradient id="SVGID_30_" gradientUnits="userSpaceOnUse" x1="527.1795" y1="-102.8709" x2="527.1795" y2="-31.2374" gradientTransform="matrix(-0.8001 -0.4203 -0.4098 0.8112 1049.8442 316.7592)">
			<stop  offset="0" style="stop-color:#41A247"/>
			<stop  offset="1" style="stop-color:#296733"/>
		</linearGradient>
		<path fill="url(#SVGID_30_)" stroke="#594A42" stroke-miterlimit="10" d="M696.645,43.867c-1.287,1.484-4.39,2.616-4.907,4.612
			c-0.183,0.705,0.094,2.057,0.675,2.665c0.914,0.958,2.078,0.301,2.687,0.871c3.145,2.939-3.239,6.116-4.101,8.766
			c1.672,1.896,3.158,2.717-0.129,4.226c-1.263-2.128-2.215-6.493-4.781-8.159c-2.706-1.757-4.713,0.504-2.983-3.589
			c0.526-1.243,2.3-4.459,0.352-5.332c-2.575-1.154-2.082,3.097-2.858,4c-1.767,2.057-3.924,0.502-3.076-1.882
			c0.576-1.62,2.771-2.216,2.353-4.188c-0.667-3.145-4.734-1.516-6.896-1.987c0.689-3.249,1.264-5.969-2.561-7.361
			c-2.93,2.575-5.532,2.918-7.331-0.984c-0.757-1.642-0.261-2.868-2.278-3.411c-1.523-0.41-4.607,0.669-5.04,2.339
			c1.928,1.418,4.323,2.305,6.409,3.505c-1.467,3.115-2.866,5.133-5.347,7.273c-2.372-1.087-3.527-1.743-4.738-3.677
			c-0.672,0.765-1.268,1.988-2.173,2.658c-1.098-1.776-2.662-2.09-3.349-4.127c-0.985-2.921-0.432-3.048-4.002-3.985
			c-1.487-0.391-6.837-2.752-7.651-1.709c-1.931,2.474,4.388,5.42,5.912,6.228c1.798,0.953,1.998,0.838,3.62,0.96
			c1.018,0.076,1.416-0.812,2.52-0.066c1.323,0.894,1.186,3.712,0.538,4.93c-1.165,2.192-7.239,6.495-6.214,1.112
			c-2.892-0.743-4.216,2.928-5.108,5.064c-3.226-1.463-5.072-2.375-8.309-1.73c-2.931,0.584-4.73-1.412-7.632-2.835
			c-1.896-0.929-3.227-1.745-5.202-1.043c-1.295,0.46-2.445,1.559-3.631,2.269c-2.627,1.573-6.183,1.887-9.052,0.343
			c0.131-2.485,1.652-6.113,3.558-7.187c2.886-1.627,7.95-0.39,10.329-2.276c0.92-0.729,1.114-2.696,1.836-3.662
			c1.396-1.867,1.54-0.957,3.349-1.789c1.009-0.464,2.51-1.583,2.542-3.03c0.032-1.453-1.784-2.063-0.489-3.539
			c2.995,0.774,4.296,3.466,6.212-1.145c-2.828-1.189-1.948-4.051-0.793-6.263c0.534-1.023,1.07-2.246,1.842-3.081
			c1.5-1.621,1.234-1.008,3.419-1.1c3.05-0.128,2.685-0.991,3.987-3.41c1.366-2.538,3.453-2.424,5.977-2.075
			c1.305,0.181,1.737,1.308,2.794,0.026c1.168-1.417-0.432-1.716-0.151-2.679c0.769-2.636,3.932-3.387,6.553-2.655
			c1.436,0.401,1.85,0.59,3.274,0.702c2.939,0.23,4.192-0.476,6.014,1.861c1.475,1.892,3.238,4.528,2.068,6.843
			c1.231,2.033,2.243,0.898,4.059,0.925c2.123,0.031,1.692,1.017,2.975,1.879c2.075,1.394,2.234,0.97,4.053-0.064
			c1.47-0.836,1.415-1.997,2.841-0.381c1.931,2.188,0.587,5.395-2.075,5.063c-1.894-0.236-2.654-1.847-4.063,0.12
			c-1.173,1.637-0.313,2.181,0.848,3.397c2.228,2.332,5.384,2.068,7.839,4.208c2.079,1.812,3.661,4.444,6.619,4.129
			c2.353-0.251,3.905-3.26,6.039-3.65c1.081-0.197,1.642,0.588,2.7,0.845c1.744,0.423,2.915-0.525,4.533-0.166
			c2.316,0.513,2.249,3.658,3.276,5.152c0.625,0.908,2.807,1.592,1.237,3.192c-0.861,0.877-2.041-0.019-2.966-0.349
			c-3.362-1.198-7.199-3.749-10.894-3.333c-1.98,0.223-5.671,1.486-6.311,3.514c1.581,2.215,3.009,1.986,5.456,2.572
			c1.604,0.384,6.268,1.097,5.894,3.152"/>
	</g>
</g>
</svg>
